<svg xmlns="http://www.w3.org/2000/svg" width="100%" height="100%" viewBox="0 0 2031 165" preserveAspectRatio="none"><path d="M59,282L-98,290L249,283Z" fill="#908272" stroke="#908272" stroke-width="1"></path><path d="M249,283L-98,290L593,295Z" fill="#a58f78" stroke="#a58f78" stroke-width="1"></path><path d="M628,291L593,295L1088,287Z" fill="#e3b684" stroke="#e3b684" stroke-width="1"></path><path d="M1088,287L593,295L1181,289Z" fill="#fac488" stroke="#fac488" stroke-width="1"></path><path d="M510,-133L612,-130L1318,-126Z" fill="#664315" stroke="#664315" stroke-width="1"></path><path d="M612,-130L933,-117L1318,-126Z" fill="#774e16" stroke="#774e16" stroke-width="1"></path><path d="M933,-117L1151,-107L1318,-126Z" fill="#835922" stroke="#835922" stroke-width="1"></path><path d="M1318,-126L1514,-115L1890,-122Z" fill="#846847" stroke="#846847" stroke-width="1"></path><path d="M1514,-115L1620,-102L1890,-122Z" fill="#886e50" stroke="#886e50" stroke-width="1"></path><path d="M1489,277L1181,289L1969,298Z" fill="#ffdfb9" stroke="#ffdfb9" stroke-width="1"></path><path d="M1860,282L1695,271L1969,298Z" fill="#ffebd3" stroke="#ffebd3" stroke-width="1"></path><path d="M1695,271L1489,277L1969,298Z" fill="#ffe5c7" stroke="#ffe5c7" stroke-width="1"></path><path d="M1318,-126L1890,-122L1972,-128Z" fill="#816c54" stroke="#816c54" stroke-width="1"></path><path d="M510,-133L1318,-126L1972,-128Z" fill="#7e592d" stroke="#7e592d" stroke-width="1"></path><path d="M1972,-128L2043,-115L2135,-103Z" fill="#877c70" stroke="#877c70" stroke-width="1"></path><path d="M2147,92L2087,116L2152,205Z" fill="#ffd7a7" stroke="#ffd7a7" stroke-width="1"></path><path d="M2087,116L2082,191L2152,205Z" fill="#ffddb5" stroke="#ffddb5" stroke-width="1"></path><path d="M2133,-18L2068,39L2165,48Z" fill="#dcb386" stroke="#dcb386" stroke-width="1"></path><path d="M2135,-103L2133,-18L2165,48Z" fill="#bfa182" stroke="#bfa182" stroke-width="1"></path><path d="M2147,92L2152,205L2165,48Z" fill="#ffd39f" stroke="#ffd39f" stroke-width="1"></path><path d="M2152,205L2082,191L2168,278Z" fill="#ffead2" stroke="#ffead2" stroke-width="1"></path><path d="M2082,191L2043,291L2168,278Z" fill="#ffefdd" stroke="#ffefdd" stroke-width="1"></path><path d="M2165,48L2152,205L2168,278Z" fill="#ffe1bd" stroke="#ffe1bd" stroke-width="1"></path><path d="M2068,39L2147,92L2165,48Z" fill="#f3c18a" stroke="#f3c18a" stroke-width="1"></path><path d="M2056,-57L2133,-18L2135,-103Z" fill="#aa937b" stroke="#aa937b" stroke-width="1"></path><path d="M1620,-102L1770,-91L1890,-122Z" fill="#8d7458" stroke="#8d7458" stroke-width="1"></path><path d="M2068,39L2087,116L2147,92Z" fill="#ffc98a" stroke="#ffc98a" stroke-width="1"></path><path d="M2043,-115L2056,-57L2135,-103Z" fill="#968675" stroke="#968675" stroke-width="1"></path><path d="M2056,-57L2068,39L2133,-18Z" fill="#c6a47f" stroke="#c6a47f" stroke-width="1"></path><path d="M1620,-102L1685,-90L1770,-91Z" fill="#937654" stroke="#937654" stroke-width="1"></path><path d="M1969,189L2043,291L2082,191Z" fill="#ffe6c8" stroke="#ffe6c8" stroke-width="1"></path><path d="M2068,39L2007,64L2087,116Z" fill="#fbc485" stroke="#fbc485" stroke-width="1"></path><path d="M1976,139L2082,191L2087,116Z" fill="#ffd6a5" stroke="#ffd6a5" stroke-width="1"></path><path d="M2007,64L1976,139L2087,116Z" fill="#ffcb8e" stroke="#ffcb8e" stroke-width="1"></path><path d="M2056,-57L1964,-6L2068,39Z" fill="#c8a37a" stroke="#c8a37a" stroke-width="1"></path><path d="M1976,139L1969,189L2082,191Z" fill="#ffd9ad" stroke="#ffd9ad" stroke-width="1"></path><path d="M1964,-6L2007,64L2068,39Z" fill="#e1b27d" stroke="#e1b27d" stroke-width="1"></path><path d="M1969,189L1969,298L2043,291Z" fill="#ffecd6" stroke="#ffecd6" stroke-width="1"></path><path d="M2043,-115L1972,-128L2056,-57Z" fill="#90806f" stroke="#90806f" stroke-width="1"></path><path d="M1972,-128L1964,-6L2056,-57Z" fill="#a68d71" stroke="#a68d71" stroke-width="1"></path><path d="M1969,189L1907,246L1969,298Z" fill="#ffe7ca" stroke="#ffe7ca" stroke-width="1"></path><path d="M1902,-58L1964,-6L1972,-128Z" fill="#a68b6d" stroke="#a68b6d" stroke-width="1"></path><path d="M1964,-6L1925,36L2007,64Z" fill="#e0b078" stroke="#e0b078" stroke-width="1"></path><path d="M1925,36L1931,103L2007,64Z" fill="#f6bd7b" stroke="#f6bd7b" stroke-width="1"></path><path d="M1931,103L1976,139L2007,64Z" fill="#ffc887" stroke="#ffc887" stroke-width="1"></path><path d="M1926,175L1907,246L1969,189Z" fill="#ffddb5" stroke="#ffddb5" stroke-width="1"></path><path d="M1890,-122L1902,-58L1972,-128Z" fill="#8f7b66" stroke="#8f7b66" stroke-width="1"></path><path d="M1926,175L1969,189L1976,139Z" fill="#ffd6a6" stroke="#ffd6a6" stroke-width="1"></path><path d="M1931,103L1926,175L1976,139Z" fill="#ffcf97" stroke="#ffcf97" stroke-width="1"></path><path d="M1907,246L1860,282L1969,298Z" fill="#ffecd6" stroke="#ffecd6" stroke-width="1"></path><path d="M1902,-58L1925,36L1964,-6Z" fill="#c69e71" stroke="#c69e71" stroke-width="1"></path><path d="M1770,-91L1821,-89L1890,-122Z" fill="#8f795e" stroke="#8f795e" stroke-width="1"></path><path d="M1902,-58L1862,24L1925,36Z" fill="#cca16f" stroke="#cca16f" stroke-width="1"></path><path d="M1864,180L1907,246L1926,175Z" fill="#ffdbb0" stroke="#ffdbb0" stroke-width="1"></path><path d="M1925,36L1862,24L1931,103Z" fill="#edb675" stroke="#edb675" stroke-width="1"></path><path d="M1862,24L1865,137L1931,103Z" fill="#fec179" stroke="#fec179" stroke-width="1"></path><path d="M1865,137L1926,175L1931,103Z" fill="#ffcd93" stroke="#ffcd93" stroke-width="1"></path><path d="M1559,260L1489,277L1695,271Z" fill="#ffdcb4" stroke="#ffdcb4" stroke-width="1"></path><path d="M1865,137L1864,180L1926,175Z" fill="#ffd29d" stroke="#ffd29d" stroke-width="1"></path><path d="M1781,253L1695,271L1860,282Z" fill="#ffe5c6" stroke="#ffe5c6" stroke-width="1"></path><path d="M1862,24L1793,95L1865,137Z" fill="#febf73" stroke="#febf73" stroke-width="1"></path><path d="M1822,-45L1862,24L1902,-58Z" fill="#bb9569" stroke="#bb9569" stroke-width="1"></path><path d="M1890,-122L1821,-89L1902,-58Z" fill="#967e63" stroke="#967e63" stroke-width="1"></path><path d="M1864,180L1860,282L1907,246Z" fill="#ffe2bf" stroke="#ffe2bf" stroke-width="1"></path><path d="M1821,-89L1822,-45L1902,-58Z" fill="#a58764" stroke="#a58764" stroke-width="1"></path><path d="M1781,253L1860,282L1864,180Z" fill="#ffe0bc" stroke="#ffe0bc" stroke-width="1"></path><path d="M1762,22L1793,95L1862,24Z" fill="#e7af6b" stroke="#e7af6b" stroke-width="1"></path><path d="M1822,-45L1788,-14L1862,24Z" fill="#c49967" stroke="#c49967" stroke-width="1"></path><path d="M1793,95L1744,204L1864,180Z" fill="#ffcd93" stroke="#ffcd93" stroke-width="1"></path><path d="M1744,204L1781,253L1864,180Z" fill="#ffd9ac" stroke="#ffd9ac" stroke-width="1"></path><path d="M1793,95L1864,180L1865,137Z" fill="#ffca8c" stroke="#ffca8c" stroke-width="1"></path><path d="M1788,-14L1762,22L1862,24Z" fill="#d1a168" stroke="#d1a168" stroke-width="1"></path><path d="M1821,-89L1770,-91L1822,-45Z" fill="#9e815f" stroke="#9e815f" stroke-width="1"></path><path d="M1770,-91L1788,-14L1822,-45Z" fill="#ad8a61" stroke="#ad8a61" stroke-width="1"></path><path d="M1288,261L1181,289L1489,277Z" fill="#ffd29e" stroke="#ffd29e" stroke-width="1"></path><path d="M1770,-91L1714,-42L1788,-14Z" fill="#ad895e" stroke="#ad895e" stroke-width="1"></path><path d="M1687,131L1744,204L1793,95Z" fill="#ffc786" stroke="#ffc786" stroke-width="1"></path><path d="M1762,22L1718,19L1793,95Z" fill="#e6ac67" stroke="#e6ac67" stroke-width="1"></path><path d="M1718,19L1687,131L1793,95Z" fill="#fcb967" stroke="#fcb967" stroke-width="1"></path><path d="M851,260L628,291L1088,287Z" fill="#edba81" stroke="#edba81" stroke-width="1"></path><path d="M1714,-42L1762,22L1788,-14Z" fill="#c49761" stroke="#c49761" stroke-width="1"></path><path d="M1714,-42L1718,19L1762,22Z" fill="#ca9a60" stroke="#ca9a60" stroke-width="1"></path><path d="M1744,204L1695,271L1781,253Z" fill="#ffddb6" stroke="#ffddb6" stroke-width="1"></path><path d="M1685,-90L1714,-42L1770,-91Z" fill="#9e7e58" stroke="#9e7e58" stroke-width="1"></path><path d="M1687,131L1689,196L1744,204Z" fill="#ffcd93" stroke="#ffcd93" stroke-width="1"></path><path d="M1689,196L1695,271L1744,204Z" fill="#ffd8aa" stroke="#ffd8aa" stroke-width="1"></path><path d="M-132,-111L215,-123L280,-133Z" fill="#291c0d" stroke="#291c0d" stroke-width="1"></path><path d="M1593,247L1559,260L1695,271Z" fill="#ffdcb2" stroke="#ffdcb2" stroke-width="1"></path><path d="M1619,105L1687,131L1718,19Z" fill="#fcb863" stroke="#fcb863" stroke-width="1"></path><path d="M1608,48L1619,105L1718,19Z" fill="#ecac5d" stroke="#ecac5d" stroke-width="1"></path><path d="M1714,-42L1600,-19L1718,19Z" fill="#c1935a" stroke="#c1935a" stroke-width="1"></path><path d="M1600,-19L1608,48L1718,19Z" fill="#d39c59" stroke="#d39c59" stroke-width="1"></path><path d="M1685,-90L1600,-19L1714,-42Z" fill="#ac8556" stroke="#ac8556" stroke-width="1"></path><path d="M1620,-102L1600,-19L1685,-90Z" fill="#a07c51" stroke="#a07c51" stroke-width="1"></path><path d="M1687,131L1637,207L1689,196Z" fill="#ffcc90" stroke="#ffcc90" stroke-width="1"></path><path d="M1689,196L1637,207L1695,271Z" fill="#ffd6a7" stroke="#ffd6a7" stroke-width="1"></path><path d="M1637,207L1593,247L1695,271Z" fill="#ffd9ac" stroke="#ffd9ac" stroke-width="1"></path><path d="M1619,105L1637,207L1687,131Z" fill="#ffc47f" stroke="#ffc47f" stroke-width="1"></path><path d="M1619,105L1547,177L1637,207Z" fill="#ffc682" stroke="#ffc682" stroke-width="1"></path><path d="M1547,177L1593,247L1637,207Z" fill="#ffd098" stroke="#ffd098" stroke-width="1"></path><path d="M1318,-126L1440,-96L1514,-115Z" fill="#88653c" stroke="#88653c" stroke-width="1"></path><path d="M1600,-19L1561,46L1608,48Z" fill="#d89e55" stroke="#d89e55" stroke-width="1"></path><path d="M1608,48L1561,46L1619,105Z" fill="#f1ae59" stroke="#f1ae59" stroke-width="1"></path><path d="M1561,46L1535,99L1619,105Z" fill="#fbb358" stroke="#fbb358" stroke-width="1"></path><path d="M1535,99L1547,177L1619,105Z" fill="#febc6e" stroke="#febc6e" stroke-width="1"></path><path d="M1560,-18L1600,-19L1620,-102Z" fill="#ae8350" stroke="#ae8350" stroke-width="1"></path><path d="M1514,-115L1560,-18L1620,-102Z" fill="#9c764b" stroke="#9c764b" stroke-width="1"></path><path d="M1560,-18L1561,46L1600,-19Z" fill="#cb9552" stroke="#cb9552" stroke-width="1"></path><path d="M1364,245L1288,261L1489,277Z" fill="#ffd29d" stroke="#ffd29d" stroke-width="1"></path><path d="M1547,177L1559,260L1593,247Z" fill="#ffd29e" stroke="#ffd29e" stroke-width="1"></path><path d="M763,264L628,291L851,260Z" fill="#dfb07b" stroke="#dfb07b" stroke-width="1"></path><path d="M1454,216L1489,277L1547,177Z" fill="#ffce96" stroke="#ffce96" stroke-width="1"></path><path d="M1535,99L1470,147L1547,177Z" fill="#febd70" stroke="#febd70" stroke-width="1"></path><path d="M1547,177L1489,277L1559,260Z" fill="#ffd3a0" stroke="#ffd3a0" stroke-width="1"></path><path d="M1514,-115L1439,-37L1560,-18Z" fill="#a87c47" stroke="#a87c47" stroke-width="1"></path><path d="M1560,-18L1463,21L1561,46Z" fill="#d3984f" stroke="#d3984f" stroke-width="1"></path><path d="M1463,21L1535,99L1561,46Z" fill="#eaa651" stroke="#eaa651" stroke-width="1"></path><path d="M1439,-37L1463,21L1560,-18Z" fill="#c28c49" stroke="#c28c49" stroke-width="1"></path><path d="M1214,275L1181,289L1288,261Z" fill="#ffce95" stroke="#ffce95" stroke-width="1"></path><path d="M1470,147L1454,216L1547,177Z" fill="#ffc580" stroke="#ffc580" stroke-width="1"></path><path d="M1440,-96L1439,-37L1514,-115Z" fill="#997142" stroke="#997142" stroke-width="1"></path><path d="M1463,21L1470,147L1535,99Z" fill="#fbb153" stroke="#fbb153" stroke-width="1"></path><path d="M1367,67L1399,141L1463,21Z" fill="#f6aa47" stroke="#f6aa47" stroke-width="1"></path><path d="M1463,21L1399,141L1470,147Z" fill="#fcb256" stroke="#fcb256" stroke-width="1"></path><path d="M1454,216L1364,245L1489,277Z" fill="#ffd19b" stroke="#ffd19b" stroke-width="1"></path><path d="M1318,-126L1400,-80L1440,-96Z" fill="#8f6839" stroke="#8f6839" stroke-width="1"></path><path d="M1399,141L1381,180L1454,216Z" fill="#ffc178" stroke="#ffc178" stroke-width="1"></path><path d="M1399,141L1454,216L1470,147Z" fill="#ffc076" stroke="#ffc076" stroke-width="1"></path><path d="M1439,-37L1364,-4L1463,21Z" fill="#c58b43" stroke="#c58b43" stroke-width="1"></path><path d="M1364,-4L1367,67L1463,21Z" fill="#d99743" stroke="#d99743" stroke-width="1"></path><path d="M1400,-80L1439,-37L1440,-96Z" fill="#a0743f" stroke="#a0743f" stroke-width="1"></path><path d="M1381,180L1364,245L1454,216Z" fill="#ffc888" stroke="#ffc888" stroke-width="1"></path><path d="M1400,-80L1364,-4L1439,-37Z" fill="#b17e3f" stroke="#b17e3f" stroke-width="1"></path><path d="M612,-130L691,-111L933,-117Z" fill="#644215" stroke="#644215" stroke-width="1"></path><path d="M933,-117L1005,-98L1151,-107Z" fill="#875818" stroke="#875818" stroke-width="1"></path><path d="M1151,-107L1233,-100L1318,-126Z" fill="#875e2c" stroke="#875e2c" stroke-width="1"></path><path d="M1367,67L1292,96L1399,141Z" fill="#fbae4c" stroke="#fbae4c" stroke-width="1"></path><path d="M1329,-56L1364,-4L1400,-80Z" fill="#ad7a3b" stroke="#ad7a3b" stroke-width="1"></path><path d="M1318,-126L1329,-56L1400,-80Z" fill="#966b37" stroke="#966b37" stroke-width="1"></path><path d="M1292,96L1381,180L1399,141Z" fill="#feb65f" stroke="#feb65f" stroke-width="1"></path><path d="M1306,67L1292,96L1367,67Z" fill="#f5a63e" stroke="#f5a63e" stroke-width="1"></path><path d="M1364,-4L1306,67L1367,67Z" fill="#e19b3f" stroke="#e19b3f" stroke-width="1"></path><path d="M1292,96L1322,212L1381,180Z" fill="#feba69" stroke="#feba69" stroke-width="1"></path><path d="M1322,212L1364,245L1381,180Z" fill="#ffc683" stroke="#ffc683" stroke-width="1"></path><path d="M1268,-11L1306,67L1364,-4Z" fill="#d1903a" stroke="#d1903a" stroke-width="1"></path><path d="M1329,-56L1268,-11L1364,-4Z" fill="#ba8139" stroke="#ba8139" stroke-width="1"></path><path d="M1322,212L1288,261L1364,245Z" fill="#ffcb8d" stroke="#ffcb8d" stroke-width="1"></path><path d="M1238,125L1254,197L1292,96Z" fill="#fcb256" stroke="#fcb256" stroke-width="1"></path><path d="M1292,96L1254,197L1322,212Z" fill="#feba67" stroke="#feba67" stroke-width="1"></path><path d="M1318,-126L1233,-100L1329,-56Z" fill="#926732" stroke="#926732" stroke-width="1"></path><path d="M1233,-100L1268,-11L1329,-56Z" fill="#a77333" stroke="#a77333" stroke-width="1"></path><path d="M1254,197L1288,261L1322,212Z" fill="#ffc682" stroke="#ffc682" stroke-width="1"></path><path d="M1229,70L1292,96L1306,67Z" fill="#f5a539" stroke="#f5a539" stroke-width="1"></path><path d="M1268,-11L1229,70L1306,67Z" fill="#df9736" stroke="#df9736" stroke-width="1"></path><path d="M1254,197L1214,275L1288,261Z" fill="#ffc989" stroke="#ffc989" stroke-width="1"></path><path d="M1229,70L1238,125L1292,96Z" fill="#f9a93f" stroke="#f9a93f" stroke-width="1"></path><path d="M1173,56L1229,70L1268,-11Z" fill="#dc9431" stroke="#dc9431" stroke-width="1"></path><path d="M1155,-39L1173,56L1268,-11Z" fill="#c7852e" stroke="#c7852e" stroke-width="1"></path><path d="M1233,-100L1155,-39L1268,-11Z" fill="#a9732e" stroke="#a9732e" stroke-width="1"></path><path d="M1145,126L1151,218L1238,125Z" fill="#fcb257" stroke="#fcb257" stroke-width="1"></path><path d="M1238,125L1151,218L1254,197Z" fill="#fdb966" stroke="#fdb966" stroke-width="1"></path><path d="M1151,218L1214,275L1254,197Z" fill="#ffc47e" stroke="#ffc47e" stroke-width="1"></path><path d="M1173,56L1145,126L1229,70Z" fill="#f6a32e" stroke="#f6a32e" stroke-width="1"></path><path d="M1151,-107L1155,-39L1233,-100Z" fill="#976628" stroke="#976628" stroke-width="1"></path><path d="M1229,70L1145,126L1238,125Z" fill="#f9a93f" stroke="#f9a93f" stroke-width="1"></path><path d="M944,246L851,260L1088,287Z" fill="#f9bf7b" stroke="#f9bf7b" stroke-width="1"></path><path d="M1151,218L1181,289L1214,275Z" fill="#ffc98a" stroke="#ffc98a" stroke-width="1"></path><path d="M1155,-39L1109,23L1173,56Z" fill="#cc8728" stroke="#cc8728" stroke-width="1"></path><path d="M1151,218L1088,287L1181,289Z" fill="#ffc888" stroke="#ffc888" stroke-width="1"></path><path d="M1145,126L1083,198L1151,218Z" fill="#fcb65e" stroke="#fcb65e" stroke-width="1"></path><path d="M1005,-98L1107,-79L1151,-107Z" fill="#8e5f1f" stroke="#8e5f1f" stroke-width="1"></path><path d="M1151,-107L1107,-79L1155,-39Z" fill="#9a6724" stroke="#9a6724" stroke-width="1"></path><path d="M1085,115L1145,126L1173,56Z" fill="#f7a432" stroke="#f7a432" stroke-width="1"></path><path d="M1109,23L1085,115L1173,56Z" fill="#ea9a25" stroke="#ea9a25" stroke-width="1"></path><path d="M-132,-111L94,-107L215,-123Z" fill="#271b0c" stroke="#271b0c" stroke-width="1"></path><path d="M1085,115L1083,198L1145,126Z" fill="#faad4a" stroke="#faad4a" stroke-width="1"></path><path d="M1083,198L1088,287L1151,218Z" fill="#fec077" stroke="#fec077" stroke-width="1"></path><path d="M1065,-21L1109,23L1155,-39Z" fill="#bd7d23" stroke="#bd7d23" stroke-width="1"></path><path d="M1107,-79L1065,-21L1155,-39Z" fill="#aa7022" stroke="#aa7022" stroke-width="1"></path><path d="M691,-111L863,-97L933,-117Z" fill="#734b16" stroke="#734b16" stroke-width="1"></path><path d="M1037,119L1083,198L1085,115Z" fill="#faab45" stroke="#faab45" stroke-width="1"></path><path d="M1041,253L944,246L1088,287Z" fill="#ffc37c" stroke="#ffc37c" stroke-width="1"></path><path d="M1083,198L1041,253L1088,287Z" fill="#fec179" stroke="#fec179" stroke-width="1"></path><path d="M1043,52L1085,115L1109,23Z" fill="#e9971f" stroke="#e9971f" stroke-width="1"></path><path d="M1065,-21L1043,52L1109,23Z" fill="#ce861f" stroke="#ce861f" stroke-width="1"></path><path d="M1005,-98L1065,-21L1107,-79Z" fill="#9e681c" stroke="#9e681c" stroke-width="1"></path><path d="M1026,-6L1043,52L1065,-21Z" fill="#c8821b" stroke="#c8821b" stroke-width="1"></path><path d="M1037,119L1017,180L1083,198Z" fill="#faaf4e" stroke="#faaf4e" stroke-width="1"></path><path d="M1043,52L1037,119L1085,115Z" fill="#f5a025" stroke="#f5a025" stroke-width="1"></path><path d="M1017,180L1041,253L1083,198Z" fill="#fcb965" stroke="#fcb965" stroke-width="1"></path><path d="M1005,-98L1026,-6L1065,-21Z" fill="#ab6f1a" stroke="#ab6f1a" stroke-width="1"></path><path d="M967,36L930,109L1037,119Z" fill="#ef9a18" stroke="#ef9a18" stroke-width="1"></path><path d="M1017,180L944,246L1041,253Z" fill="#fbba6a" stroke="#fbba6a" stroke-width="1"></path><path d="M967,36L1037,119L1043,52Z" fill="#eb9713" stroke="#eb9713" stroke-width="1"></path><path d="M1026,-6L967,36L1043,52Z" fill="#d28716" stroke="#d28716" stroke-width="1"></path><path d="M1005,-98L924,-22L1026,-6Z" fill="#a76c17" stroke="#a76c17" stroke-width="1"></path><path d="M930,109L1017,180L1037,119Z" fill="#f6a63a" stroke="#f6a63a" stroke-width="1"></path><path d="M930,109L938,179L1017,180Z" fill="#f3a845" stroke="#f3a845" stroke-width="1"></path><path d="M938,179L944,246L1017,180Z" fill="#f6b25d" stroke="#f6b25d" stroke-width="1"></path><path d="M924,-22L967,36L1026,-6Z" fill="#bf7b17" stroke="#bf7b17" stroke-width="1"></path><path d="M933,-117L924,-22L1005,-98Z" fill="#8f5d17" stroke="#8f5d17" stroke-width="1"></path><path d="M691,-111L793,-85L863,-97Z" fill="#734c16" stroke="#734c16" stroke-width="1"></path><path d="M880,-45L924,-22L933,-117Z" fill="#956117" stroke="#956117" stroke-width="1"></path><path d="M870,58L930,109L967,36Z" fill="#df9014" stroke="#df9014" stroke-width="1"></path><path d="M924,-22L870,58L967,36Z" fill="#c67f16" stroke="#c67f16" stroke-width="1"></path><path d="M863,-97L880,-45L933,-117Z" fill="#855717" stroke="#855717" stroke-width="1"></path><path d="M930,109L852,146L938,179Z" fill="#eca13f" stroke="#eca13f" stroke-width="1"></path><path d="M938,179L870,194L944,246Z" fill="#f0af5f" stroke="#f0af5f" stroke-width="1"></path><path d="M870,194L851,260L944,246Z" fill="#eeb36b" stroke="#eeb36b" stroke-width="1"></path><path d="M852,146L870,194L938,179Z" fill="#eba64d" stroke="#eba64d" stroke-width="1"></path><path d="M880,-45L870,58L924,-22Z" fill="#b37417" stroke="#b37417" stroke-width="1"></path><path d="M870,58L852,146L930,109Z" fill="#e69726" stroke="#e69726" stroke-width="1"></path><path d="M709,260L628,291L763,264Z" fill="#daad7a" stroke="#daad7a" stroke-width="1"></path><path d="M796,108L852,146L870,58Z" fill="#e19426" stroke="#e19426" stroke-width="1"></path><path d="M792,-54L775,48L870,58Z" fill="#b67517" stroke="#b67517" stroke-width="1"></path><path d="M792,-54L870,58L880,-45Z" fill="#a86d17" stroke="#a86d17" stroke-width="1"></path><path d="M863,-97L792,-54L880,-45Z" fill="#8b5b17" stroke="#8b5b17" stroke-width="1"></path><path d="M793,-85L792,-54L863,-97Z" fill="#815417" stroke="#815417" stroke-width="1"></path><path d="M852,146L789,198L870,194Z" fill="#e5a350" stroke="#e5a350" stroke-width="1"></path><path d="M789,198L851,260L870,194Z" fill="#e7ab63" stroke="#e7ab63" stroke-width="1"></path><path d="M775,48L796,108L870,58Z" fill="#d58915" stroke="#d58915" stroke-width="1"></path><path d="M789,198L763,264L851,260Z" fill="#e4ae6d" stroke="#e4ae6d" stroke-width="1"></path><path d="M796,108L789,198L852,146Z" fill="#e29c41" stroke="#e29c41" stroke-width="1"></path><path d="M420,254L249,283L593,295Z" fill="#b99977" stroke="#b99977" stroke-width="1"></path><path d="M731,213L763,264L789,198Z" fill="#dea765" stroke="#dea765" stroke-width="1"></path><path d="M710,115L731,213L789,198Z" fill="#db9c4d" stroke="#db9c4d" stroke-width="1"></path><path d="M723,-23L775,48L792,-54Z" fill="#a16917" stroke="#a16917" stroke-width="1"></path><path d="M710,115L789,198L796,108Z" fill="#db963b" stroke="#db963b" stroke-width="1"></path><path d="M775,48L710,115L796,108Z" fill="#d68b1c" stroke="#d68b1c" stroke-width="1"></path><path d="M723,-23L792,-54L793,-85Z" fill="#895a17" stroke="#895a17" stroke-width="1"></path><path d="M691,-111L723,-23L793,-85Z" fill="#7c5117" stroke="#7c5117" stroke-width="1"></path><path d="M723,-23L693,29L775,48Z" fill="#ad7017" stroke="#ad7017" stroke-width="1"></path><path d="M693,29L710,115L775,48Z" fill="#c78016" stroke="#c78016" stroke-width="1"></path><path d="M731,213L709,260L763,264Z" fill="#dcaa6e" stroke="#dcaa6e" stroke-width="1"></path><path d="M340,257L249,283L420,254Z" fill="#af916f" stroke="#af916f" stroke-width="1"></path><path d="M693,29L657,67L710,115Z" fill="#c68016" stroke="#c68016" stroke-width="1"></path><path d="M657,67L666,103L710,115Z" fill="#cd8620" stroke="#cd8620" stroke-width="1"></path><path d="M666,103L654,218L710,115Z" fill="#d2913d" stroke="#d2913d" stroke-width="1"></path><path d="M691,-111L648,-50L723,-23Z" fill="#7d5217" stroke="#7d5217" stroke-width="1"></path><path d="M710,115L654,218L731,213Z" fill="#d59a4f" stroke="#d59a4f" stroke-width="1"></path><path d="M654,218L709,260L731,213Z" fill="#d7a466" stroke="#d7a466" stroke-width="1"></path><path d="M648,-50L693,29L723,-23Z" fill="#966217" stroke="#966217" stroke-width="1"></path><path d="M654,218L628,291L709,260Z" fill="#d5a772" stroke="#d5a772" stroke-width="1"></path><path d="M576,138L654,218L666,103Z" fill="#cd8f40" stroke="#cd8f40" stroke-width="1"></path><path d="M612,-130L648,-50L691,-111Z" fill="#664315" stroke="#664315" stroke-width="1"></path><path d="M648,-50L657,67L693,29Z" fill="#a56b17" stroke="#a56b17" stroke-width="1"></path><path d="M648,-50L581,52L657,67Z" fill="#a56b17" stroke="#a56b17" stroke-width="1"></path><path d="M552,-7L581,52L648,-50Z" fill="#936017" stroke="#936017" stroke-width="1"></path><path d="M657,67L576,138L666,103Z" fill="#c98525" stroke="#c98525" stroke-width="1"></path><path d="M593,295L628,291L654,218Z" fill="#d1a677" stroke="#d1a677" stroke-width="1"></path><path d="M576,138L539,200L654,218Z" fill="#c9934f" stroke="#c9934f" stroke-width="1"></path><path d="M581,52L576,138L657,67Z" fill="#c47f19" stroke="#c47f19" stroke-width="1"></path><path d="M612,-130L550,-105L648,-50Z" fill="#634115" stroke="#634115" stroke-width="1"></path><path d="M539,200L593,295L654,218Z" fill="#cc9e68" stroke="#cc9e68" stroke-width="1"></path><path d="M550,-105L552,-7L648,-50Z" fill="#764d16" stroke="#764d16" stroke-width="1"></path><path d="M480,246L420,254L593,295Z" fill="#c29c73" stroke="#c29c73" stroke-width="1"></path><path d="M510,-133L550,-105L612,-130Z" fill="#503513" stroke="#503513" stroke-width="1"></path><path d="M550,-105L509,-32L552,-7Z" fill="#754c16" stroke="#754c16" stroke-width="1"></path><path d="M489,99L576,138L581,52Z" fill="#bf7d21" stroke="#bf7d21" stroke-width="1"></path><path d="M539,200L480,246L593,295Z" fill="#c59c6b" stroke="#c59c6b" stroke-width="1"></path><path d="M552,-7L473,49L581,52Z" fill="#9f6717" stroke="#9f6717" stroke-width="1"></path><path d="M473,49L489,99L581,52Z" fill="#b17217" stroke="#b17217" stroke-width="1"></path><path d="M489,99L539,200L576,138Z" fill="#c2863c" stroke="#c2863c" stroke-width="1"></path><path d="M280,-133L413,-85L510,-133Z" fill="#442e12" stroke="#442e12" stroke-width="1"></path><path d="M489,99L481,191L539,200Z" fill="#bf8844" stroke="#bf8844" stroke-width="1"></path><path d="M510,-133L509,-32L550,-105Z" fill="#5d3e15" stroke="#5d3e15" stroke-width="1"></path><path d="M509,-32L473,49L552,-7Z" fill="#8d5c17" stroke="#8d5c17" stroke-width="1"></path><path d="M481,191L480,246L539,200Z" fill="#c0925b" stroke="#c0925b" stroke-width="1"></path><path d="M413,175L481,191L489,99Z" fill="#ba833f" stroke="#ba833f" stroke-width="1"></path><path d="M426,97L413,175L489,99Z" fill="#b67b2f" stroke="#b67b2f" stroke-width="1"></path><path d="M435,49L473,49L509,-32Z" fill="#946017" stroke="#946017" stroke-width="1"></path><path d="M393,-35L435,49L509,-32Z" fill="#815517" stroke="#815517" stroke-width="1"></path><path d="M413,-85L509,-32L510,-133Z" fill="#5c3d15" stroke="#5c3d15" stroke-width="1"></path><path d="M413,-85L393,-35L509,-32Z" fill="#694515" stroke="#694515" stroke-width="1"></path><path d="M280,-133L315,-99L413,-85Z" fill="#442d12" stroke="#442d12" stroke-width="1"></path><path d="M420,254L480,246L481,191Z" fill="#bc9362" stroke="#bc9362" stroke-width="1"></path><path d="M473,49L426,97L489,99Z" fill="#b47417" stroke="#b47417" stroke-width="1"></path><path d="M435,49L426,97L473,49Z" fill="#a86d17" stroke="#a86d17" stroke-width="1"></path><path d="M413,175L420,254L481,191Z" fill="#b88c57" stroke="#b88c57" stroke-width="1"></path><path d="M359,117L413,175L426,97Z" fill="#b17a32" stroke="#b17a32" stroke-width="1"></path><path d="M393,-35L365,-11L435,49Z" fill="#805417" stroke="#805417" stroke-width="1"></path><path d="M365,-11L364,39L435,49Z" fill="#8d5c17" stroke="#8d5c17" stroke-width="1"></path><path d="M364,39L426,97L435,49Z" fill="#a36917" stroke="#a36917" stroke-width="1"></path><path d="M337,171L340,257L413,175Z" fill="#b08653" stroke="#b08653" stroke-width="1"></path><path d="M413,175L340,257L420,254Z" fill="#b48d60" stroke="#b48d60" stroke-width="1"></path><path d="M364,39L359,117L426,97Z" fill="#ac6f19" stroke="#ac6f19" stroke-width="1"></path><path d="M93,272L59,282L249,283Z" fill="#988571" stroke="#988571" stroke-width="1"></path><path d="M315,-99L393,-35L413,-85Z" fill="#573a14" stroke="#573a14" stroke-width="1"></path><path d="M359,117L337,171L413,175Z" fill="#b07d3e" stroke="#b07d3e" stroke-width="1"></path><path d="M315,-99L365,-11L393,-35Z" fill="#624115" stroke="#624115" stroke-width="1"></path><path d="M-132,-111L-55,-95L94,-107Z" fill="#24190b" stroke="#24190b" stroke-width="1"></path><path d="M337,171L269,212L340,257Z" fill="#ab8558" stroke="#ab8558" stroke-width="1"></path><path d="M245,57L359,117L364,39Z" fill="#9f6717" stroke="#9f6717" stroke-width="1"></path><path d="M278,-19L364,39L365,-11Z" fill="#7b5017" stroke="#7b5017" stroke-width="1"></path><path d="M315,-99L278,-19L365,-11Z" fill="#614015" stroke="#614015" stroke-width="1"></path><path d="M278,-19L245,57L364,39Z" fill="#835517" stroke="#835517" stroke-width="1"></path><path d="M251,143L337,171L359,117Z" fill="#a97738" stroke="#a97738" stroke-width="1"></path><path d="M245,57L251,143L359,117Z" fill="#a36d25" stroke="#a36d25" stroke-width="1"></path><path d="M208,267L93,272L249,283Z" fill="#9d8870" stroke="#9d8870" stroke-width="1"></path><path d="M269,212L249,283L340,257Z" fill="#a88a68" stroke="#a88a68" stroke-width="1"></path><path d="M251,143L269,212L337,171Z" fill="#a77b46" stroke="#a77b46" stroke-width="1"></path><path d="M215,-123L278,-19L280,-133Z" fill="#432d12" stroke="#432d12" stroke-width="1"></path><path d="M280,-133L278,-19L315,-99Z" fill="#4a3213" stroke="#4a3213" stroke-width="1"></path><path d="M245,57L216,107L251,143Z" fill="#9d6923" stroke="#9d6923" stroke-width="1"></path><path d="M208,267L249,283L269,212Z" fill="#a38868" stroke="#a38868" stroke-width="1"></path><path d="M251,143L217,175L269,212Z" fill="#a27846" stroke="#a27846" stroke-width="1"></path><path d="M215,-123L185,-34L278,-19Z" fill="#503513" stroke="#503513" stroke-width="1"></path><path d="M193,19L245,57L278,-19Z" fill="#794f16" stroke="#794f16" stroke-width="1"></path><path d="M185,-34L193,19L278,-19Z" fill="#684415" stroke="#684415" stroke-width="1"></path><path d="M217,175L208,267L269,212Z" fill="#a18058" stroke="#a18058" stroke-width="1"></path><path d="M-55,-95L58,-96L94,-107Z" fill="#2b1e0e" stroke="#2b1e0e" stroke-width="1"></path><path d="M216,107L217,175L251,143Z" fill="#9f7036" stroke="#9f7036" stroke-width="1"></path><path d="M193,19L216,107L245,57Z" fill="#8e5c17" stroke="#8e5c17" stroke-width="1"></path><path d="M94,-107L110,-46L185,-34Z" fill="#452e12" stroke="#452e12" stroke-width="1"></path><path d="M113,20L103,122L193,19Z" fill="#815417" stroke="#815417" stroke-width="1"></path><path d="M99,175L93,272L208,267Z" fill="#977d5f" stroke="#977d5f" stroke-width="1"></path><path d="M94,-107L185,-34L215,-123Z" fill="#3c2911" stroke="#3c2911" stroke-width="1"></path><path d="M193,19L103,122L216,107Z" fill="#956117" stroke="#956117" stroke-width="1"></path><path d="M99,175L208,267L217,175Z" fill="#9b7952" stroke="#9b7952" stroke-width="1"></path><path d="M216,107L103,122L217,175Z" fill="#996b32" stroke="#996b32" stroke-width="1"></path><path d="M103,122L99,175L217,175Z" fill="#976d3c" stroke="#976d3c" stroke-width="1"></path><path d="M185,-34L113,20L193,19Z" fill="#694515" stroke="#694515" stroke-width="1"></path><path d="M110,-46L113,20L185,-34Z" fill="#5b3c14" stroke="#5b3c14" stroke-width="1"></path><path d="M-43,263L-98,290L59,282Z" fill="#85796d" stroke="#85796d" stroke-width="1"></path><path d="M58,220L93,272L99,175Z" fill="#917657" stroke="#917657" stroke-width="1"></path><path d="M94,-107L58,-96L110,-46Z" fill="#372610" stroke="#372610" stroke-width="1"></path><path d="M58,66L103,122L113,20Z" fill="#855717" stroke="#855717" stroke-width="1"></path><path d="M110,-46L58,-15L113,20Z" fill="#5a3c14" stroke="#5a3c14" stroke-width="1"></path><path d="M58,-15L58,66L113,20Z" fill="#6b4716" stroke="#6b4716" stroke-width="1"></path><path d="M58,-96L58,-15L110,-46Z" fill="#452e12" stroke="#452e12" stroke-width="1"></path><path d="M22,119L99,175L103,122Z" fill="#8f6533" stroke="#8f6533" stroke-width="1"></path><path d="M58,66L22,119L103,122Z" fill="#8b5d21" stroke="#8b5d21" stroke-width="1"></path><path d="M58,220L59,282L93,272Z" fill="#907c66" stroke="#907c66" stroke-width="1"></path><path d="M22,119L58,220L99,175Z" fill="#8e6a41" stroke="#8e6a41" stroke-width="1"></path><path d="M-55,-95L-53,-20L58,-96Z" fill="#342310" stroke="#342310" stroke-width="1"></path><path d="M58,-96L-53,-20L58,-15Z" fill="#442e12" stroke="#442e12" stroke-width="1"></path><path d="M58,-15L-7,49L58,66Z" fill="#6c4716" stroke="#6c4716" stroke-width="1"></path><path d="M-7,49L22,119L58,66Z" fill="#835517" stroke="#835517" stroke-width="1"></path><path d="M22,119L-31,197L58,220Z" fill="#896943" stroke="#896943" stroke-width="1"></path><path d="M-31,197L-43,263L58,220Z" fill="#877157" stroke="#877157" stroke-width="1"></path><path d="M58,220L-43,263L59,282Z" fill="#8b7864" stroke="#8b7864" stroke-width="1"></path><path d="M-53,-20L-7,49L58,-15Z" fill="#5a3c14" stroke="#5a3c14" stroke-width="1"></path><path d="M-7,49L-44,103L22,119Z" fill="#82561b" stroke="#82561b" stroke-width="1"></path><path d="M-44,103L-31,197L22,119Z" fill="#855f32" stroke="#855f32" stroke-width="1"></path><path d="M-44,103L-101,137L-31,197Z" fill="#815d34" stroke="#815d34" stroke-width="1"></path><path d="M-87,62L-44,103L-7,49Z" fill="#784f16" stroke="#784f16" stroke-width="1"></path><path d="M-53,-20L-87,62L-7,49Z" fill="#624115" stroke="#624115" stroke-width="1"></path><path d="M-55,-95L-91,-45L-53,-20Z" fill="#372610" stroke="#372610" stroke-width="1"></path><path d="M-101,137L-89,195L-31,197Z" fill="#7f6241" stroke="#7f6241" stroke-width="1"></path><path d="M-89,195L-43,263L-31,197Z" fill="#816c53" stroke="#816c53" stroke-width="1"></path><path d="M-89,195L-98,290L-43,263Z" fill="#7f7060" stroke="#7f7060" stroke-width="1"></path><path d="M-87,62L-101,137L-44,103Z" fill="#7c541f" stroke="#7c541f" stroke-width="1"></path><path d="M-91,-45L-87,62L-53,-20Z" fill="#503513" stroke="#503513" stroke-width="1"></path><path d="M-132,-111L-91,-45L-55,-95Z" fill="#271b0c" stroke="#271b0c" stroke-width="1"></path><path d="M-91,-45L-132,-111L-87,62Z" fill="#3e2a11" stroke="#3e2a11" stroke-width="1"></path><path d="M-132,-111L-101,137L-87,62Z" fill="#5c3d14" stroke="#5c3d14" stroke-width="1"></path><path d="M-101,137L-98,290L-89,195Z" fill="#7d674d" stroke="#7d674d" stroke-width="1"></path><path d="M-101,137L-132,-111L-98,290Z" fill="#795221" stroke="#795221" stroke-width="1"></path></svg>