<svg xmlns="http://www.w3.org/2000/svg" width="100%" height="100%" viewBox="0 0 2031 165" preserveAspectRatio="none"><path d="M-12,287L-106,284L117,295Z" fill="#758077" stroke="#758077" stroke-width="1"></path><path d="M261,289L117,295L432,293Z" fill="#809685" stroke="#809685" stroke-width="1"></path><path d="M-61,-122L286,-123L434,-133Z" fill="#132418" stroke="#132418" stroke-width="1"></path><path d="M432,293L117,295L693,296Z" fill="#86a28d" stroke="#86a28d" stroke-width="1"></path><path d="M434,-133L548,-132L1005,-132Z" fill="#1b3f26" stroke="#1b3f26" stroke-width="1"></path><path d="M548,-132L782,-114L1005,-132Z" fill="#1d492c" stroke="#1d492c" stroke-width="1"></path><path d="M1314,268L1168,269L1379,272Z" fill="#a6dab3" stroke="#a6dab3" stroke-width="1"></path><path d="M1168,269L932,280L1379,272Z" fill="#9dd7ab" stroke="#9dd7ab" stroke-width="1"></path><path d="M1005,-132L1168,-128L1563,-124Z" fill="#356142" stroke="#356142" stroke-width="1"></path><path d="M1168,-128L1326,-119L1563,-124Z" fill="#3e6649" stroke="#3e6649" stroke-width="1"></path><path d="M1379,272L932,280L1695,288Z" fill="#aedeba" stroke="#aedeba" stroke-width="1"></path><path d="M932,280L693,296L1695,288Z" fill="#9fd7ad" stroke="#9fd7ad" stroke-width="1"></path><path d="M1615,274L1455,272L1695,288Z" fill="#c2e6ca" stroke="#c2e6ca" stroke-width="1"></path><path d="M1455,272L1379,272L1695,288Z" fill="#bce3c5" stroke="#bce3c5" stroke-width="1"></path><path d="M1845,274L1695,288L1915,278Z" fill="#d6eedb" stroke="#d6eedb" stroke-width="1"></path><path d="M1563,-124L1635,-120L1939,-108Z" fill="#5a7360" stroke="#5a7360" stroke-width="1"></path><path d="M1635,-120L1821,-101L1939,-108Z" fill="#627967" stroke="#627967" stroke-width="1"></path><path d="M1939,-108L1977,-89L2088,-96Z" fill="#738476" stroke="#738476" stroke-width="1"></path><path d="M2116,-45L2080,58L2120,67Z" fill="#90bc9b" stroke="#90bc9b" stroke-width="1"></path><path d="M1915,278L1695,288L2124,283Z" fill="#dff2e3" stroke="#dff2e3" stroke-width="1"></path><path d="M2071,265L1915,278L2124,283Z" fill="#e6f5e9" stroke="#e6f5e9" stroke-width="1"></path><path d="M2120,67L2071,125L2144,134Z" fill="#a5dab2" stroke="#a5dab2" stroke-width="1"></path><path d="M2116,-45L2120,67L2144,134Z" fill="#96c8a2" stroke="#96c8a2" stroke-width="1"></path><path d="M2118,-85L2116,-45L2144,134Z" fill="#8db296" stroke="#8db296" stroke-width="1"></path><path d="M2071,265L2124,283L2149,199Z" fill="#e1f3e5" stroke="#e1f3e5" stroke-width="1"></path><path d="M2087,181L2071,265L2149,199Z" fill="#d2ecd8" stroke="#d2ecd8" stroke-width="1"></path><path d="M2144,134L2087,181L2149,199Z" fill="#c1e6ca" stroke="#c1e6ca" stroke-width="1"></path><path d="M2071,125L2087,181L2144,134Z" fill="#b5e0bf" stroke="#b5e0bf" stroke-width="1"></path><path d="M2039,-32L2080,58L2116,-45Z" fill="#88ad91" stroke="#88ad91" stroke-width="1"></path><path d="M2088,-96L2116,-45L2118,-85Z" fill="#7e9182" stroke="#7e9182" stroke-width="1"></path><path d="M2080,58L2071,125L2120,67Z" fill="#98d5a8" stroke="#98d5a8" stroke-width="1"></path><path d="M1965,247L1915,278L2071,265Z" fill="#ddf1e1" stroke="#ddf1e1" stroke-width="1"></path><path d="M2088,-96L2039,-32L2116,-45Z" fill="#809785" stroke="#809785" stroke-width="1"></path><path d="M2039,-32L1990,30L2080,58Z" fill="#89b794" stroke="#89b794" stroke-width="1"></path><path d="M2071,125L2015,183L2087,181Z" fill="#b8e2c2" stroke="#b8e2c2" stroke-width="1"></path><path d="M2015,183L2071,265L2087,181Z" fill="#ccead3" stroke="#ccead3" stroke-width="1"></path><path d="M2005,-54L2039,-32L2088,-96Z" fill="#7c9582" stroke="#7c9582" stroke-width="1"></path><path d="M1977,-89L2005,-54L2088,-96Z" fill="#778c7c" stroke="#778c7c" stroke-width="1"></path><path d="M1994,127L2071,125L2080,58Z" fill="#9ed7ac" stroke="#9ed7ac" stroke-width="1"></path><path d="M1990,30L1994,127L2080,58Z" fill="#91cda0" stroke="#91cda0" stroke-width="1"></path><path d="M2015,183L1965,247L2071,265Z" fill="#d2ecd8" stroke="#d2ecd8" stroke-width="1"></path><path d="M1994,127L2015,183L2071,125Z" fill="#aedeb9" stroke="#aedeb9" stroke-width="1"></path><path d="M1784,269L1695,288L1845,274Z" fill="#d1ecd7" stroke="#d1ecd7" stroke-width="1"></path><path d="M2005,-54L1990,30L2039,-32Z" fill="#81a68a" stroke="#81a68a" stroke-width="1"></path><path d="M1100,266L932,280L1168,269Z" fill="#94d3a4" stroke="#94d3a4" stroke-width="1"></path><path d="M1990,30L1920,65L1994,127Z" fill="#8ccc9d" stroke="#8ccc9d" stroke-width="1"></path><path d="M1942,-5L1990,30L2005,-54Z" fill="#80a88a" stroke="#80a88a" stroke-width="1"></path><path d="M1900,195L1965,247L2015,183Z" fill="#c3e6cb" stroke="#c3e6cb" stroke-width="1"></path><path d="M1994,127L1905,143L2015,183Z" fill="#acddb7" stroke="#acddb7" stroke-width="1"></path><path d="M1905,143L1900,195L2015,183Z" fill="#b3e0bd" stroke="#b3e0bd" stroke-width="1"></path><path d="M1248,265L1168,269L1314,268Z" fill="#a1d8af" stroke="#a1d8af" stroke-width="1"></path><path d="M1977,-89L1942,-5L2005,-54Z" fill="#799780" stroke="#799780" stroke-width="1"></path><path d="M1920,65L1905,143L1994,127Z" fill="#98d5a7" stroke="#98d5a7" stroke-width="1"></path><path d="M1942,-5L1920,65L1990,30Z" fill="#84b991" stroke="#84b991" stroke-width="1"></path><path d="M1939,-108L1942,-5L1977,-89Z" fill="#748f7a" stroke="#748f7a" stroke-width="1"></path><path d="M1939,-108L1855,-10L1942,-5Z" fill="#75997e" stroke="#75997e" stroke-width="1"></path><path d="M1900,195L1915,278L1965,247Z" fill="#ceebd4" stroke="#ceebd4" stroke-width="1"></path><path d="M1821,-101L1855,-10L1939,-108Z" fill="#6d8a74" stroke="#6d8a74" stroke-width="1"></path><path d="M1855,-10L1920,65L1942,-5Z" fill="#7eb18b" stroke="#7eb18b" stroke-width="1"></path><path d="M1635,-120L1714,-88L1821,-101Z" fill="#5d7964" stroke="#5d7964" stroke-width="1"></path><path d="M1900,195L1843,219L1915,278Z" fill="#c7e8ce" stroke="#c7e8ce" stroke-width="1"></path><path d="M1843,219L1845,274L1915,278Z" fill="#d0ecd6" stroke="#d0ecd6" stroke-width="1"></path><path d="M1855,-10L1819,50L1920,65Z" fill="#7eb88d" stroke="#7eb88d" stroke-width="1"></path><path d="M1819,50L1847,104L1920,65Z" fill="#83c896" stroke="#83c896" stroke-width="1"></path><path d="M1847,104L1905,143L1920,65Z" fill="#91d1a1" stroke="#91d1a1" stroke-width="1"></path><path d="M1843,219L1900,195L1905,143Z" fill="#b3e0be" stroke="#b3e0be" stroke-width="1"></path><path d="M1847,104L1843,219L1905,143Z" fill="#a5dab2" stroke="#a5dab2" stroke-width="1"></path><path d="M1326,-119L1418,-105L1563,-124Z" fill="#456b4f" stroke="#456b4f" stroke-width="1"></path><path d="M1757,101L1750,214L1843,219Z" fill="#a8dbb4" stroke="#a8dbb4" stroke-width="1"></path><path d="M1843,219L1784,269L1845,274Z" fill="#ccead2" stroke="#ccead2" stroke-width="1"></path><path d="M1757,101L1843,219L1847,104Z" fill="#9bd6a9" stroke="#9bd6a9" stroke-width="1"></path><path d="M1748,-18L1819,50L1855,-10Z" fill="#75aa82" stroke="#75aa82" stroke-width="1"></path><path d="M1781,-80L1748,-18L1855,-10Z" fill="#6d9778" stroke="#6d9778" stroke-width="1"></path><path d="M1821,-101L1781,-80L1855,-10Z" fill="#6b8d73" stroke="#6b8d73" stroke-width="1"></path><path d="M1714,-88L1781,-80L1821,-101Z" fill="#63806a" stroke="#63806a" stroke-width="1"></path><path d="M1819,50L1757,101L1847,104Z" fill="#81cb95" stroke="#81cb95" stroke-width="1"></path><path d="M1748,-18L1758,42L1819,50Z" fill="#74b084" stroke="#74b084" stroke-width="1"></path><path d="M1750,214L1784,269L1843,219Z" fill="#c1e5c9" stroke="#c1e5c9" stroke-width="1"></path><path d="M1758,42L1757,101L1819,50Z" fill="#7ac28e" stroke="#7ac28e" stroke-width="1"></path><path d="M1666,175L1750,214L1757,101Z" fill="#9dd6ab" stroke="#9dd6ab" stroke-width="1"></path><path d="M1714,-88L1748,-18L1781,-80Z" fill="#658b6f" stroke="#658b6f" stroke-width="1"></path><path d="M1750,214L1695,288L1784,269Z" fill="#c6e8ce" stroke="#c6e8ce" stroke-width="1"></path><path d="M1671,114L1666,175L1757,101Z" fill="#8bcf9d" stroke="#8bcf9d" stroke-width="1"></path><path d="M1693,66L1757,101L1758,42Z" fill="#77c28c" stroke="#77c28c" stroke-width="1"></path><path d="M1748,-18L1693,66L1758,42Z" fill="#72b183" stroke="#72b183" stroke-width="1"></path><path d="M1693,66L1671,114L1757,101Z" fill="#7cc991" stroke="#7cc991" stroke-width="1"></path><path d="M1714,-88L1663,-35L1748,-18Z" fill="#649070" stroke="#649070" stroke-width="1"></path><path d="M1663,-35L1693,66L1748,-18Z" fill="#6ba57b" stroke="#6ba57b" stroke-width="1"></path><path d="M1666,175L1695,288L1750,214Z" fill="#b6e1c0" stroke="#b6e1c0" stroke-width="1"></path><path d="M548,-132L664,-116L782,-114Z" fill="#1c4329" stroke="#1c4329" stroke-width="1"></path><path d="M796,281L693,296L932,280Z" fill="#8fc29c" stroke="#8fc29c" stroke-width="1"></path><path d="M1663,-35L1637,27L1693,66Z" fill="#6aaa7c" stroke="#6aaa7c" stroke-width="1"></path><path d="M1666,175L1615,274L1695,288Z" fill="#bbe3c4" stroke="#bbe3c4" stroke-width="1"></path><path d="M1635,-120L1663,-35L1714,-88Z" fill="#5c8165" stroke="#5c8165" stroke-width="1"></path><path d="M1514,255L1455,272L1615,274Z" fill="#b9e2c2" stroke="#b9e2c2" stroke-width="1"></path><path d="M1602,187L1615,274L1666,175Z" fill="#aadcb6" stroke="#aadcb6" stroke-width="1"></path><path d="M1637,27L1671,114L1693,66Z" fill="#71c088" stroke="#71c088" stroke-width="1"></path><path d="M1613,-19L1637,27L1663,-35Z" fill="#649d74" stroke="#649d74" stroke-width="1"></path><path d="M1635,-120L1613,-19L1663,-35Z" fill="#5d8969" stroke="#5d8969" stroke-width="1"></path><path d="M1637,27L1596,93L1671,114Z" fill="#6fc288" stroke="#6fc288" stroke-width="1"></path><path d="M1602,187L1666,175L1671,114Z" fill="#94d3a4" stroke="#94d3a4" stroke-width="1"></path><path d="M1596,93L1602,187L1671,114Z" fill="#86cd99" stroke="#86cd99" stroke-width="1"></path><path d="M1563,-124L1557,-16L1613,-19Z" fill="#598966" stroke="#598966" stroke-width="1"></path><path d="M1563,-124L1613,-19L1635,-120Z" fill="#567c60" stroke="#567c60" stroke-width="1"></path><path d="M1542,71L1596,93L1637,27Z" fill="#69bb82" stroke="#69bb82" stroke-width="1"></path><path d="M1613,-19L1557,-16L1637,27Z" fill="#629f73" stroke="#629f73" stroke-width="1"></path><path d="M1557,-16L1542,71L1637,27Z" fill="#64ab78" stroke="#64ab78" stroke-width="1"></path><path d="M1520,110L1528,182L1596,93Z" fill="#7eca93" stroke="#7eca93" stroke-width="1"></path><path d="M1596,93L1528,182L1602,187Z" fill="#8ccf9e" stroke="#8ccf9e" stroke-width="1"></path><path d="M1528,182L1514,255L1602,187Z" fill="#a1d8af" stroke="#a1d8af" stroke-width="1"></path><path d="M1602,187L1514,255L1615,274Z" fill="#b1dfbc" stroke="#b1dfbc" stroke-width="1"></path><path d="M1418,-105L1455,-92L1563,-124Z" fill="#4a7054" stroke="#4a7054" stroke-width="1"></path><path d="M1542,71L1520,110L1596,93Z" fill="#6cc386" stroke="#6cc386" stroke-width="1"></path><path d="M1485,52L1542,71L1557,-16Z" fill="#60ac77" stroke="#60ac77" stroke-width="1"></path><path d="M1455,-92L1456,-25L1557,-16Z" fill="#538a62" stroke="#538a62" stroke-width="1"></path><path d="M1455,-92L1557,-16L1563,-124Z" fill="#527e5d" stroke="#527e5d" stroke-width="1"></path><path d="M1456,-25L1485,52L1557,-16Z" fill="#5a9e6e" stroke="#5a9e6e" stroke-width="1"></path><path d="M1520,110L1480,175L1528,182Z" fill="#87cd9a" stroke="#87cd9a" stroke-width="1"></path><path d="M1480,175L1514,255L1528,182Z" fill="#9cd6aa" stroke="#9cd6aa" stroke-width="1"></path><path d="M1485,52L1520,110L1542,71Z" fill="#64be80" stroke="#64be80" stroke-width="1"></path><path d="M1485,52L1468,98L1520,110Z" fill="#64c081" stroke="#64c081" stroke-width="1"></path><path d="M1468,98L1480,175L1520,110Z" fill="#78c88f" stroke="#78c88f" stroke-width="1"></path><path d="M1480,175L1455,272L1514,255Z" fill="#a7dbb3" stroke="#a7dbb3" stroke-width="1"></path><path d="M1468,98L1402,138L1480,175Z" fill="#79c88f" stroke="#79c88f" stroke-width="1"></path><path d="M1402,138L1413,173L1480,175Z" fill="#83cc97" stroke="#83cc97" stroke-width="1"></path><path d="M1413,173L1455,272L1480,175Z" fill="#98d5a7" stroke="#98d5a7" stroke-width="1"></path><path d="M1363,66L1468,98L1485,52Z" fill="#5cb979" stroke="#5cb979" stroke-width="1"></path><path d="M1456,-25L1363,66L1485,52Z" fill="#57a770" stroke="#57a770" stroke-width="1"></path><path d="M1413,173L1379,272L1455,272Z" fill="#a3d9b1" stroke="#a3d9b1" stroke-width="1"></path><path d="M1455,-92L1418,-105L1456,-25Z" fill="#4b7c59" stroke="#4b7c59" stroke-width="1"></path><path d="M1368,-34L1363,66L1456,-25Z" fill="#509a67" stroke="#509a67" stroke-width="1"></path><path d="M1363,66L1402,138L1468,98Z" fill="#63c080" stroke="#63c080" stroke-width="1"></path><path d="M1418,-105L1368,-34L1456,-25Z" fill="#4b835b" stroke="#4b835b" stroke-width="1"></path><path d="M1320,219L1379,272L1413,173Z" fill="#98d4a7" stroke="#98d4a7" stroke-width="1"></path><path d="M1335,-46L1368,-34L1418,-105Z" fill="#477f57" stroke="#477f57" stroke-width="1"></path><path d="M1326,-119L1335,-46L1418,-105Z" fill="#437350" stroke="#437350" stroke-width="1"></path><path d="M1402,138L1320,219L1413,173Z" fill="#85cd98" stroke="#85cd98" stroke-width="1"></path><path d="M1326,52L1363,66L1368,-34Z" fill="#4fa36a" stroke="#4fa36a" stroke-width="1"></path><path d="M1363,66L1291,103L1402,138Z" fill="#5ebe7d" stroke="#5ebe7d" stroke-width="1"></path><path d="M1291,103L1320,219L1402,138Z" fill="#76c78d" stroke="#76c78d" stroke-width="1"></path><path d="M1335,-46L1326,52L1368,-34Z" fill="#4a9361" stroke="#4a9361" stroke-width="1"></path><path d="M1320,219L1314,268L1379,272Z" fill="#a3d9b0" stroke="#a3d9b0" stroke-width="1"></path><path d="M1291,103L1256,177L1320,219Z" fill="#78c88f" stroke="#78c88f" stroke-width="1"></path><path d="M1326,52L1291,103L1363,66Z" fill="#50b672" stroke="#50b672" stroke-width="1"></path><path d="M1168,-128L1238,-91L1326,-119Z" fill="#366745" stroke="#366745" stroke-width="1"></path><path d="M1263,-49L1250,72L1326,52Z" fill="#479f64" stroke="#479f64" stroke-width="1"></path><path d="M1263,-49L1326,52L1335,-46Z" fill="#46905e" stroke="#46905e" stroke-width="1"></path><path d="M1326,-119L1263,-49L1335,-46Z" fill="#407951" stroke="#407951" stroke-width="1"></path><path d="M1238,-91L1263,-49L1326,-119Z" fill="#3c724c" stroke="#3c724c" stroke-width="1"></path><path d="M1250,72L1291,103L1326,52Z" fill="#4cb570" stroke="#4cb570" stroke-width="1"></path><path d="M1248,265L1314,268L1320,219Z" fill="#9ed7ac" stroke="#9ed7ac" stroke-width="1"></path><path d="M1256,177L1248,265L1320,219Z" fill="#8fd1a0" stroke="#8fd1a0" stroke-width="1"></path><path d="M1214,107L1256,177L1291,103Z" fill="#62bf7f" stroke="#62bf7f" stroke-width="1"></path><path d="M1250,72L1214,107L1291,103Z" fill="#4fb973" stroke="#4fb973" stroke-width="1"></path><path d="M1032,257L932,280L1100,266Z" fill="#8ed1a0" stroke="#8ed1a0" stroke-width="1"></path><path d="M1189,168L1168,269L1248,265Z" fill="#8fd1a0" stroke="#8fd1a0" stroke-width="1"></path><path d="M1144,-27L1144,67L1250,72Z" fill="#3da161" stroke="#3da161" stroke-width="1"></path><path d="M1189,168L1248,265L1256,177Z" fill="#84cc98" stroke="#84cc98" stroke-width="1"></path><path d="M1214,107L1189,168L1256,177Z" fill="#6ac285" stroke="#6ac285" stroke-width="1"></path><path d="M1144,-27L1250,72L1263,-49Z" fill="#3f925b" stroke="#3f925b" stroke-width="1"></path><path d="M1238,-91L1144,-27L1263,-49Z" fill="#397c4f" stroke="#397c4f" stroke-width="1"></path><path d="M1144,67L1214,107L1250,72Z" fill="#43b56c" stroke="#43b56c" stroke-width="1"></path><path d="M782,-114L892,-106L1005,-132Z" fill="#1f5532" stroke="#1f5532" stroke-width="1"></path><path d="M1168,-128L1144,-27L1238,-91Z" fill="#347148" stroke="#347148" stroke-width="1"></path><path d="M581,282L432,293L693,296Z" fill="#8aaf92" stroke="#8aaf92" stroke-width="1"></path><path d="M1005,-132L1107,-106L1168,-128Z" fill="#285e3a" stroke="#285e3a" stroke-width="1"></path><path d="M1110,220L1168,269L1189,168Z" fill="#84cc98" stroke="#84cc98" stroke-width="1"></path><path d="M1161,147L1189,168L1214,107Z" fill="#62bf7f" stroke="#62bf7f" stroke-width="1"></path><path d="M1144,67L1161,147L1214,107Z" fill="#4eb873" stroke="#4eb873" stroke-width="1"></path><path d="M1144,67L1111,105L1161,147Z" fill="#4ab770" stroke="#4ab770" stroke-width="1"></path><path d="M1107,-106L1144,-27L1168,-128Z" fill="#306d44" stroke="#306d44" stroke-width="1"></path><path d="M1161,147L1110,220L1189,168Z" fill="#71c58a" stroke="#71c58a" stroke-width="1"></path><path d="M1086,-19L1102,70L1144,67Z" fill="#359f5d" stroke="#359f5d" stroke-width="1"></path><path d="M1086,-19L1144,67L1144,-27Z" fill="#359257" stroke="#359257" stroke-width="1"></path><path d="M1110,220L1100,266L1168,269Z" fill="#90d1a1" stroke="#90d1a1" stroke-width="1"></path><path d="M1111,105L1110,220L1161,147Z" fill="#64c081" stroke="#64c081" stroke-width="1"></path><path d="M1017,181L1110,220L1111,105Z" fill="#65c081" stroke="#65c081" stroke-width="1"></path><path d="M1102,70L1111,105L1144,67Z" fill="#38b166" stroke="#38b166" stroke-width="1"></path><path d="M1107,-106L1086,-19L1144,-27Z" fill="#307b4a" stroke="#307b4a" stroke-width="1"></path><path d="M1086,-19L1028,26L1102,70Z" fill="#2f9857" stroke="#2f9857" stroke-width="1"></path><path d="M1007,-52L1086,-19L1107,-106Z" fill="#2a7645" stroke="#2a7645" stroke-width="1"></path><path d="M1032,257L1100,266L1110,220Z" fill="#8bcf9d" stroke="#8bcf9d" stroke-width="1"></path><path d="M1102,70L1026,100L1111,105Z" fill="#39b267" stroke="#39b267" stroke-width="1"></path><path d="M1026,100L1017,181L1111,105Z" fill="#4db872" stroke="#4db872" stroke-width="1"></path><path d="M1017,181L1032,257L1110,220Z" fill="#7bc991" stroke="#7bc991" stroke-width="1"></path><path d="M-61,-122L183,-110L286,-123Z" fill="#122116" stroke="#122116" stroke-width="1"></path><path d="M1005,-132L1007,-52L1107,-106Z" fill="#25663c" stroke="#25663c" stroke-width="1"></path><path d="M1028,26L1026,100L1102,70Z" fill="#2da85f" stroke="#2da85f" stroke-width="1"></path><path d="M1007,-52L1028,26L1086,-19Z" fill="#29864d" stroke="#29864d" stroke-width="1"></path><path d="M870,268L796,281L932,280Z" fill="#8dc59b" stroke="#8dc59b" stroke-width="1"></path><path d="M931,124L1017,181L1026,100Z" fill="#4cb671" stroke="#4cb671" stroke-width="1"></path><path d="M1007,-52L922,-46L1028,26Z" fill="#258048" stroke="#258048" stroke-width="1"></path><path d="M921,55L1026,100L1028,26Z" fill="#27a35a" stroke="#27a35a" stroke-width="1"></path><path d="M1017,181L932,187L1032,257Z" fill="#72c48a" stroke="#72c48a" stroke-width="1"></path><path d="M932,187L932,280L1032,257Z" fill="#81c794" stroke="#81c794" stroke-width="1"></path><path d="M921,55L931,124L1026,100Z" fill="#30ab61" stroke="#30ab61" stroke-width="1"></path><path d="M922,-46L921,55L1028,26Z" fill="#268c4e" stroke="#268c4e" stroke-width="1"></path><path d="M1005,-132L920,-84L1007,-52Z" fill="#22653b" stroke="#22653b" stroke-width="1"></path><path d="M931,124L932,187L1017,181Z" fill="#5bb979" stroke="#5bb979" stroke-width="1"></path><path d="M920,-84L922,-46L1007,-52Z" fill="#236e3f" stroke="#236e3f" stroke-width="1"></path><path d="M892,-106L920,-84L1005,-132Z" fill="#215c35" stroke="#215c35" stroke-width="1"></path><path d="M664,-116L710,-109L782,-114Z" fill="#1d4a2c" stroke="#1d4a2c" stroke-width="1"></path><path d="M883,37L863,131L921,55Z" fill="#27a059" stroke="#27a059" stroke-width="1"></path><path d="M842,-41L883,37L922,-46Z" fill="#257b46" stroke="#257b46" stroke-width="1"></path><path d="M883,37L921,55L922,-46Z" fill="#268a4d" stroke="#268a4d" stroke-width="1"></path><path d="M921,55L863,131L931,124Z" fill="#37a962" stroke="#37a962" stroke-width="1"></path><path d="M863,194L870,268L932,187Z" fill="#73bc88" stroke="#73bc88" stroke-width="1"></path><path d="M931,124L863,131L932,187Z" fill="#52b171" stroke="#52b171" stroke-width="1"></path><path d="M863,131L863,194L932,187Z" fill="#5db478" stroke="#5db478" stroke-width="1"></path><path d="M932,187L870,268L932,280Z" fill="#81c393" stroke="#81c393" stroke-width="1"></path><path d="M892,-106L842,-41L920,-84Z" fill="#226339" stroke="#226339" stroke-width="1"></path><path d="M920,-84L842,-41L922,-46Z" fill="#236c3e" stroke="#236c3e" stroke-width="1"></path><path d="M783,62L863,131L883,37Z" fill="#279e58" stroke="#279e58" stroke-width="1"></path><path d="M782,-114L842,-41L892,-106Z" fill="#215c36" stroke="#215c36" stroke-width="1"></path><path d="M842,-41L774,-3L883,37Z" fill="#257c47" stroke="#257c47" stroke-width="1"></path><path d="M774,-3L783,62L883,37Z" fill="#26894d" stroke="#26894d" stroke-width="1"></path><path d="M783,62L788,143L863,131Z" fill="#3ca361" stroke="#3ca361" stroke-width="1"></path><path d="M863,131L810,171L863,194Z" fill="#5aaf75" stroke="#5aaf75" stroke-width="1"></path><path d="M810,171L796,281L863,194Z" fill="#71b784" stroke="#71b784" stroke-width="1"></path><path d="M863,194L796,281L870,268Z" fill="#80be90" stroke="#80be90" stroke-width="1"></path><path d="M788,143L810,171L863,131Z" fill="#51aa6e" stroke="#51aa6e" stroke-width="1"></path><path d="M735,197L796,281L810,171Z" fill="#70b383" stroke="#70b383" stroke-width="1"></path><path d="M782,-114L774,-3L842,-41Z" fill="#22663b" stroke="#22663b" stroke-width="1"></path><path d="M742,-11L774,-3L782,-114Z" fill="#23683c" stroke="#23683c" stroke-width="1"></path><path d="M788,143L735,197L810,171Z" fill="#5bab73" stroke="#5bab73" stroke-width="1"></path><path d="M710,-109L742,-11L782,-114Z" fill="#205934" stroke="#205934" stroke-width="1"></path><path d="M783,62L704,97L788,143Z" fill="#349c5b" stroke="#349c5b" stroke-width="1"></path><path d="M735,197L693,296L796,281Z" fill="#82b78f" stroke="#82b78f" stroke-width="1"></path><path d="M774,-3L742,-11L783,62Z" fill="#257f48" stroke="#257f48" stroke-width="1"></path><path d="M742,-11L688,34L783,62Z" fill="#258149" stroke="#258149" stroke-width="1"></path><path d="M704,97L735,197L788,143Z" fill="#4ea36a" stroke="#4ea36a" stroke-width="1"></path><path d="M688,34L704,97L783,62Z" fill="#268f50" stroke="#268f50" stroke-width="1"></path><path d="M664,-116L628,-9L710,-109Z" fill="#1f5331" stroke="#1f5331" stroke-width="1"></path><path d="M632,252L693,296L735,197Z" fill="#7cb189" stroke="#7cb189" stroke-width="1"></path><path d="M704,97L663,170L735,197Z" fill="#52a26b" stroke="#52a26b" stroke-width="1"></path><path d="M654,22L688,34L742,-11Z" fill="#257945" stroke="#257945" stroke-width="1"></path><path d="M710,-109L628,-9L742,-11Z" fill="#226239" stroke="#226239" stroke-width="1"></path><path d="M628,-9L654,22L742,-11Z" fill="#247241" stroke="#247241" stroke-width="1"></path><path d="M657,116L663,170L704,97Z" fill="#439b61" stroke="#439b61" stroke-width="1"></path><path d="M663,170L632,252L735,197Z" fill="#69a97b" stroke="#69a97b" stroke-width="1"></path><path d="M688,34L657,116L704,97Z" fill="#279352" stroke="#279352" stroke-width="1"></path><path d="M654,22L657,116L688,34Z" fill="#26884c" stroke="#26884c" stroke-width="1"></path><path d="M632,252L581,282L693,296Z" fill="#86b291" stroke="#86b291" stroke-width="1"></path><path d="M654,22L585,56L657,116Z" fill="#26884c" stroke="#26884c" stroke-width="1"></path><path d="M542,211L632,252L663,170Z" fill="#6aa47a" stroke="#6aa47a" stroke-width="1"></path><path d="M657,116L557,126L663,170Z" fill="#479862" stroke="#479862" stroke-width="1"></path><path d="M548,-132L628,-9L664,-116Z" fill="#1e4c2d" stroke="#1e4c2d" stroke-width="1"></path><path d="M557,126L542,211L663,170Z" fill="#569b6b" stroke="#569b6b" stroke-width="1"></path><path d="M319,280L261,289L432,293Z" fill="#819b87" stroke="#819b87" stroke-width="1"></path><path d="M548,-132L542,-15L628,-9Z" fill="#205632" stroke="#205632" stroke-width="1"></path><path d="M585,56L557,126L657,116Z" fill="#329054" stroke="#329054" stroke-width="1"></path><path d="M628,-9L585,56L654,22Z" fill="#247643" stroke="#247643" stroke-width="1"></path><path d="M542,211L581,282L632,252Z" fill="#79a985" stroke="#79a985" stroke-width="1"></path><path d="M542,-15L585,56L628,-9Z" fill="#236f3f" stroke="#236f3f" stroke-width="1"></path><path d="M499,-105L542,-15L548,-132Z" fill="#1d472b" stroke="#1d472b" stroke-width="1"></path><path d="M542,211L500,242L581,282Z" fill="#76a482" stroke="#76a482" stroke-width="1"></path><path d="M500,242L432,293L581,282Z" fill="#80a689" stroke="#80a689" stroke-width="1"></path><path d="M462,60L557,126L585,56Z" fill="#26874c" stroke="#26874c" stroke-width="1"></path><path d="M514,-7L462,60L585,56Z" fill="#247442" stroke="#247442" stroke-width="1"></path><path d="M542,-15L514,-7L585,56Z" fill="#236c3e" stroke="#236c3e" stroke-width="1"></path><path d="M499,-105L514,-7L542,-15Z" fill="#205532" stroke="#205532" stroke-width="1"></path><path d="M434,-133L499,-105L548,-132Z" fill="#193622" stroke="#193622" stroke-width="1"></path><path d="M462,60L483,128L557,126Z" fill="#348952" stroke="#348952" stroke-width="1"></path><path d="M477,167L542,211L557,126Z" fill="#549667" stroke="#549667" stroke-width="1"></path><path d="M483,128L477,167L557,126Z" fill="#478f5e" stroke="#478f5e" stroke-width="1"></path><path d="M477,167L500,242L542,211Z" fill="#659b73" stroke="#659b73" stroke-width="1"></path><path d="M499,-105L411,-12L514,-7Z" fill="#1f5331" stroke="#1f5331" stroke-width="1"></path><path d="M411,-12L462,60L514,-7Z" fill="#22673b" stroke="#22673b" stroke-width="1"></path><path d="M-61,-122L45,-99L183,-110Z" fill="#111e15" stroke="#111e15" stroke-width="1"></path><path d="M434,-133L411,-12L499,-105Z" fill="#1b4128" stroke="#1b4128" stroke-width="1"></path><path d="M477,167L412,179L500,242Z" fill="#5f966e" stroke="#5f966e" stroke-width="1"></path><path d="M412,179L432,293L500,242Z" fill="#709c7b" stroke="#709c7b" stroke-width="1"></path><path d="M411,-12L406,29L462,60Z" fill="#23693c" stroke="#23693c" stroke-width="1"></path><path d="M426,124L477,167L483,128Z" fill="#458c5c" stroke="#458c5c" stroke-width="1"></path><path d="M462,60L426,124L483,128Z" fill="#338550" stroke="#338550" stroke-width="1"></path><path d="M426,124L412,179L477,167Z" fill="#4d8d60" stroke="#4d8d60" stroke-width="1"></path><path d="M333,-54L411,-12L434,-133Z" fill="#1c4429" stroke="#1c4429" stroke-width="1"></path><path d="M330,-92L333,-54L434,-133Z" fill="#193823" stroke="#193823" stroke-width="1"></path><path d="M406,29L426,124L462,60Z" fill="#257b46" stroke="#257b46" stroke-width="1"></path><path d="M406,29L357,37L426,124Z" fill="#247543" stroke="#247543" stroke-width="1"></path><path d="M357,37L327,118L426,124Z" fill="#2b7c49" stroke="#2b7c49" stroke-width="1"></path><path d="M412,179L338,218L432,293Z" fill="#6b9676" stroke="#6b9676" stroke-width="1"></path><path d="M338,218L319,280L432,293Z" fill="#789980" stroke="#789980" stroke-width="1"></path><path d="M286,-123L330,-92L434,-133Z" fill="#172f1e" stroke="#172f1e" stroke-width="1"></path><path d="M327,118L412,179L426,124Z" fill="#448659" stroke="#448659" stroke-width="1"></path><path d="M357,37L406,29L411,-12Z" fill="#226339" stroke="#226339" stroke-width="1"></path><path d="M327,118L338,218L412,179Z" fill="#528962" stroke="#528962" stroke-width="1"></path><path d="M333,-54L357,37L411,-12Z" fill="#205733" stroke="#205733" stroke-width="1"></path><path d="M253,-49L261,63L333,-54Z" fill="#1e4f2f" stroke="#1e4f2f" stroke-width="1"></path><path d="M327,118L269,169L338,218Z" fill="#4f855e" stroke="#4f855e" stroke-width="1"></path><path d="M333,-54L261,63L357,37Z" fill="#215c36" stroke="#215c36" stroke-width="1"></path><path d="M261,63L327,118L357,37Z" fill="#247241" stroke="#247241" stroke-width="1"></path><path d="M261,289L319,280L338,218Z" fill="#76947d" stroke="#76947d" stroke-width="1"></path><path d="M269,169L261,289L338,218Z" fill="#668d70" stroke="#668d70" stroke-width="1"></path><path d="M258,140L269,169L327,118Z" fill="#437e55" stroke="#437e55" stroke-width="1"></path><path d="M330,-92L253,-49L333,-54Z" fill="#1b3e26" stroke="#1b3e26" stroke-width="1"></path><path d="M286,-123L253,-49L330,-92Z" fill="#183521" stroke="#183521" stroke-width="1"></path><path d="M261,63L258,140L327,118Z" fill="#32784a" stroke="#32784a" stroke-width="1"></path><path d="M253,-49L171,59L261,63Z" fill="#205934" stroke="#205934" stroke-width="1"></path><path d="M203,262L117,295L261,289Z" fill="#7a8e7e" stroke="#7a8e7e" stroke-width="1"></path><path d="M194,172L203,262L269,169Z" fill="#5b8365" stroke="#5b8365" stroke-width="1"></path><path d="M203,262L261,289L269,169Z" fill="#6b8c73" stroke="#6b8c73" stroke-width="1"></path><path d="M183,-110L253,-49L286,-123Z" fill="#17301e" stroke="#17301e" stroke-width="1"></path><path d="M176,-56L171,59L253,-49Z" fill="#1d492c" stroke="#1d492c" stroke-width="1"></path><path d="M187,138L258,140L261,63Z" fill="#35764a" stroke="#35764a" stroke-width="1"></path><path d="M258,140L194,172L269,169Z" fill="#4a7e59" stroke="#4a7e59" stroke-width="1"></path><path d="M183,-110L176,-56L253,-49Z" fill="#183521" stroke="#183521" stroke-width="1"></path><path d="M171,59L187,138L261,63Z" fill="#266f40" stroke="#266f40" stroke-width="1"></path><path d="M187,138L194,172L258,140Z" fill="#457a54" stroke="#457a54" stroke-width="1"></path><path d="M101,-33L171,59L176,-56Z" fill="#1d472b" stroke="#1d472b" stroke-width="1"></path><path d="M45,-99L125,-81L183,-110Z" fill="#142719" stroke="#142719" stroke-width="1"></path><path d="M194,172L94,213L203,262Z" fill="#5f8167" stroke="#5f8167" stroke-width="1"></path><path d="M94,213L117,295L203,262Z" fill="#6e8673" stroke="#6e8673" stroke-width="1"></path><path d="M101,-33L89,34L171,59Z" fill="#1f502f" stroke="#1f502f" stroke-width="1"></path><path d="M171,59L97,116L187,138Z" fill="#2f6e44" stroke="#2f6e44" stroke-width="1"></path><path d="M187,138L94,213L194,172Z" fill="#4e7a5a" stroke="#4e7a5a" stroke-width="1"></path><path d="M125,-81L176,-56L183,-110Z" fill="#172e1e" stroke="#172e1e" stroke-width="1"></path><path d="M97,116L94,213L187,138Z" fill="#457453" stroke="#457453" stroke-width="1"></path><path d="M125,-81L101,-33L176,-56Z" fill="#183521" stroke="#183521" stroke-width="1"></path><path d="M89,34L97,116L171,59Z" fill="#226339" stroke="#226339" stroke-width="1"></path><path d="M31,133L94,213L97,116Z" fill="#437050" stroke="#437050" stroke-width="1"></path><path d="M52,257L-12,287L117,295Z" fill="#748377" stroke="#748377" stroke-width="1"></path><path d="M94,213L52,257L117,295Z" fill="#6c8171" stroke="#6c8171" stroke-width="1"></path><path d="M45,-99L101,-33L125,-81Z" fill="#162e1d" stroke="#162e1d" stroke-width="1"></path><path d="M45,-99L44,-45L101,-33Z" fill="#17301e" stroke="#17301e" stroke-width="1"></path><path d="M31,133L32,211L94,213Z" fill="#507459" stroke="#507459" stroke-width="1"></path><path d="M89,34L22,71L97,116Z" fill="#216038" stroke="#216038" stroke-width="1"></path><path d="M22,71L31,133L97,116Z" fill="#2e6640" stroke="#2e6640" stroke-width="1"></path><path d="M44,-45L89,34L101,-33Z" fill="#1b4027" stroke="#1b4027" stroke-width="1"></path><path d="M32,211L52,257L94,213Z" fill="#607b66" stroke="#607b66" stroke-width="1"></path><path d="M44,-45L22,71L89,34Z" fill="#1e4b2d" stroke="#1e4b2d" stroke-width="1"></path><path d="M31,133L-11,142L32,211Z" fill="#456d50" stroke="#456d50" stroke-width="1"></path><path d="M-44,-30L22,71L44,-45Z" fill="#1b4027" stroke="#1b4027" stroke-width="1"></path><path d="M32,211L-12,287L52,257Z" fill="#687c6d" stroke="#687c6d" stroke-width="1"></path><path d="M-44,-30L-48,65L22,71Z" fill="#1e4b2d" stroke="#1e4b2d" stroke-width="1"></path><path d="M-44,-30L44,-45L45,-99Z" fill="#162d1d" stroke="#162d1d" stroke-width="1"></path><path d="M-61,-122L-44,-30L45,-99Z" fill="#132217" stroke="#132217" stroke-width="1"></path><path d="M-11,142L-39,183L32,211Z" fill="#4b6e54" stroke="#4b6e54" stroke-width="1"></path><path d="M22,71L-11,142L31,133Z" fill="#316542" stroke="#316542" stroke-width="1"></path><path d="M-39,183L-12,287L32,211Z" fill="#5e7663" stroke="#5e7663" stroke-width="1"></path><path d="M-48,65L-11,142L22,71Z" fill="#265f3a" stroke="#265f3a" stroke-width="1"></path><path d="M-61,-122L-84,-86L-44,-30Z" fill="#122116" stroke="#122116" stroke-width="1"></path><path d="M-39,183L-106,284L-12,287Z" fill="#667669" stroke="#667669" stroke-width="1"></path><path d="M-88,108L-39,183L-11,142Z" fill="#3d6548" stroke="#3d6548" stroke-width="1"></path><path d="M-48,65L-88,108L-11,142Z" fill="#2c5f3c" stroke="#2c5f3c" stroke-width="1"></path><path d="M-133,-35L-84,-86L-61,-122Z" fill="#121f15" stroke="#121f15" stroke-width="1"></path><path d="M-138,18L-48,65L-44,-30Z" fill="#1b4128" stroke="#1b4128" stroke-width="1"></path><path d="M-133,-35L-138,18L-44,-30Z" fill="#183420" stroke="#183420" stroke-width="1"></path><path d="M-88,108L-134,185L-39,183Z" fill="#41654b" stroke="#41654b" stroke-width="1"></path><path d="M-134,185L-106,284L-39,183Z" fill="#586d5d" stroke="#586d5d" stroke-width="1"></path><path d="M-84,-86L-133,-35L-44,-30Z" fill="#15291b" stroke="#15291b" stroke-width="1"></path><path d="M-138,18L-88,108L-48,65Z" fill="#1f5130" stroke="#1f5130" stroke-width="1"></path><path d="M-138,18L-134,185L-88,108Z" fill="#2a5939" stroke="#2a5939" stroke-width="1"></path></svg>