<svg xmlns="http://www.w3.org/2000/svg" width="100%" height="100%" viewBox="0 0 2031 165" preserveAspectRatio="none"><path d="M34,283L-125,282L259,295Z" fill="#74777f" stroke="#74777f" stroke-width="1"></path><path d="M700,279L547,284L875,286Z" fill="#8490a9" stroke="#8490a9" stroke-width="1"></path><path d="M547,284L390,292L875,286Z" fill="#838da3" stroke="#838da3" stroke-width="1"></path><path d="M390,292L259,295L1032,293Z" fill="#848ea2" stroke="#848ea2" stroke-width="1"></path><path d="M875,286L390,292L1032,293Z" fill="#8895af" stroke="#8895af" stroke-width="1"></path><path d="M1341,278L1155,292L1454,286Z" fill="#a7b3ce" stroke="#a7b3ce" stroke-width="1"></path><path d="M1229,-110L1320,-109L1490,-127Z" fill="#39455b" stroke="#39455b" stroke-width="1"></path><path d="M1034,-116L1229,-110L1490,-127Z" fill="#313f56" stroke="#313f56" stroke-width="1"></path><path d="M773,-131L1034,-116L1490,-127Z" fill="#23344e" stroke="#23344e" stroke-width="1"></path><path d="M773,-131L1490,-127L1686,-133Z" fill="#354055" stroke="#354055" stroke-width="1"></path><path d="M1816,242L1713,267L1896,246Z" fill="#c3cbde" stroke="#c3cbde" stroke-width="1"></path><path d="M1896,246L1713,267L1970,266Z" fill="#ccd3e2" stroke="#ccd3e2" stroke-width="1"></path><path d="M1713,267L1605,283L1970,266Z" fill="#c9d0e1" stroke="#c9d0e1" stroke-width="1"></path><path d="M1970,266L1605,283L2045,270Z" fill="#d3d9e7" stroke="#d3d9e7" stroke-width="1"></path><path d="M1861,-129L1975,-79L2075,-92Z" fill="#6c717c" stroke="#6c717c" stroke-width="1"></path><path d="M1861,-129L2075,-92L2126,-117Z" fill="#6f727a" stroke="#6f727a" stroke-width="1"></path><path d="M2075,-92L2091,-51L2126,-117Z" fill="#797d86" stroke="#797d86" stroke-width="1"></path><path d="M2064,19L2038,143L2133,140Z" fill="#96a5c4" stroke="#96a5c4" stroke-width="1"></path><path d="M2038,143L2050,208L2133,140Z" fill="#b3bdd4" stroke="#b3bdd4" stroke-width="1"></path><path d="M2126,-117L2091,-51L2134,-48Z" fill="#7c818c" stroke="#7c818c" stroke-width="1"></path><path d="M2064,19L2133,140L2134,35Z" fill="#8e9dbb" stroke="#8e9dbb" stroke-width="1"></path><path d="M2134,-48L2091,-51L2134,35Z" fill="#838b9d" stroke="#838b9d" stroke-width="1"></path><path d="M2091,-51L2064,19L2134,35Z" fill="#848ea4" stroke="#848ea4" stroke-width="1"></path><path d="M2133,140L2050,208L2137,221Z" fill="#c1cadd" stroke="#c1cadd" stroke-width="1"></path><path d="M2050,208L2123,246L2137,221Z" fill="#d2d8e6" stroke="#d2d8e6" stroke-width="1"></path><path d="M2134,-48L2134,35L2137,221Z" fill="#91a0be" stroke="#91a0be" stroke-width="1"></path><path d="M2134,35L2133,140L2137,221Z" fill="#a9b5cf" stroke="#a9b5cf" stroke-width="1"></path><path d="M1998,95L2038,143L2064,19Z" fill="#8b9cbe" stroke="#8b9cbe" stroke-width="1"></path><path d="M2050,208L2045,270L2123,246Z" fill="#d6dce8" stroke="#d6dce8" stroke-width="1"></path><path d="M2075,-92L2015,-22L2091,-51Z" fill="#7a808f" stroke="#7a808f" stroke-width="1"></path><path d="M2015,-22L2064,19L2091,-51Z" fill="#7f889b" stroke="#7f889b" stroke-width="1"></path><path d="M1861,-129L1908,-90L1975,-79Z" fill="#686d79" stroke="#686d79" stroke-width="1"></path><path d="M1975,-79L2015,-22L2075,-92Z" fill="#757c8a" stroke="#757c8a" stroke-width="1"></path><path d="M2015,-22L1969,58L2064,19Z" fill="#808ca6" stroke="#808ca6" stroke-width="1"></path><path d="M1969,58L1998,95L2064,19Z" fill="#8494b3" stroke="#8494b3" stroke-width="1"></path><path d="M1686,-133L1780,-117L1861,-129Z" fill="#595f6a" stroke="#595f6a" stroke-width="1"></path><path d="M2038,143L1966,196L2050,208Z" fill="#b6c0d6" stroke="#b6c0d6" stroke-width="1"></path><path d="M1970,266L2045,270L2050,208Z" fill="#d5dae8" stroke="#d5dae8" stroke-width="1"></path><path d="M1966,196L1970,266L2050,208Z" fill="#c7cfe0" stroke="#c7cfe0" stroke-width="1"></path><path d="M1998,95L1966,196L2038,143Z" fill="#a3b0cc" stroke="#a3b0cc" stroke-width="1"></path><path d="M1929,146L1966,196L1998,95Z" fill="#a0aeca" stroke="#a0aeca" stroke-width="1"></path><path d="M1943,57L1969,58L2015,-22Z" fill="#7e8ca9" stroke="#7e8ca9" stroke-width="1"></path><path d="M1905,-44L1943,57L2015,-22Z" fill="#78839c" stroke="#78839c" stroke-width="1"></path><path d="M1975,-79L1905,-44L2015,-22Z" fill="#737b8d" stroke="#737b8d" stroke-width="1"></path><path d="M1969,58L1943,57L1998,95Z" fill="#8294b6" stroke="#8294b6" stroke-width="1"></path><path d="M1943,57L1929,146L1998,95Z" fill="#8a9cbe" stroke="#8a9cbe" stroke-width="1"></path><path d="M1896,216L1896,246L1966,196Z" fill="#bec7db" stroke="#bec7db" stroke-width="1"></path><path d="M1966,196L1896,246L1970,266Z" fill="#c8d0e0" stroke="#c8d0e0" stroke-width="1"></path><path d="M1908,-90L1905,-44L1975,-79Z" fill="#6d7484" stroke="#6d7484" stroke-width="1"></path><path d="M1905,-44L1868,-11L1943,57Z" fill="#74819b" stroke="#74819b" stroke-width="1"></path><path d="M1929,146L1896,216L1966,196Z" fill="#b0bbd3" stroke="#b0bbd3" stroke-width="1"></path><path d="M1748,250L1713,267L1816,242Z" fill="#c0c8dc" stroke="#c0c8dc" stroke-width="1"></path><path d="M1833,50L1816,97L1929,146Z" fill="#8194b9" stroke="#8194b9" stroke-width="1"></path><path d="M1833,50L1929,146L1943,57Z" fill="#7f92b7" stroke="#7f92b7" stroke-width="1"></path><path d="M1868,-11L1833,50L1943,57Z" fill="#7686a4" stroke="#7686a4" stroke-width="1"></path><path d="M434,-130L626,-120L773,-131Z" fill="#172133" stroke="#172133" stroke-width="1"></path><path d="M1863,211L1896,216L1929,146Z" fill="#afbad2" stroke="#afbad2" stroke-width="1"></path><path d="M1816,97L1863,211L1929,146Z" fill="#9ba9c7" stroke="#9ba9c7" stroke-width="1"></path><path d="M1816,97L1791,129L1863,211Z" fill="#94a3c3" stroke="#94a3c3" stroke-width="1"></path><path d="M1861,-129L1868,-11L1905,-44Z" fill="#6a7284" stroke="#6a7284" stroke-width="1"></path><path d="M1861,-129L1905,-44L1908,-90Z" fill="#686e7c" stroke="#686e7c" stroke-width="1"></path><path d="M1861,-129L1780,-117L1868,-11Z" fill="#636b7a" stroke="#636b7a" stroke-width="1"></path><path d="M1896,216L1863,211L1896,246Z" fill="#bec6db" stroke="#bec6db" stroke-width="1"></path><path d="M1863,211L1816,242L1896,246Z" fill="#bfc8db" stroke="#bfc8db" stroke-width="1"></path><path d="M1791,129L1770,204L1863,211Z" fill="#a3b0cc" stroke="#a3b0cc" stroke-width="1"></path><path d="M1780,-117L1742,-15L1868,-11Z" fill="#656f85" stroke="#656f85" stroke-width="1"></path><path d="M1756,33L1833,50L1868,-11Z" fill="#707f9f" stroke="#707f9f" stroke-width="1"></path><path d="M1742,-15L1756,33L1868,-11Z" fill="#6a7996" stroke="#6a7996" stroke-width="1"></path><path d="M1770,204L1816,242L1863,211Z" fill="#b5bfd6" stroke="#b5bfd6" stroke-width="1"></path><path d="M1534,275L1454,286L1605,283Z" fill="#b8c2d8" stroke="#b8c2d8" stroke-width="1"></path><path d="M1756,33L1816,97L1833,50Z" fill="#7286aa" stroke="#7286aa" stroke-width="1"></path><path d="M1770,204L1748,250L1816,242Z" fill="#b8c1d7" stroke="#b8c1d7" stroke-width="1"></path><path d="M1756,33L1791,129L1816,97Z" fill="#758bb2" stroke="#758bb2" stroke-width="1"></path><path d="M1490,-127L1552,-108L1686,-133Z" fill="#4a5263" stroke="#4a5263" stroke-width="1"></path><path d="M1686,-133L1742,-15L1780,-117Z" fill="#5b6375" stroke="#5b6375" stroke-width="1"></path><path d="M1756,33L1706,46L1791,129Z" fill="#6f84ab" stroke="#6f84ab" stroke-width="1"></path><path d="M1706,46L1678,102L1791,129Z" fill="#7288b1" stroke="#7288b1" stroke-width="1"></path><path d="M1706,187L1770,204L1791,129Z" fill="#9ba9c7" stroke="#9ba9c7" stroke-width="1"></path><path d="M1678,102L1706,187L1791,129Z" fill="#889abd" stroke="#889abd" stroke-width="1"></path><path d="M1686,-133L1693,-7L1742,-15Z" fill="#5d6980" stroke="#5d6980" stroke-width="1"></path><path d="M1706,187L1748,250L1770,204Z" fill="#acb7d1" stroke="#acb7d1" stroke-width="1"></path><path d="M1693,-7L1706,46L1742,-15Z" fill="#657594" stroke="#657594" stroke-width="1"></path><path d="M1742,-15L1706,46L1756,33Z" fill="#68799a" stroke="#68799a" stroke-width="1"></path><path d="M1706,187L1713,267L1748,250Z" fill="#b4bed5" stroke="#b4bed5" stroke-width="1"></path><path d="M1686,-133L1603,-80L1693,-7Z" fill="#576177" stroke="#576177" stroke-width="1"></path><path d="M1603,-80L1602,-41L1693,-7Z" fill="#58657f" stroke="#58657f" stroke-width="1"></path><path d="M1678,102L1596,179L1706,187Z" fill="#8a9bbe" stroke="#8a9bbe" stroke-width="1"></path><path d="M1596,179L1605,283L1706,187Z" fill="#a4b1cc" stroke="#a4b1cc" stroke-width="1"></path><path d="M1706,187L1605,283L1713,267Z" fill="#b5bfd5" stroke="#b5bfd5" stroke-width="1"></path><path d="M1693,-7L1631,52L1706,46Z" fill="#64779a" stroke="#64779a" stroke-width="1"></path><path d="M1631,52L1678,102L1706,46Z" fill="#677ea6" stroke="#677ea6" stroke-width="1"></path><path d="M1624,95L1596,179L1678,102Z" fill="#798eb5" stroke="#798eb5" stroke-width="1"></path><path d="M1602,-41L1631,52L1693,-7Z" fill="#5e6f8e" stroke="#5e6f8e" stroke-width="1"></path><path d="M1631,52L1624,95L1678,102Z" fill="#677fab" stroke="#677fab" stroke-width="1"></path><path d="M1552,-108L1603,-80L1686,-133Z" fill="#4f586a" stroke="#4f586a" stroke-width="1"></path><path d="M1596,179L1548,189L1605,283Z" fill="#9fadca" stroke="#9fadca" stroke-width="1"></path><path d="M1542,115L1596,179L1624,95Z" fill="#778cb4" stroke="#778cb4" stroke-width="1"></path><path d="M1602,-41L1562,-34L1631,52Z" fill="#596a89" stroke="#596a89" stroke-width="1"></path><path d="M1526,70L1624,95L1631,52Z" fill="#617aa4" stroke="#617aa4" stroke-width="1"></path><path d="M1562,-34L1526,70L1631,52Z" fill="#5a7095" stroke="#5a7095" stroke-width="1"></path><path d="M1548,189L1534,275L1605,283Z" fill="#acb8d1" stroke="#acb8d1" stroke-width="1"></path><path d="M1526,70L1542,115L1624,95Z" fill="#647ea9" stroke="#647ea9" stroke-width="1"></path><path d="M1542,115L1548,189L1596,179Z" fill="#8496ba" stroke="#8496ba" stroke-width="1"></path><path d="M1562,-34L1602,-41L1603,-80Z" fill="#53617a" stroke="#53617a" stroke-width="1"></path><path d="M1552,-108L1562,-34L1603,-80Z" fill="#4f5b72" stroke="#4f5b72" stroke-width="1"></path><path d="M1542,115L1478,182L1548,189Z" fill="#8194b9" stroke="#8194b9" stroke-width="1"></path><path d="M1478,182L1534,275L1548,189Z" fill="#99a8c6" stroke="#99a8c6" stroke-width="1"></path><path d="M1552,-108L1488,-58L1562,-34Z" fill="#4d5a73" stroke="#4d5a73" stroke-width="1"></path><path d="M1488,-58L1526,70L1562,-34Z" fill="#526586" stroke="#526586" stroke-width="1"></path><path d="M1488,-58L1438,71L1526,70Z" fill="#526990" stroke="#526990" stroke-width="1"></path><path d="M1490,-127L1488,-58L1552,-108Z" fill="#485368" stroke="#485368" stroke-width="1"></path><path d="M1478,182L1454,286L1534,275Z" fill="#a5b2cd" stroke="#a5b2cd" stroke-width="1"></path><path d="M1526,70L1455,104L1542,115Z" fill="#607ba7" stroke="#607ba7" stroke-width="1"></path><path d="M1455,104L1478,182L1542,115Z" fill="#7187b0" stroke="#7187b0" stroke-width="1"></path><path d="M1034,-116L1161,-101L1229,-110Z" fill="#283954" stroke="#283954" stroke-width="1"></path><path d="M1320,-109L1398,-89L1490,-127Z" fill="#3e4a60" stroke="#3e4a60" stroke-width="1"></path><path d="M1438,71L1455,104L1526,70Z" fill="#5673a2" stroke="#5673a2" stroke-width="1"></path><path d="M1372,-26L1382,43L1438,71Z" fill="#4a648c" stroke="#4a648c" stroke-width="1"></path><path d="M1415,196L1454,286L1478,182Z" fill="#95a5c4" stroke="#95a5c4" stroke-width="1"></path><path d="M1372,-26L1438,71L1488,-58Z" fill="#4b5f83" stroke="#4b5f83" stroke-width="1"></path><path d="M1398,-89L1372,-26L1488,-58Z" fill="#445471" stroke="#445471" stroke-width="1"></path><path d="M1398,-89L1488,-58L1490,-127Z" fill="#445168" stroke="#445168" stroke-width="1"></path><path d="M1455,104L1415,196L1478,182Z" fill="#798eb5" stroke="#798eb5" stroke-width="1"></path><path d="M1253,264L1155,292L1341,278Z" fill="#9eacc9" stroke="#9eacc9" stroke-width="1"></path><path d="M1392,120L1415,196L1455,104Z" fill="#6d84ae" stroke="#6d84ae" stroke-width="1"></path><path d="M1371,258L1341,278L1454,286Z" fill="#a8b4cf" stroke="#a8b4cf" stroke-width="1"></path><path d="M1415,196L1371,258L1454,286Z" fill="#9eacc9" stroke="#9eacc9" stroke-width="1"></path><path d="M1438,71L1392,120L1455,104Z" fill="#5a76a4" stroke="#5a76a4" stroke-width="1"></path><path d="M1382,43L1392,120L1438,71Z" fill="#4f6e9d" stroke="#4f6e9d" stroke-width="1"></path><path d="M773,-131L940,-105L1034,-116Z" fill="#1b2d47" stroke="#1b2d47" stroke-width="1"></path><path d="M1338,133L1332,180L1392,120Z" fill="#6981ac" stroke="#6981ac" stroke-width="1"></path><path d="M1392,120L1332,180L1415,196Z" fill="#758bb2" stroke="#758bb2" stroke-width="1"></path><path d="M1332,180L1371,258L1415,196Z" fill="#8a9bbe" stroke="#8a9bbe" stroke-width="1"></path><path d="M1382,43L1338,133L1392,120Z" fill="#5472a1" stroke="#5472a1" stroke-width="1"></path><path d="M1332,-44L1372,-26L1398,-89Z" fill="#405270" stroke="#405270" stroke-width="1"></path><path d="M1320,-109L1332,-44L1398,-89Z" fill="#3c4c66" stroke="#3c4c66" stroke-width="1"></path><path d="M1290,46L1338,133L1382,43Z" fill="#486899" stroke="#486899" stroke-width="1"></path><path d="M1332,-44L1290,46L1372,-26Z" fill="#41587d" stroke="#41587d" stroke-width="1"></path><path d="M1372,-26L1290,46L1382,43Z" fill="#455f87" stroke="#455f87" stroke-width="1"></path><path d="M1332,180L1341,278L1371,258Z" fill="#94a4c3" stroke="#94a4c3" stroke-width="1"></path><path d="M1034,-116L1092,-100L1161,-101Z" fill="#243753" stroke="#243753" stroke-width="1"></path><path d="M1244,205L1253,264L1332,180Z" fill="#8496ba" stroke="#8496ba" stroke-width="1"></path><path d="M1233,-40L1290,46L1332,-44Z" fill="#3c5479" stroke="#3c5479" stroke-width="1"></path><path d="M1290,46L1222,139L1338,133Z" fill="#506f9f" stroke="#506f9f" stroke-width="1"></path><path d="M1332,180L1253,264L1341,278Z" fill="#92a2c2" stroke="#92a2c2" stroke-width="1"></path><path d="M1222,139L1332,180L1338,133Z" fill="#6780ab" stroke="#6780ab" stroke-width="1"></path><path d="M1222,139L1244,205L1332,180Z" fill="#6f86af" stroke="#6f86af" stroke-width="1"></path><path d="M1320,-109L1233,-40L1332,-44Z" fill="#394b69" stroke="#394b69" stroke-width="1"></path><path d="M1229,-110L1233,-40L1320,-109Z" fill="#344560" stroke="#344560" stroke-width="1"></path><path d="M773,-131L862,-108L940,-105Z" fill="#1b2c44" stroke="#1b2c44" stroke-width="1"></path><path d="M1229,47L1222,139L1290,46Z" fill="#3f6395" stroke="#3f6395" stroke-width="1"></path><path d="M1233,-40L1229,47L1290,46Z" fill="#3b5882" stroke="#3b5882" stroke-width="1"></path><path d="M1163,127L1222,139L1229,47Z" fill="#47699b" stroke="#47699b" stroke-width="1"></path><path d="M1188,-27L1172,25L1229,47Z" fill="#36547e" stroke="#36547e" stroke-width="1"></path><path d="M1188,-27L1229,47L1233,-40Z" fill="#365178" stroke="#365178" stroke-width="1"></path><path d="M1222,139L1181,175L1244,205Z" fill="#6a82ac" stroke="#6a82ac" stroke-width="1"></path><path d="M1181,175L1155,292L1244,205Z" fill="#8093b8" stroke="#8093b8" stroke-width="1"></path><path d="M1244,205L1155,292L1253,264Z" fill="#90a0c1" stroke="#90a0c1" stroke-width="1"></path><path d="M1229,-110L1161,-101L1233,-40Z" fill="#30425f" stroke="#30425f" stroke-width="1"></path><path d="M1161,-101L1188,-27L1233,-40Z" fill="#314667" stroke="#314667" stroke-width="1"></path><path d="M1172,25L1163,127L1229,47Z" fill="#385d8f" stroke="#385d8f" stroke-width="1"></path><path d="M1163,127L1181,175L1222,139Z" fill="#5b77a4" stroke="#5b77a4" stroke-width="1"></path><path d="M1108,201L1092,255L1155,292Z" fill="#8597bb" stroke="#8597bb" stroke-width="1"></path><path d="M1115,42L1163,127L1172,25Z" fill="#345a8c" stroke="#345a8c" stroke-width="1"></path><path d="M1108,201L1155,292L1181,175Z" fill="#7b8fb6" stroke="#7b8fb6" stroke-width="1"></path><path d="M1094,-44L1172,25L1188,-27Z" fill="#2f4b72" stroke="#2f4b72" stroke-width="1"></path><path d="M1161,-101L1094,-44L1188,-27Z" fill="#2c4365" stroke="#2c4365" stroke-width="1"></path><path d="M1115,42L1087,98L1163,127Z" fill="#355e93" stroke="#355e93" stroke-width="1"></path><path d="M1094,-44L1115,42L1172,25Z" fill="#2e4e79" stroke="#2e4e79" stroke-width="1"></path><path d="M1163,127L1108,201L1181,175Z" fill="#617ba8" stroke="#617ba8" stroke-width="1"></path><path d="M1092,-100L1094,-44L1161,-101Z" fill="#283d5c" stroke="#283d5c" stroke-width="1"></path><path d="M1087,98L1108,201L1163,127Z" fill="#5270a0" stroke="#5270a0" stroke-width="1"></path><path d="M1092,255L1032,293L1155,292Z" fill="#91a1c1" stroke="#91a1c1" stroke-width="1"></path><path d="M1087,98L1018,135L1108,201Z" fill="#4e6e9e" stroke="#4e6e9e" stroke-width="1"></path><path d="M1094,-44L1028,18L1115,42Z" fill="#294a76" stroke="#294a76" stroke-width="1"></path><path d="M1028,18L1087,98L1115,42Z" fill="#2b5385" stroke="#2b5385" stroke-width="1"></path><path d="M1003,210L1092,255L1108,201Z" fill="#7389b1" stroke="#7389b1" stroke-width="1"></path><path d="M1018,135L1003,210L1108,201Z" fill="#5e79a6" stroke="#5e79a6" stroke-width="1"></path><path d="M1034,-116L1022,-57L1092,-100Z" fill="#213756" stroke="#213756" stroke-width="1"></path><path d="M1092,-100L1022,-57L1094,-44Z" fill="#243d5e" stroke="#243d5e" stroke-width="1"></path><path d="M1022,-57L1028,18L1094,-44Z" fill="#24426a" stroke="#24426a" stroke-width="1"></path><path d="M1003,210L1032,293L1092,255Z" fill="#7f93b8" stroke="#7f93b8" stroke-width="1"></path><path d="M1028,18L1018,135L1087,98Z" fill="#28578e" stroke="#28578e" stroke-width="1"></path><path d="M958,118L1018,135L1028,18Z" fill="#29578d" stroke="#29578d" stroke-width="1"></path><path d="M933,49L958,118L1028,18Z" fill="#234f82" stroke="#234f82" stroke-width="1"></path><path d="M1022,-57L960,-54L1028,18Z" fill="#203f66" stroke="#203f66" stroke-width="1"></path><path d="M932,265L875,286L1032,293Z" fill="#8999b9" stroke="#8999b9" stroke-width="1"></path><path d="M1003,210L932,265L1032,293Z" fill="#7e91b6" stroke="#7e91b6" stroke-width="1"></path><path d="M960,-54L1022,-57L1034,-116Z" fill="#1e3758" stroke="#1e3758" stroke-width="1"></path><path d="M940,-105L960,-54L1034,-116Z" fill="#1d3452" stroke="#1d3452" stroke-width="1"></path><path d="M947,200L1003,210L1018,135Z" fill="#5b76a3" stroke="#5b76a3" stroke-width="1"></path><path d="M960,-54L933,49L1028,18Z" fill="#214570" stroke="#214570" stroke-width="1"></path><path d="M958,118L947,200L1018,135Z" fill="#4b6b9a" stroke="#4b6b9a" stroke-width="1"></path><path d="M947,200L932,265L1003,210Z" fill="#6f85ac" stroke="#6f85ac" stroke-width="1"></path><path d="M623,273L547,284L700,279Z" fill="#7f8ba3" stroke="#7f8ba3" stroke-width="1"></path><path d="M933,49L884,61L958,118Z" fill="#235084" stroke="#235084" stroke-width="1"></path><path d="M843,167L947,200L958,118Z" fill="#506c99" stroke="#506c99" stroke-width="1"></path><path d="M840,127L843,167L958,118Z" fill="#436291" stroke="#436291" stroke-width="1"></path><path d="M940,-105L866,-36L960,-54Z" fill="#1e3657" stroke="#1e3657" stroke-width="1"></path><path d="M866,-36L933,49L960,-54Z" fill="#204067" stroke="#204067" stroke-width="1"></path><path d="M884,61L840,127L958,118Z" fill="#305789" stroke="#305789" stroke-width="1"></path><path d="M843,167L875,286L932,265Z" fill="#7487aa" stroke="#7487aa" stroke-width="1"></path><path d="M866,-36L884,61L933,49Z" fill="#214671" stroke="#214671" stroke-width="1"></path><path d="M862,-108L866,-36L940,-105Z" fill="#1d324f" stroke="#1d324f" stroke-width="1"></path><path d="M843,167L932,265L947,200Z" fill="#677da5" stroke="#677da5" stroke-width="1"></path><path d="M801,246L700,279L875,286Z" fill="#808eac" stroke="#808eac" stroke-width="1"></path><path d="M843,167L801,246L875,286Z" fill="#7083a6" stroke="#7083a6" stroke-width="1"></path><path d="M866,-36L797,25L884,61Z" fill="#21436c" stroke="#21436c" stroke-width="1"></path><path d="M797,25L840,127L884,61Z" fill="#224c7d" stroke="#224c7d" stroke-width="1"></path><path d="M797,25L783,118L840,127Z" fill="#275080" stroke="#275080" stroke-width="1"></path><path d="M773,-131L768,-16L862,-108Z" fill="#1c2f4a" stroke="#1c2f4a" stroke-width="1"></path><path d="M862,-108L768,-16L866,-36Z" fill="#1e3555" stroke="#1e3555" stroke-width="1"></path><path d="M768,-16L797,25L866,-36Z" fill="#203d61" stroke="#203d61" stroke-width="1"></path><path d="M767,190L801,246L843,167Z" fill="#61769b" stroke="#61769b" stroke-width="1"></path><path d="M840,127L783,118L843,167Z" fill="#42608d" stroke="#42608d" stroke-width="1"></path><path d="M783,118L767,190L843,167Z" fill="#4c6791" stroke="#4c6791" stroke-width="1"></path><path d="M693,-93L692,-45L768,-16Z" fill="#1d324f" stroke="#1d324f" stroke-width="1"></path><path d="M693,-93L768,-16L773,-131Z" fill="#1b2e48" stroke="#1b2e48" stroke-width="1"></path><path d="M741,33L783,118L797,25Z" fill="#224875" stroke="#224875" stroke-width="1"></path><path d="M767,190L701,214L801,246Z" fill="#67799c" stroke="#67799c" stroke-width="1"></path><path d="M701,214L700,279L801,246Z" fill="#7483a2" stroke="#7483a2" stroke-width="1"></path><path d="M741,33L698,94L783,118Z" fill="#224b7a" stroke="#224b7a" stroke-width="1"></path><path d="M768,-16L741,33L797,25Z" fill="#203f66" stroke="#203f66" stroke-width="1"></path><path d="M698,94L668,124L767,190Z" fill="#405c85" stroke="#405c85" stroke-width="1"></path><path d="M626,-120L693,-93L773,-131Z" fill="#19263b" stroke="#19263b" stroke-width="1"></path><path d="M698,94L767,190L783,118Z" fill="#3f5c87" stroke="#3f5c87" stroke-width="1"></path><path d="M668,124L701,214L767,190Z" fill="#53698f" stroke="#53698f" stroke-width="1"></path><path d="M692,-45L741,33L768,-16Z" fill="#1f3a5d" stroke="#1f3a5d" stroke-width="1"></path><path d="M692,-45L639,-24L741,33Z" fill="#1e3859" stroke="#1e3859" stroke-width="1"></path><path d="M618,60L698,94L741,33Z" fill="#214570" stroke="#214570" stroke-width="1"></path><path d="M639,-24L618,60L741,33Z" fill="#203d63" stroke="#203d63" stroke-width="1"></path><path d="M668,124L616,189L701,214Z" fill="#52678c" stroke="#52678c" stroke-width="1"></path><path d="M623,273L700,279L701,214Z" fill="#7684a0" stroke="#7684a0" stroke-width="1"></path><path d="M616,189L623,273L701,214Z" fill="#687897" stroke="#687897" stroke-width="1"></path><path d="M639,-24L692,-45L693,-93Z" fill="#1c304c" stroke="#1c304c" stroke-width="1"></path><path d="M618,60L668,124L698,94Z" fill="#284b78" stroke="#284b78" stroke-width="1"></path><path d="M626,-120L639,-24L693,-93Z" fill="#1a2b43" stroke="#1a2b43" stroke-width="1"></path><path d="M434,-130L566,-90L626,-120Z" fill="#172233" stroke="#172233" stroke-width="1"></path><path d="M626,-120L586,-53L639,-24Z" fill="#1b2c45" stroke="#1b2c45" stroke-width="1"></path><path d="M618,60L555,135L668,124Z" fill="#2f4e78" stroke="#2f4e78" stroke-width="1"></path><path d="M555,135L616,189L668,124Z" fill="#455c82" stroke="#455c82" stroke-width="1"></path><path d="M142,-120L243,-97L434,-130Z" fill="#131924" stroke="#131924" stroke-width="1"></path><path d="M434,-130L465,-103L566,-90Z" fill="#162131" stroke="#162131" stroke-width="1"></path><path d="M616,189L571,199L623,273Z" fill="#657593" stroke="#657593" stroke-width="1"></path><path d="M566,-90L586,-53L626,-120Z" fill="#19273d" stroke="#19273d" stroke-width="1"></path><path d="M559,41L618,60L639,-24Z" fill="#1f3c60" stroke="#1f3c60" stroke-width="1"></path><path d="M586,-53L559,41L639,-24Z" fill="#1e3554" stroke="#1e3554" stroke-width="1"></path><path d="M555,135L571,199L616,189Z" fill="#506486" stroke="#506486" stroke-width="1"></path><path d="M559,41L555,135L618,60Z" fill="#21446f" stroke="#21446f" stroke-width="1"></path><path d="M571,199L547,284L623,273Z" fill="#737f99" stroke="#737f99" stroke-width="1"></path><path d="M511,127L555,135L559,41Z" fill="#2c4a72" stroke="#2c4a72" stroke-width="1"></path><path d="M566,-90L467,-54L586,-53Z" fill="#1a2940" stroke="#1a2940" stroke-width="1"></path><path d="M467,-54L559,41L586,-53Z" fill="#1c314d" stroke="#1c314d" stroke-width="1"></path><path d="M484,252L390,292L547,284Z" fill="#7a8498" stroke="#7a8498" stroke-width="1"></path><path d="M468,58L511,127L559,41Z" fill="#21416a" stroke="#21416a" stroke-width="1"></path><path d="M467,-54L468,58L559,41Z" fill="#1e3656" stroke="#1e3656" stroke-width="1"></path><path d="M555,135L511,127L571,199Z" fill="#465b7f" stroke="#465b7f" stroke-width="1"></path><path d="M511,127L466,185L571,199Z" fill="#4d6081" stroke="#4d6081" stroke-width="1"></path><path d="M466,185L484,252L571,199Z" fill="#5f6e8b" stroke="#5f6e8b" stroke-width="1"></path><path d="M484,252L547,284L571,199Z" fill="#6e7b94" stroke="#6e7b94" stroke-width="1"></path><path d="M465,-103L467,-54L566,-90Z" fill="#182539" stroke="#182539" stroke-width="1"></path><path d="M188,277L34,283L259,295Z" fill="#767b86" stroke="#767b86" stroke-width="1"></path><path d="M467,-54L414,-29L468,58Z" fill="#1c304c" stroke="#1c304c" stroke-width="1"></path><path d="M468,58L401,112L511,127Z" fill="#2a466d" stroke="#2a466d" stroke-width="1"></path><path d="M401,112L466,185L511,127Z" fill="#3f5477" stroke="#3f5477" stroke-width="1"></path><path d="M414,-29L404,26L468,58Z" fill="#1d3453" stroke="#1d3453" stroke-width="1"></path><path d="M466,185L393,220L484,252Z" fill="#616e88" stroke="#616e88" stroke-width="1"></path><path d="M393,220L390,292L484,252Z" fill="#707a8f" stroke="#707a8f" stroke-width="1"></path><path d="M243,-97L320,-81L434,-130Z" fill="#151d2a" stroke="#151d2a" stroke-width="1"></path><path d="M434,-130L414,-29L465,-103Z" fill="#172234" stroke="#172234" stroke-width="1"></path><path d="M401,112L393,220L466,185Z" fill="#4c5d7c" stroke="#4c5d7c" stroke-width="1"></path><path d="M465,-103L414,-29L467,-54Z" fill="#19273c" stroke="#19273c" stroke-width="1"></path><path d="M404,26L401,112L468,58Z" fill="#203d61" stroke="#203d61" stroke-width="1"></path><path d="M332,138L393,220L401,112Z" fill="#445675" stroke="#445675" stroke-width="1"></path><path d="M320,-81L414,-29L434,-130Z" fill="#172234" stroke="#172234" stroke-width="1"></path><path d="M332,138L352,222L393,220Z" fill="#54627d" stroke="#54627d" stroke-width="1"></path><path d="M359,258L390,292L393,220Z" fill="#70798d" stroke="#70798d" stroke-width="1"></path><path d="M328,16L401,112L404,26Z" fill="#1f385a" stroke="#1f385a" stroke-width="1"></path><path d="M328,16L404,26L414,-29Z" fill="#1c304c" stroke="#1c304c" stroke-width="1"></path><path d="M321,-20L328,16L414,-29Z" fill="#1b2d46" stroke="#1b2d46" stroke-width="1"></path><path d="M320,-81L321,-20L414,-29Z" fill="#19273c" stroke="#19273c" stroke-width="1"></path><path d="M328,16L332,138L401,112Z" fill="#233f64" stroke="#233f64" stroke-width="1"></path><path d="M359,258L259,295L390,292Z" fill="#798090" stroke="#798090" stroke-width="1"></path><path d="M352,222L359,258L393,220Z" fill="#657087" stroke="#657087" stroke-width="1"></path><path d="M328,16L252,105L332,138Z" fill="#213d60" stroke="#213d60" stroke-width="1"></path><path d="M332,138L282,169L352,222Z" fill="#4c5b76" stroke="#4c5b76" stroke-width="1"></path><path d="M352,222L259,295L359,258Z" fill="#6f788a" stroke="#6f788a" stroke-width="1"></path><path d="M256,20L252,105L328,16Z" fill="#1d3453" stroke="#1d3453" stroke-width="1"></path><path d="M282,169L259,295L352,222Z" fill="#626c81" stroke="#626c81" stroke-width="1"></path><path d="M320,-81L291,-6L321,-20Z" fill="#19273c" stroke="#19273c" stroke-width="1"></path><path d="M321,-20L291,-6L328,16Z" fill="#1b2d46" stroke="#1b2d46" stroke-width="1"></path><path d="M252,105L282,169L332,138Z" fill="#3a4c6b" stroke="#3a4c6b" stroke-width="1"></path><path d="M291,-6L256,20L328,16Z" fill="#1c2e48" stroke="#1c2e48" stroke-width="1"></path><path d="M243,-97L291,-6L320,-81Z" fill="#172233" stroke="#172233" stroke-width="1"></path><path d="M188,277L259,295L282,169Z" fill="#687082" stroke="#687082" stroke-width="1"></path><path d="M170,198L188,277L282,169Z" fill="#5a6478" stroke="#5a6478" stroke-width="1"></path><path d="M217,-22L256,20L291,-6Z" fill="#1a2b43" stroke="#1a2b43" stroke-width="1"></path><path d="M243,-97L217,-22L291,-6Z" fill="#182437" stroke="#182437" stroke-width="1"></path><path d="M252,105L170,198L282,169Z" fill="#42516c" stroke="#42516c" stroke-width="1"></path><path d="M142,-120L189,-85L243,-97Z" fill="#131924" stroke="#131924" stroke-width="1"></path><path d="M189,-85L217,-22L243,-97Z" fill="#151f2e" stroke="#151f2e" stroke-width="1"></path><path d="M163,123L170,198L252,105Z" fill="#3a4b66" stroke="#3a4b66" stroke-width="1"></path><path d="M189,47L252,105L256,20Z" fill="#1d3453" stroke="#1d3453" stroke-width="1"></path><path d="M217,-22L189,47L256,20Z" fill="#1b2d46" stroke="#1b2d46" stroke-width="1"></path><path d="M189,47L163,123L252,105Z" fill="#233b5b" stroke="#233b5b" stroke-width="1"></path><path d="M129,247L34,283L188,277Z" fill="#6e737f" stroke="#6e737f" stroke-width="1"></path><path d="M189,-85L115,-3L217,-22Z" fill="#172234" stroke="#172234" stroke-width="1"></path><path d="M115,-3L189,47L217,-22Z" fill="#1a2a41" stroke="#1a2a41" stroke-width="1"></path><path d="M163,123L137,185L170,198Z" fill="#45526a" stroke="#45526a" stroke-width="1"></path><path d="M170,198L129,247L188,277Z" fill="#646b7b" stroke="#646b7b" stroke-width="1"></path><path d="M115,-3L90,39L189,47Z" fill="#1b2c45" stroke="#1b2c45" stroke-width="1"></path><path d="M91,94L163,123L189,47Z" fill="#213857" stroke="#213857" stroke-width="1"></path><path d="M90,39L91,94L189,47Z" fill="#1d314e" stroke="#1d314e" stroke-width="1"></path><path d="M142,-120L115,-3L189,-85Z" fill="#141c2a" stroke="#141c2a" stroke-width="1"></path><path d="M137,185L129,247L170,198Z" fill="#566073" stroke="#566073" stroke-width="1"></path><path d="M31,-45L115,-3L142,-120Z" fill="#151d2b" stroke="#151d2b" stroke-width="1"></path><path d="M91,94L137,185L163,123Z" fill="#364661" stroke="#364661" stroke-width="1"></path><path d="M91,94L53,140L137,185Z" fill="#384660" stroke="#384660" stroke-width="1"></path><path d="M63,221L129,247L137,185Z" fill="#596173" stroke="#596173" stroke-width="1"></path><path d="M23,-109L31,-45L142,-120Z" fill="#111620" stroke="#111620" stroke-width="1"></path><path d="M-40,265L-125,282L34,283Z" fill="#6d7076" stroke="#6d7076" stroke-width="1"></path><path d="M53,140L63,221L137,185Z" fill="#495469" stroke="#495469" stroke-width="1"></path><path d="M63,221L34,283L129,247Z" fill="#656b78" stroke="#656b78" stroke-width="1"></path><path d="M60,44L90,39L115,-3Z" fill="#1a2a42" stroke="#1a2a42" stroke-width="1"></path><path d="M31,-45L60,44L115,-3Z" fill="#182539" stroke="#182539" stroke-width="1"></path><path d="M-117,-92L-52,-85L23,-109Z" fill="#0e1119" stroke="#0e1119" stroke-width="1"></path><path d="M90,39L60,44L91,94Z" fill="#1c304b" stroke="#1c304b" stroke-width="1"></path><path d="M60,44L53,140L91,94Z" fill="#223654" stroke="#223654" stroke-width="1"></path><path d="M-17,35L-49,121L53,140Z" fill="#243651" stroke="#243651" stroke-width="1"></path><path d="M-17,35L53,140L60,44Z" fill="#1c304c" stroke="#1c304c" stroke-width="1"></path><path d="M31,-45L-17,35L60,44Z" fill="#18263a" stroke="#18263a" stroke-width="1"></path><path d="M53,140L-27,191L63,221Z" fill="#495366" stroke="#495366" stroke-width="1"></path><path d="M-27,191L34,283L63,221Z" fill="#5c6370" stroke="#5c6370" stroke-width="1"></path><path d="M-27,191L-40,265L34,283Z" fill="#626672" stroke="#626672" stroke-width="1"></path><path d="M-49,121L-27,191L53,140Z" fill="#3a465c" stroke="#3a465c" stroke-width="1"></path><path d="M-56,-30L-17,35L31,-45Z" fill="#162031" stroke="#162031" stroke-width="1"></path><path d="M23,-109L-52,-85L31,-45Z" fill="#11161f" stroke="#11161f" stroke-width="1"></path><path d="M-52,-85L-56,-30L31,-45Z" fill="#131925" stroke="#131925" stroke-width="1"></path><path d="M-56,-30L-131,39L-17,35Z" fill="#172336" stroke="#172336" stroke-width="1"></path><path d="M-115,104L-49,121L-17,35Z" fill="#1e304b" stroke="#1e304b" stroke-width="1"></path><path d="M-131,39L-115,104L-17,35Z" fill="#1a2a41" stroke="#1a2a41" stroke-width="1"></path><path d="M-132,174L-125,282L-40,265Z" fill="#5d616b" stroke="#5d616b" stroke-width="1"></path><path d="M-132,174L-40,265L-27,191Z" fill="#515866" stroke="#515866" stroke-width="1"></path><path d="M-49,121L-132,174L-27,191Z" fill="#3e485b" stroke="#3e485b" stroke-width="1"></path><path d="M-95,-44L-56,-30L-52,-85Z" fill="#121823" stroke="#121823" stroke-width="1"></path><path d="M-95,-44L-131,39L-56,-30Z" fill="#151e2d" stroke="#151e2d" stroke-width="1"></path><path d="M-115,104L-132,174L-49,121Z" fill="#313d53" stroke="#313d53" stroke-width="1"></path><path d="M-117,-92L-95,-44L-52,-85Z" fill="#10141c" stroke="#10141c" stroke-width="1"></path><path d="M-117,-92L-131,39L-95,-44Z" fill="#131a26" stroke="#131a26" stroke-width="1"></path><path d="M-131,39L-132,174L-115,104Z" fill="#25344b" stroke="#25344b" stroke-width="1"></path></svg>