<svg xmlns="http://www.w3.org/2000/svg" width="100%" height="100%" viewBox="0 0 2031 165" preserveAspectRatio="none"><path d="M112,-124L189,-122L313,-125Z" fill="#132028" stroke="#132028" stroke-width="1"></path><path d="M292,284L188,293L716,295Z" fill="#859aa8" stroke="#859aa8" stroke-width="1"></path><path d="M416,-118L578,-110L803,-121Z" fill="#1a3a4a" stroke="#1a3a4a" stroke-width="1"></path><path d="M416,-118L803,-121L845,-125Z" fill="#1b3e4f" stroke="#1b3e4f" stroke-width="1"></path><path d="M313,-125L416,-118L845,-125Z" fill="#193341" stroke="#193341" stroke-width="1"></path><path d="M845,-125L1100,-117L1183,-118Z" fill="#20546c" stroke="#20546c" stroke-width="1"></path><path d="M1066,281L930,291L1297,283Z" fill="#9ecae5" stroke="#9ecae5" stroke-width="1"></path><path d="M313,-125L845,-125L1625,-131Z" fill="#1c4b61" stroke="#1c4b61" stroke-width="1"></path><path d="M1183,-118L1378,-117L1625,-131Z" fill="#426072" stroke="#426072" stroke-width="1"></path><path d="M845,-125L1183,-118L1625,-131Z" fill="#32596d" stroke="#32596d" stroke-width="1"></path><path d="M1378,-117L1465,-115L1625,-131Z" fill="#496474" stroke="#496474" stroke-width="1"></path><path d="M1371,275L1297,283L1630,272Z" fill="#b7d7ec" stroke="#b7d7ec" stroke-width="1"></path><path d="M1625,-131L1753,-124L2011,-126Z" fill="#5f6e77" stroke="#5f6e77" stroke-width="1"></path><path d="M1753,-124L1838,-110L2011,-126Z" fill="#66737c" stroke="#66737c" stroke-width="1"></path><path d="M1297,283L930,291L2017,295Z" fill="#bbd9ed" stroke="#bbd9ed" stroke-width="1"></path><path d="M1630,272L1297,283L2017,295Z" fill="#cbe2f1" stroke="#cbe2f1" stroke-width="1"></path><path d="M1855,269L1700,270L2017,295Z" fill="#daeaf5" stroke="#daeaf5" stroke-width="1"></path><path d="M1700,270L1630,272L2017,295Z" fill="#d4e7f3" stroke="#d4e7f3" stroke-width="1"></path><path d="M2132,205L2088,268L2134,294Z" fill="#e5f0f8" stroke="#e5f0f8" stroke-width="1"></path><path d="M2011,-126L2069,-85L2140,-99Z" fill="#778187" stroke="#778187" stroke-width="1"></path><path d="M2140,-99L2119,-26L2144,24Z" fill="#899daa" stroke="#899daa" stroke-width="1"></path><path d="M2041,97L2132,205L2163,123Z" fill="#b5d6eb" stroke="#b5d6eb" stroke-width="1"></path><path d="M2144,24L2061,47L2163,123Z" fill="#99c3dc" stroke="#99c3dc" stroke-width="1"></path><path d="M2061,47L2041,97L2163,123Z" fill="#9ccae5" stroke="#9ccae5" stroke-width="1"></path><path d="M2140,-99L2144,24L2163,123Z" fill="#93b1c3" stroke="#93b1c3" stroke-width="1"></path><path d="M2132,205L2134,294L2163,123Z" fill="#d3e6f3" stroke="#d3e6f3" stroke-width="1"></path><path d="M2041,97L2058,220L2132,205Z" fill="#c0dcee" stroke="#c0dcee" stroke-width="1"></path><path d="M2088,268L2017,295L2134,294Z" fill="#eef6fb" stroke="#eef6fb" stroke-width="1"></path><path d="M2069,-85L2119,-26L2140,-99Z" fill="#808f98" stroke="#808f98" stroke-width="1"></path><path d="M2119,-26L2061,47L2144,24Z" fill="#90afc2" stroke="#90afc2" stroke-width="1"></path><path d="M2058,220L2088,268L2132,205Z" fill="#d9eaf5" stroke="#d9eaf5" stroke-width="1"></path><path d="M2069,-85L2056,-38L2119,-26Z" fill="#8295a1" stroke="#8295a1" stroke-width="1"></path><path d="M2056,-38L2061,47L2119,-26Z" fill="#8aa6b7" stroke="#8aa6b7" stroke-width="1"></path><path d="M1994,123L2011,208L2041,97Z" fill="#aed2e9" stroke="#aed2e9" stroke-width="1"></path><path d="M2041,97L2011,208L2058,220Z" fill="#bddbed" stroke="#bddbed" stroke-width="1"></path><path d="M2058,220L2017,295L2088,268Z" fill="#e2eff7" stroke="#e2eff7" stroke-width="1"></path><path d="M2011,208L2017,295L2058,220Z" fill="#d8e9f5" stroke="#d8e9f5" stroke-width="1"></path><path d="M2056,-38L2003,52L2061,47Z" fill="#8baec3" stroke="#8baec3" stroke-width="1"></path><path d="M2016,-59L2056,-38L2069,-85Z" fill="#7e909b" stroke="#7e909b" stroke-width="1"></path><path d="M2011,-126L2016,-59L2069,-85Z" fill="#77848d" stroke="#77848d" stroke-width="1"></path><path d="M2016,-59L2003,52L2056,-38Z" fill="#84a0b1" stroke="#84a0b1" stroke-width="1"></path><path d="M2003,52L2041,97L2061,47Z" fill="#92bfda" stroke="#92bfda" stroke-width="1"></path><path d="M1838,-110L1932,-90L2011,-126Z" fill="#6c7982" stroke="#6c7982" stroke-width="1"></path><path d="M1937,19L2003,52L2016,-59Z" fill="#84a5ba" stroke="#84a5ba" stroke-width="1"></path><path d="M1943,253L1855,269L2017,295Z" fill="#deecf6" stroke="#deecf6" stroke-width="1"></path><path d="M2003,52L1994,123L2041,97Z" fill="#96c7e4" stroke="#96c7e4" stroke-width="1"></path><path d="M1994,123L1911,190L2011,208Z" fill="#b7d7ec" stroke="#b7d7ec" stroke-width="1"></path><path d="M1908,-23L1937,19L2016,-59Z" fill="#7d9bad" stroke="#7d9bad" stroke-width="1"></path><path d="M1932,-90L1908,-23L2016,-59Z" fill="#778d9b" stroke="#778d9b" stroke-width="1"></path><path d="M2011,-126L1932,-90L2016,-59Z" fill="#73828b" stroke="#73828b" stroke-width="1"></path><path d="M2011,208L1943,253L2017,295Z" fill="#daeaf5" stroke="#daeaf5" stroke-width="1"></path><path d="M1907,146L1911,190L1994,123Z" fill="#acd1e9" stroke="#acd1e9" stroke-width="1"></path><path d="M1911,190L1943,253L2011,208Z" fill="#c8e0f0" stroke="#c8e0f0" stroke-width="1"></path><path d="M1937,19L1907,146L1994,123Z" fill="#93c5e3" stroke="#93c5e3" stroke-width="1"></path><path d="M1937,19L1994,123L2003,52Z" fill="#8dbcd9" stroke="#8dbcd9" stroke-width="1"></path><path d="M1846,61L1849,109L1907,146Z" fill="#90c4e2" stroke="#90c4e2" stroke-width="1"></path><path d="M1846,61L1907,146L1937,19Z" fill="#87bddc" stroke="#87bddc" stroke-width="1"></path><path d="M1911,190L1855,269L1943,253Z" fill="#cce3f1" stroke="#cce3f1" stroke-width="1"></path><path d="M1908,-23L1846,61L1937,19Z" fill="#7fa7c0" stroke="#7fa7c0" stroke-width="1"></path><path d="M1838,-110L1908,-23L1932,-90Z" fill="#6f8492" stroke="#6f8492" stroke-width="1"></path><path d="M1187,273L1066,281L1297,283Z" fill="#a3cde7" stroke="#a3cde7" stroke-width="1"></path><path d="M1458,255L1371,275L1630,272Z" fill="#b7d7ec" stroke="#b7d7ec" stroke-width="1"></path><path d="M1830,-36L1846,61L1908,-23Z" fill="#799fb6" stroke="#799fb6" stroke-width="1"></path><path d="M1838,-110L1830,-36L1908,-23Z" fill="#708a9a" stroke="#708a9a" stroke-width="1"></path><path d="M1907,146L1836,179L1911,190Z" fill="#afd3ea" stroke="#afd3ea" stroke-width="1"></path><path d="M1836,179L1855,269L1911,190Z" fill="#bfdcee" stroke="#bfdcee" stroke-width="1"></path><path d="M1849,109L1836,179L1907,146Z" fill="#a2cce6" stroke="#a2cce6" stroke-width="1"></path><path d="M1759,-25L1759,55L1830,-36Z" fill="#729bb3" stroke="#729bb3" stroke-width="1"></path><path d="M1830,-36L1759,55L1846,61Z" fill="#79a7c2" stroke="#79a7c2" stroke-width="1"></path><path d="M1773,108L1836,179L1849,109Z" fill="#98c8e4" stroke="#98c8e4" stroke-width="1"></path><path d="M1759,244L1700,270L1855,269Z" fill="#cce2f1" stroke="#cce2f1" stroke-width="1"></path><path d="M1836,179L1759,244L1855,269Z" fill="#c3ddef" stroke="#c3ddef" stroke-width="1"></path><path d="M1846,61L1773,108L1849,109Z" fill="#86bfe0" stroke="#86bfe0" stroke-width="1"></path><path d="M1753,-124L1759,-25L1830,-36Z" fill="#698596" stroke="#698596" stroke-width="1"></path><path d="M1753,-124L1830,-36L1838,-110Z" fill="#667b89" stroke="#667b89" stroke-width="1"></path><path d="M1759,55L1773,108L1846,61Z" fill="#7db8da" stroke="#7db8da" stroke-width="1"></path><path d="M1773,108L1739,178L1836,179Z" fill="#9fcbe6" stroke="#9fcbe6" stroke-width="1"></path><path d="M1739,178L1759,244L1836,179Z" fill="#b3d5eb" stroke="#b3d5eb" stroke-width="1"></path><path d="M1625,-131L1664,-113L1753,-124Z" fill="#586b77" stroke="#586b77" stroke-width="1"></path><path d="M1753,-124L1664,-113L1759,-25Z" fill="#617988" stroke="#617988" stroke-width="1"></path><path d="M1664,-113L1663,-31L1759,-25Z" fill="#638396" stroke="#638396" stroke-width="1"></path><path d="M1759,-25L1696,30L1759,55Z" fill="#71a1bd" stroke="#71a1bd" stroke-width="1"></path><path d="M1759,55L1670,134L1773,108Z" fill="#81bdde" stroke="#81bdde" stroke-width="1"></path><path d="M1670,134L1739,178L1773,108Z" fill="#94c5e3" stroke="#94c5e3" stroke-width="1"></path><path d="M1663,-31L1696,30L1759,-25Z" fill="#6b95ae" stroke="#6b95ae" stroke-width="1"></path><path d="M1696,30L1670,134L1759,55Z" fill="#75b4d7" stroke="#75b4d7" stroke-width="1"></path><path d="M1739,178L1697,216L1759,244Z" fill="#b4d6eb" stroke="#b4d6eb" stroke-width="1"></path><path d="M1697,216L1700,270L1759,244Z" fill="#c0dcee" stroke="#c0dcee" stroke-width="1"></path><path d="M407,273L292,284L716,295Z" fill="#859eae" stroke="#859eae" stroke-width="1"></path><path d="M1670,134L1697,216L1739,178Z" fill="#a2cce6" stroke="#a2cce6" stroke-width="1"></path><path d="M1598,97L1670,134L1696,30Z" fill="#73b7db" stroke="#73b7db" stroke-width="1"></path><path d="M1587,63L1598,97L1696,30Z" fill="#6cadd0" stroke="#6cadd0" stroke-width="1"></path><path d="M1670,134L1627,173L1697,216Z" fill="#9ecae5" stroke="#9ecae5" stroke-width="1"></path><path d="M1697,216L1630,272L1700,270Z" fill="#c0dcee" stroke="#c0dcee" stroke-width="1"></path><path d="M1663,-31L1610,-10L1696,30Z" fill="#6795af" stroke="#6795af" stroke-width="1"></path><path d="M1627,173L1630,272L1697,216Z" fill="#b1d4ea" stroke="#b1d4ea" stroke-width="1"></path><path d="M1610,-10L1587,63L1696,30Z" fill="#68a0be" stroke="#68a0be" stroke-width="1"></path><path d="M1465,-115L1519,-97L1625,-131Z" fill="#4e6878" stroke="#4e6878" stroke-width="1"></path><path d="M1557,-41L1610,-10L1625,-131Z" fill="#5a7e92" stroke="#5a7e92" stroke-width="1"></path><path d="M1568,242L1458,255L1630,272Z" fill="#b8d8ec" stroke="#b8d8ec" stroke-width="1"></path><path d="M1625,-131L1610,-10L1663,-31Z" fill="#5e8095" stroke="#5e8095" stroke-width="1"></path><path d="M1625,-131L1663,-31L1664,-113Z" fill="#5a7585" stroke="#5a7585" stroke-width="1"></path><path d="M1598,97L1627,173L1670,134Z" fill="#89c0e0" stroke="#89c0e0" stroke-width="1"></path><path d="M1627,173L1568,242L1630,272Z" fill="#b1d4ea" stroke="#b1d4ea" stroke-width="1"></path><path d="M1519,-97L1557,-41L1625,-131Z" fill="#547284" stroke="#547284" stroke-width="1"></path><path d="M1598,97L1557,193L1627,173Z" fill="#8ec3e2" stroke="#8ec3e2" stroke-width="1"></path><path d="M1557,193L1568,242L1627,173Z" fill="#a3cde7" stroke="#a3cde7" stroke-width="1"></path><path d="M1525,119L1557,193L1598,97Z" fill="#83bddf" stroke="#83bddf" stroke-width="1"></path><path d="M1547,65L1587,63L1610,-10Z" fill="#65a2c3" stroke="#65a2c3" stroke-width="1"></path><path d="M1557,-41L1547,65L1610,-10Z" fill="#6095b2" stroke="#6095b2" stroke-width="1"></path><path d="M559,273L407,273L716,295Z" fill="#87a4b6" stroke="#87a4b6" stroke-width="1"></path><path d="M1587,63L1547,65L1598,97Z" fill="#68afd5" stroke="#68afd5" stroke-width="1"></path><path d="M1547,65L1525,119L1598,97Z" fill="#6db4da" stroke="#6db4da" stroke-width="1"></path><path d="M1450,37L1547,65L1557,-41Z" fill="#5d98b8" stroke="#5d98b8" stroke-width="1"></path><path d="M1474,-55L1450,37L1557,-41Z" fill="#5688a4" stroke="#5688a4" stroke-width="1"></path><path d="M1525,119L1488,187L1557,193Z" fill="#8ec2e1" stroke="#8ec2e1" stroke-width="1"></path><path d="M1557,193L1488,187L1568,242Z" fill="#a1cce6" stroke="#a1cce6" stroke-width="1"></path><path d="M1488,187L1458,255L1568,242Z" fill="#a8cfe8" stroke="#a8cfe8" stroke-width="1"></path><path d="M1519,-97L1474,-55L1557,-41Z" fill="#53798f" stroke="#53798f" stroke-width="1"></path><path d="M1461,103L1525,119L1547,65Z" fill="#69b2d9" stroke="#69b2d9" stroke-width="1"></path><path d="M1450,37L1461,103L1547,65Z" fill="#5ea9d0" stroke="#5ea9d0" stroke-width="1"></path><path d="M1461,103L1488,187L1525,119Z" fill="#7cbadd" stroke="#7cbadd" stroke-width="1"></path><path d="M1465,-115L1474,-55L1519,-97Z" fill="#4d6f83" stroke="#4d6f83" stroke-width="1"></path><path d="M1183,-118L1223,-102L1378,-117Z" fill="#375e74" stroke="#375e74" stroke-width="1"></path><path d="M1392,-7L1450,37L1474,-55Z" fill="#528aa9" stroke="#528aa9" stroke-width="1"></path><path d="M1376,207L1458,255L1488,187Z" fill="#9dcae5" stroke="#9dcae5" stroke-width="1"></path><path d="M1389,138L1376,207L1488,187Z" fill="#89c0e0" stroke="#89c0e0" stroke-width="1"></path><path d="M1461,103L1389,138L1488,187Z" fill="#7bbadd" stroke="#7bbadd" stroke-width="1"></path><path d="M1465,-115L1378,-117L1474,-55Z" fill="#496b7f" stroke="#496b7f" stroke-width="1"></path><path d="M1378,-117L1392,-7L1474,-55Z" fill="#4b778f" stroke="#4b778f" stroke-width="1"></path><path d="M1450,37L1370,42L1461,103Z" fill="#57a4cb" stroke="#57a4cb" stroke-width="1"></path><path d="M1370,42L1389,138L1461,103Z" fill="#5daed7" stroke="#5daed7" stroke-width="1"></path><path d="M1376,207L1371,275L1458,255Z" fill="#a7cfe8" stroke="#a7cfe8" stroke-width="1"></path><path d="M1392,-7L1370,42L1450,37Z" fill="#5195b8" stroke="#5195b8" stroke-width="1"></path><path d="M1223,-102L1332,-78L1378,-117Z" fill="#3d657b" stroke="#3d657b" stroke-width="1"></path><path d="M1370,42L1331,48L1389,138Z" fill="#50a7d1" stroke="#50a7d1" stroke-width="1"></path><path d="M1331,48L1296,122L1389,138Z" fill="#5aadd6" stroke="#5aadd6" stroke-width="1"></path><path d="M1296,122L1376,207L1389,138Z" fill="#79b9dd" stroke="#79b9dd" stroke-width="1"></path><path d="M1334,-6L1370,42L1392,-7Z" fill="#4c8eb0" stroke="#4c8eb0" stroke-width="1"></path><path d="M1378,-117L1332,-78L1392,-7Z" fill="#45728b" stroke="#45728b" stroke-width="1"></path><path d="M1332,-78L1334,-6L1392,-7Z" fill="#477f9c" stroke="#477f9c" stroke-width="1"></path><path d="M1296,122L1294,216L1376,207Z" fill="#82bddf" stroke="#82bddf" stroke-width="1"></path><path d="M1294,216L1297,283L1371,275Z" fill="#a5cee7" stroke="#a5cee7" stroke-width="1"></path><path d="M1294,216L1371,275L1376,207Z" fill="#9ccae5" stroke="#9ccae5" stroke-width="1"></path><path d="M1334,-6L1331,48L1370,42Z" fill="#4b94b9" stroke="#4b94b9" stroke-width="1"></path><path d="M1255,189L1294,216L1296,122Z" fill="#7cbadd" stroke="#7cbadd" stroke-width="1"></path><path d="M1261,20L1296,122L1331,48Z" fill="#479fc9" stroke="#479fc9" stroke-width="1"></path><path d="M1261,20L1331,48L1334,-6Z" fill="#4690b4" stroke="#4690b4" stroke-width="1"></path><path d="M1332,-78L1243,-26L1334,-6Z" fill="#427b98" stroke="#427b98" stroke-width="1"></path><path d="M1243,-26L1261,20L1334,-6Z" fill="#4186a7" stroke="#4186a7" stroke-width="1"></path><path d="M1223,-102L1243,-26L1332,-78Z" fill="#3c6e88" stroke="#3c6e88" stroke-width="1"></path><path d="M1255,189L1219,260L1294,216Z" fill="#8fc3e2" stroke="#8fc3e2" stroke-width="1"></path><path d="M1261,20L1217,105L1296,122Z" fill="#42a5d2" stroke="#42a5d2" stroke-width="1"></path><path d="M1217,105L1255,189L1296,122Z" fill="#66b1d9" stroke="#66b1d9" stroke-width="1"></path><path d="M1219,260L1187,273L1297,283Z" fill="#a4cde7" stroke="#a4cde7" stroke-width="1"></path><path d="M1294,216L1219,260L1297,283Z" fill="#9fcbe6" stroke="#9fcbe6" stroke-width="1"></path><path d="M956,-93L1010,-93L1100,-117Z" fill="#1e5974" stroke="#1e5974" stroke-width="1"></path><path d="M845,-125L956,-93L1100,-117Z" fill="#1d526b" stroke="#1d526b" stroke-width="1"></path><path d="M1217,105L1191,114L1255,189Z" fill="#60afd7" stroke="#60afd7" stroke-width="1"></path><path d="M1243,-26L1186,22L1261,20Z" fill="#3c87ab" stroke="#3c87ab" stroke-width="1"></path><path d="M1186,22L1217,105L1261,20Z" fill="#3c97c0" stroke="#3c97c0" stroke-width="1"></path><path d="M1002,276L930,291L1066,281Z" fill="#95c5e2" stroke="#95c5e2" stroke-width="1"></path><path d="M1223,-102L1181,-32L1243,-26Z" fill="#37718e" stroke="#37718e" stroke-width="1"></path><path d="M1191,114L1155,198L1255,189Z" fill="#6fb5da" stroke="#6fb5da" stroke-width="1"></path><path d="M1155,198L1219,260L1255,189Z" fill="#88c0e0" stroke="#88c0e0" stroke-width="1"></path><path d="M1181,-32L1186,22L1243,-26Z" fill="#3880a2" stroke="#3880a2" stroke-width="1"></path><path d="M1186,22L1191,114L1217,105Z" fill="#38a2d0" stroke="#38a2d0" stroke-width="1"></path><path d="M1155,198L1187,273L1219,260Z" fill="#93c5e3" stroke="#93c5e3" stroke-width="1"></path><path d="M1183,-118L1181,-32L1223,-102Z" fill="#33667f" stroke="#33667f" stroke-width="1"></path><path d="M1100,-117L1090,-25L1181,-32Z" fill="#2c6c8a" stroke="#2c6c8a" stroke-width="1"></path><path d="M1100,-117L1181,-32L1183,-118Z" fill="#2f637c" stroke="#2f637c" stroke-width="1"></path><path d="M1181,-32L1090,-25L1186,22Z" fill="#317ea1" stroke="#317ea1" stroke-width="1"></path><path d="M1062,127L1155,198L1191,114Z" fill="#5daed7" stroke="#5daed7" stroke-width="1"></path><path d="M1186,22L1086,40L1191,114Z" fill="#3198c4" stroke="#3198c4" stroke-width="1"></path><path d="M1086,40L1062,127L1191,114Z" fill="#33a1d0" stroke="#33a1d0" stroke-width="1"></path><path d="M1090,-25L1086,40L1186,22Z" fill="#2c85ac" stroke="#2c85ac" stroke-width="1"></path><path d="M1155,198L1066,281L1187,273Z" fill="#92c5e2" stroke="#92c5e2" stroke-width="1"></path><path d="M1062,127L1063,168L1155,198Z" fill="#62b0d8" stroke="#62b0d8" stroke-width="1"></path><path d="M1063,168L1066,281L1155,198Z" fill="#7dbbde" stroke="#7dbbde" stroke-width="1"></path><path d="M1063,168L1016,191L1066,281Z" fill="#78b9dc" stroke="#78b9dc" stroke-width="1"></path><path d="M1004,68L1062,127L1086,40Z" fill="#169bcc" stroke="#169bcc" stroke-width="1"></path><path d="M1030,-34L1086,40L1090,-25Z" fill="#247ca2" stroke="#247ca2" stroke-width="1"></path><path d="M1030,-34L1090,-25L1100,-117Z" fill="#256a89" stroke="#256a89" stroke-width="1"></path><path d="M1010,-93L1030,-34L1100,-117Z" fill="#21617e" stroke="#21617e" stroke-width="1"></path><path d="M1016,191L1002,276L1066,281Z" fill="#88c0e0" stroke="#88c0e0" stroke-width="1"></path><path d="M1030,-34L1004,68L1086,40Z" fill="#1b87b0" stroke="#1b87b0" stroke-width="1"></path><path d="M1004,68L993,126L1062,127Z" fill="#2fa0d0" stroke="#2fa0d0" stroke-width="1"></path><path d="M1062,127L993,126L1063,168Z" fill="#4da8d4" stroke="#4da8d4" stroke-width="1"></path><path d="M993,126L1016,191L1063,168Z" fill="#59acd6" stroke="#59acd6" stroke-width="1"></path><path d="M942,-44L913,21L1004,68Z" fill="#177ea5" stroke="#177ea5" stroke-width="1"></path><path d="M993,126L964,173L1016,191Z" fill="#59abd4" stroke="#59abd4" stroke-width="1"></path><path d="M1010,-93L942,-44L1030,-34Z" fill="#1c6787" stroke="#1c6787" stroke-width="1"></path><path d="M942,-44L1004,68L1030,-34Z" fill="#187aa0" stroke="#187aa0" stroke-width="1"></path><path d="M964,173L930,291L1002,276Z" fill="#84bbda" stroke="#84bbda" stroke-width="1"></path><path d="M956,-93L942,-44L1010,-93Z" fill="#1d5e7b" stroke="#1d5e7b" stroke-width="1"></path><path d="M964,173L1002,276L1016,191Z" fill="#74b6da" stroke="#74b6da" stroke-width="1"></path><path d="M948,139L993,126L1004,68Z" fill="#329fcd" stroke="#329fcd" stroke-width="1"></path><path d="M913,21L948,139L1004,68Z" fill="#0894c4" stroke="#0894c4" stroke-width="1"></path><path d="M948,139L964,173L993,126Z" fill="#4da5cf" stroke="#4da5cf" stroke-width="1"></path><path d="M860,260L716,295L930,291Z" fill="#90b9d1" stroke="#90b9d1" stroke-width="1"></path><path d="M880,198L930,291L964,173Z" fill="#76b2d3" stroke="#76b2d3" stroke-width="1"></path><path d="M913,21L881,37L948,139Z" fill="#0f8dbb" stroke="#0f8dbb" stroke-width="1"></path><path d="M881,37L865,114L948,139Z" fill="#2495c3" stroke="#2495c3" stroke-width="1"></path><path d="M948,139L880,198L964,173Z" fill="#5ca7ce" stroke="#5ca7ce" stroke-width="1"></path><path d="M880,198L860,260L930,291Z" fill="#83b6d3" stroke="#83b6d3" stroke-width="1"></path><path d="M845,-125L942,-44L956,-93Z" fill="#1d5771" stroke="#1d5771" stroke-width="1"></path><path d="M803,253L716,295L860,260Z" fill="#89b3cc" stroke="#89b3cc" stroke-width="1"></path><path d="M865,114L880,198L948,139Z" fill="#4fa1c9" stroke="#4fa1c9" stroke-width="1"></path><path d="M863,-6L913,21L942,-44Z" fill="#1a7295" stroke="#1a7295" stroke-width="1"></path><path d="M845,-125L863,-6L942,-44Z" fill="#1d5f7c" stroke="#1d5f7c" stroke-width="1"></path><path d="M578,-110L612,-98L803,-121Z" fill="#1b4052" stroke="#1b4052" stroke-width="1"></path><path d="M612,-98L719,-90L803,-121Z" fill="#1c4559" stroke="#1c4559" stroke-width="1"></path><path d="M863,-6L881,37L913,21Z" fill="#187aa0" stroke="#187aa0" stroke-width="1"></path><path d="M629,272L559,273L716,295Z" fill="#89a9bd" stroke="#89a9bd" stroke-width="1"></path><path d="M796,199L803,253L860,260Z" fill="#7caecb" stroke="#7caecb" stroke-width="1"></path><path d="M845,-125L803,-121L863,-6Z" fill="#1d536c" stroke="#1d536c" stroke-width="1"></path><path d="M803,-121L775,-13L863,-6Z" fill="#1d5e7b" stroke="#1d5e7b" stroke-width="1"></path><path d="M796,199L860,260L880,198Z" fill="#74accb" stroke="#74accb" stroke-width="1"></path><path d="M817,146L796,199L880,198Z" fill="#60a3c6" stroke="#60a3c6" stroke-width="1"></path><path d="M865,114L817,146L880,198Z" fill="#509ec5" stroke="#509ec5" stroke-width="1"></path><path d="M787,47L865,114L881,37Z" fill="#1289b4" stroke="#1289b4" stroke-width="1"></path><path d="M863,-6L787,47L881,37Z" fill="#187aa0" stroke="#187aa0" stroke-width="1"></path><path d="M775,-13L787,47L863,-6Z" fill="#1a7295" stroke="#1a7295" stroke-width="1"></path><path d="M787,47L817,146L865,114Z" fill="#2b91bc" stroke="#2b91bc" stroke-width="1"></path><path d="M719,-90L775,-13L803,-121Z" fill="#1d526a" stroke="#1d526a" stroke-width="1"></path><path d="M728,135L796,199L817,146Z" fill="#549abf" stroke="#549abf" stroke-width="1"></path><path d="M787,47L728,135L817,146Z" fill="#328fb9" stroke="#328fb9" stroke-width="1"></path><path d="M44,279L-54,285L188,293Z" fill="#778188" stroke="#778188" stroke-width="1"></path><path d="M716,46L728,135L787,47Z" fill="#1485af" stroke="#1485af" stroke-width="1"></path><path d="M796,199L734,218L803,253Z" fill="#74a8c5" stroke="#74a8c5" stroke-width="1"></path><path d="M734,218L716,295L803,253Z" fill="#82adc6" stroke="#82adc6" stroke-width="1"></path><path d="M719,-90L717,-19L775,-13Z" fill="#1d5b77" stroke="#1d5b77" stroke-width="1"></path><path d="M728,135L734,218L796,199Z" fill="#609dbf" stroke="#609dbf" stroke-width="1"></path><path d="M775,-13L716,46L787,47Z" fill="#1a7499" stroke="#1a7499" stroke-width="1"></path><path d="M717,-19L716,46L775,-13Z" fill="#1b6b8c" stroke="#1b6b8c" stroke-width="1"></path><path d="M716,46L662,132L728,135Z" fill="#2d89b1" stroke="#2d89b1" stroke-width="1"></path><path d="M662,132L653,211L728,135Z" fill="#5293b5" stroke="#5293b5" stroke-width="1"></path><path d="M728,135L653,211L734,218Z" fill="#619bba" stroke="#619bba" stroke-width="1"></path><path d="M653,211L716,295L734,218Z" fill="#7aa6c0" stroke="#7aa6c0" stroke-width="1"></path><path d="M631,51L662,132L716,46Z" fill="#1680a8" stroke="#1680a8" stroke-width="1"></path><path d="M653,211L629,272L716,295Z" fill="#81a7be" stroke="#81a7be" stroke-width="1"></path><path d="M620,-50L717,-19L719,-90Z" fill="#1d546d" stroke="#1d546d" stroke-width="1"></path><path d="M631,51L716,46L717,-19Z" fill="#1b6f92" stroke="#1b6f92" stroke-width="1"></path><path d="M620,-50L631,51L717,-19Z" fill="#1c6280" stroke="#1c6280" stroke-width="1"></path><path d="M612,-98L620,-50L719,-90Z" fill="#1c495e" stroke="#1c495e" stroke-width="1"></path><path d="M542,145L586,173L631,51Z" fill="#3b85a8" stroke="#3b85a8" stroke-width="1"></path><path d="M586,173L653,211L662,132Z" fill="#5892b2" stroke="#5892b2" stroke-width="1"></path><path d="M631,51L586,173L662,132Z" fill="#3887ab" stroke="#3887ab" stroke-width="1"></path><path d="M620,-50L548,32L631,51Z" fill="#1c6483" stroke="#1c6483" stroke-width="1"></path><path d="M586,173L629,272L653,211Z" fill="#6e9bb6" stroke="#6e9bb6" stroke-width="1"></path><path d="M552,-51L548,32L620,-50Z" fill="#1d5771" stroke="#1d5771" stroke-width="1"></path><path d="M586,173L559,273L629,272Z" fill="#769db5" stroke="#769db5" stroke-width="1"></path><path d="M548,32L542,145L631,51Z" fill="#18799f" stroke="#18799f" stroke-width="1"></path><path d="M416,-118L494,-85L578,-110Z" fill="#193746" stroke="#193746" stroke-width="1"></path><path d="M578,-110L552,-51L612,-98Z" fill="#1b4255" stroke="#1b4255" stroke-width="1"></path><path d="M612,-98L552,-51L620,-50Z" fill="#1c4a5f" stroke="#1c4a5f" stroke-width="1"></path><path d="M486,112L542,145L548,32Z" fill="#277b9f" stroke="#277b9f" stroke-width="1"></path><path d="M503,246L407,273L559,273Z" fill="#7d9bae" stroke="#7d9bae" stroke-width="1"></path><path d="M542,145L488,180L586,173Z" fill="#538aa8" stroke="#538aa8" stroke-width="1"></path><path d="M488,180L503,246L586,173Z" fill="#6390aa" stroke="#6390aa" stroke-width="1"></path><path d="M503,246L559,273L586,173Z" fill="#7199b0" stroke="#7199b0" stroke-width="1"></path><path d="M494,-85L552,-51L578,-110Z" fill="#1b4154" stroke="#1b4154" stroke-width="1"></path><path d="M488,-54L472,36L548,32Z" fill="#1d5b77" stroke="#1d5b77" stroke-width="1"></path><path d="M472,36L486,112L548,32Z" fill="#1b6f91" stroke="#1b6f91" stroke-width="1"></path><path d="M488,-54L548,32L552,-51Z" fill="#1d536c" stroke="#1d536c" stroke-width="1"></path><path d="M494,-85L488,-54L552,-51Z" fill="#1c4559" stroke="#1c4559" stroke-width="1"></path><path d="M486,112L488,180L542,145Z" fill="#4884a3" stroke="#4884a3" stroke-width="1"></path><path d="M407,-17L472,36L488,-54Z" fill="#1d536b" stroke="#1d536b" stroke-width="1"></path><path d="M488,180L407,273L503,246Z" fill="#7093a8" stroke="#7093a8" stroke-width="1"></path><path d="M472,36L409,116L486,112Z" fill="#207498" stroke="#207498" stroke-width="1"></path><path d="M486,112L409,116L488,180Z" fill="#427f9d" stroke="#427f9d" stroke-width="1"></path><path d="M391,169L407,273L488,180Z" fill="#648ba2" stroke="#648ba2" stroke-width="1"></path><path d="M416,-118L488,-54L494,-85Z" fill="#1a3b4c" stroke="#1a3b4c" stroke-width="1"></path><path d="M404,34L409,116L472,36Z" fill="#1c6a8b" stroke="#1c6a8b" stroke-width="1"></path><path d="M409,116L391,169L488,180Z" fill="#4b809d" stroke="#4b809d" stroke-width="1"></path><path d="M416,-118L407,-17L488,-54Z" fill="#1b4153" stroke="#1b4153" stroke-width="1"></path><path d="M407,-17L404,34L472,36Z" fill="#1d5b76" stroke="#1d5b76" stroke-width="1"></path><path d="M360,28L342,115L404,34Z" fill="#1c6584" stroke="#1c6584" stroke-width="1"></path><path d="M360,28L404,34L407,-17Z" fill="#1d5772" stroke="#1d5772" stroke-width="1"></path><path d="M332,247L292,284L407,273Z" fill="#7a92a0" stroke="#7a92a0" stroke-width="1"></path><path d="M391,169L341,193L407,273Z" fill="#64889e" stroke="#64889e" stroke-width="1"></path><path d="M341,193L332,247L407,273Z" fill="#6f8c9f" stroke="#6f8c9f" stroke-width="1"></path><path d="M404,34L342,115L409,116Z" fill="#217091" stroke="#217091" stroke-width="1"></path><path d="M358,-59L407,-17L416,-118Z" fill="#1b3d4f" stroke="#1b3d4f" stroke-width="1"></path><path d="M313,-125L358,-59L416,-118Z" fill="#18303d" stroke="#18303d" stroke-width="1"></path><path d="M342,115L391,169L409,116Z" fill="#3f7896" stroke="#3f7896" stroke-width="1"></path><path d="M358,-59L360,28L407,-17Z" fill="#1c4c62" stroke="#1c4c62" stroke-width="1"></path><path d="M342,115L341,193L391,169Z" fill="#4c7c96" stroke="#4c7c96" stroke-width="1"></path><path d="M313,-125L263,-92L358,-59Z" fill="#18303c" stroke="#18303c" stroke-width="1"></path><path d="M264,-41L240,66L360,28Z" fill="#1d526a" stroke="#1d526a" stroke-width="1"></path><path d="M263,102L342,115L360,28Z" fill="#1c6a8b" stroke="#1c6a8b" stroke-width="1"></path><path d="M240,66L263,102L360,28Z" fill="#1c6280" stroke="#1c6280" stroke-width="1"></path><path d="M358,-59L264,-41L360,28Z" fill="#1c465b" stroke="#1c465b" stroke-width="1"></path><path d="M263,-92L264,-41L358,-59Z" fill="#1a3847" stroke="#1a3847" stroke-width="1"></path><path d="M237,171L332,247L341,193Z" fill="#5f8196" stroke="#5f8196" stroke-width="1"></path><path d="M263,102L237,171L341,193Z" fill="#48768f" stroke="#48768f" stroke-width="1"></path><path d="M263,102L341,193L342,115Z" fill="#407590" stroke="#407590" stroke-width="1"></path><path d="M237,171L292,284L332,247Z" fill="#6b8697" stroke="#6b8697" stroke-width="1"></path><path d="M189,-122L263,-92L313,-125Z" fill="#152630" stroke="#152630" stroke-width="1"></path><path d="M237,171L172,214L292,284Z" fill="#658091" stroke="#658091" stroke-width="1"></path><path d="M172,214L188,293L292,284Z" fill="#748894" stroke="#748894" stroke-width="1"></path><path d="M123,270L44,279L188,293Z" fill="#77848c" stroke="#77848c" stroke-width="1"></path><path d="M165,104L237,171L263,102Z" fill="#396c86" stroke="#396c86" stroke-width="1"></path><path d="M189,-122L174,-19L263,-92Z" fill="#172e3a" stroke="#172e3a" stroke-width="1"></path><path d="M263,-92L174,-19L264,-41Z" fill="#1a3847" stroke="#1a3847" stroke-width="1"></path><path d="M174,-19L240,66L264,-41Z" fill="#1c495e" stroke="#1c495e" stroke-width="1"></path><path d="M240,66L183,71L263,102Z" fill="#1c6381" stroke="#1c6381" stroke-width="1"></path><path d="M183,71L165,104L263,102Z" fill="#246481" stroke="#246481" stroke-width="1"></path><path d="M174,-19L183,71L240,66Z" fill="#1d536c" stroke="#1d536c" stroke-width="1"></path><path d="M165,104L172,214L237,171Z" fill="#4a7187" stroke="#4a7187" stroke-width="1"></path><path d="M-38,-102L19,-96L112,-124Z" fill="#111b21" stroke="#111b21" stroke-width="1"></path><path d="M118,124L108,171L165,104Z" fill="#3b677f" stroke="#3b677f" stroke-width="1"></path><path d="M165,104L108,171L172,214Z" fill="#496e83" stroke="#496e83" stroke-width="1"></path><path d="M108,-27L87,50L174,-19Z" fill="#1b4255" stroke="#1b4255" stroke-width="1"></path><path d="M112,-124L108,-27L174,-19Z" fill="#18303d" stroke="#18303d" stroke-width="1"></path><path d="M174,-19L87,50L183,71Z" fill="#1c4e65" stroke="#1c4e65" stroke-width="1"></path><path d="M172,214L123,270L188,293Z" fill="#71838e" stroke="#71838e" stroke-width="1"></path><path d="M112,-124L174,-19L189,-122Z" fill="#162832" stroke="#162832" stroke-width="1"></path><path d="M87,50L165,104L183,71Z" fill="#1d5c77" stroke="#1d5c77" stroke-width="1"></path><path d="M87,50L118,124L165,104Z" fill="#245f7a" stroke="#245f7a" stroke-width="1"></path><path d="M108,171L123,270L172,214Z" fill="#607988" stroke="#607988" stroke-width="1"></path><path d="M19,-96L108,-27L112,-124Z" fill="#15252e" stroke="#15252e" stroke-width="1"></path><path d="M87,50L58,66L118,124Z" fill="#1d5a75" stroke="#1d5a75" stroke-width="1"></path><path d="M58,66L37,99L118,124Z" fill="#265c76" stroke="#265c76" stroke-width="1"></path><path d="M108,171L38,214L123,270Z" fill="#5f7584" stroke="#5f7584" stroke-width="1"></path><path d="M38,214L44,279L123,270Z" fill="#6c7b85" stroke="#6c7b85" stroke-width="1"></path><path d="M20,-7L87,50L108,-27Z" fill="#1b4052" stroke="#1b4052" stroke-width="1"></path><path d="M37,99L108,171L118,124Z" fill="#39647b" stroke="#39647b" stroke-width="1"></path><path d="M19,-96L20,-7L108,-27Z" fill="#182f3c" stroke="#182f3c" stroke-width="1"></path><path d="M37,99L38,214L108,171Z" fill="#46687b" stroke="#46687b" stroke-width="1"></path><path d="M19,-96L-9,-53L20,-7Z" fill="#162a35" stroke="#162a35" stroke-width="1"></path><path d="M20,-7L58,66L87,50Z" fill="#1c495e" stroke="#1c495e" stroke-width="1"></path><path d="M-39,101L-13,210L37,99Z" fill="#3a5f73" stroke="#3a5f73" stroke-width="1"></path><path d="M37,99L-13,210L38,214Z" fill="#4b6879" stroke="#4b6879" stroke-width="1"></path><path d="M-17,47L37,99L58,66Z" fill="#1d526b" stroke="#1d526b" stroke-width="1"></path><path d="M20,-7L-17,47L58,66Z" fill="#1c465b" stroke="#1c465b" stroke-width="1"></path><path d="M38,214L-13,210L44,279Z" fill="#63747f" stroke="#63747f" stroke-width="1"></path><path d="M-13,210L-54,285L44,279Z" fill="#6a777f" stroke="#6a777f" stroke-width="1"></path><path d="M-17,47L-39,101L37,99Z" fill="#1d546d" stroke="#1d546d" stroke-width="1"></path><path d="M-38,-102L-9,-53L19,-96Z" fill="#132027" stroke="#132027" stroke-width="1"></path><path d="M-9,-53L-17,47L20,-7Z" fill="#1a3848" stroke="#1a3848" stroke-width="1"></path><path d="M-86,274L-54,285L-13,210Z" fill="#68737b" stroke="#68737b" stroke-width="1"></path><path d="M-39,101L-115,170L-13,210Z" fill="#436071" stroke="#436071" stroke-width="1"></path><path d="M-38,-102L-120,-79L-9,-53Z" fill="#131f26" stroke="#131f26" stroke-width="1"></path><path d="M-120,-79L-138,-25L-9,-53Z" fill="#15242d" stroke="#15242d" stroke-width="1"></path><path d="M-84,58L-17,47L-9,-53Z" fill="#1b3d4e" stroke="#1b3d4e" stroke-width="1"></path><path d="M-138,-25L-84,58L-9,-53Z" fill="#193341" stroke="#193341" stroke-width="1"></path><path d="M-84,58L-39,101L-17,47Z" fill="#1c4d64" stroke="#1c4d64" stroke-width="1"></path><path d="M-115,170L-86,274L-13,210Z" fill="#596a75" stroke="#596a75" stroke-width="1"></path><path d="M-122,122L-115,170L-39,101Z" fill="#36586b" stroke="#36586b" stroke-width="1"></path><path d="M-84,58L-122,122L-39,101Z" fill="#235268" stroke="#235268" stroke-width="1"></path><path d="M-138,-25L-122,122L-84,58Z" fill="#1b4356" stroke="#1b4356" stroke-width="1"></path></svg>