<svg xmlns="http://www.w3.org/2000/svg" width="100%" height="100%" viewBox="0 0 2031 200" preserveAspectRatio="none"><path d="M327,-104L652,-112L691,-116Z" fill="#4b1613" stroke="#4b1613" stroke-width="1"></path><path d="M106,-106L327,-104L691,-116Z" fill="#3c1410" stroke="#3c1410" stroke-width="1"></path><path d="M648,300L330,304L707,306Z" fill="#ca847a" stroke="#ca847a" stroke-width="1"></path><path d="M707,306L330,304L763,312Z" fill="#cf877d" stroke="#cf877d" stroke-width="1"></path><path d="M330,304L111,310L763,312Z" fill="#b8827a" stroke="#b8827a" stroke-width="1"></path><path d="M987,-114L1188,-95L1234,-95Z" fill="#7e2723" stroke="#7e2723" stroke-width="1"></path><path d="M1548,295L1232,296L1616,308Z" fill="#ffb6ab" stroke="#ffb6ab" stroke-width="1"></path><path d="M1232,296L1137,314L1616,308Z" fill="#ffada1" stroke="#ffada1" stroke-width="1"></path><path d="M1441,-82L1563,-81L1710,-102Z" fill="#8c4e46" stroke="#8c4e46" stroke-width="1"></path><path d="M1234,-95L1441,-82L1710,-102Z" fill="#89443d" stroke="#89443d" stroke-width="1"></path><path d="M987,-114L1234,-95L1710,-102Z" fill="#803730" stroke="#803730" stroke-width="1"></path><path d="M691,-116L987,-114L1898,-112Z" fill="#792b26" stroke="#792b26" stroke-width="1"></path><path d="M987,-114L1710,-102L1898,-112Z" fill="#804841" stroke="#804841" stroke-width="1"></path><path d="M1868,283L1747,283L1982,310Z" fill="#ffd5ce" stroke="#ffd5ce" stroke-width="1"></path><path d="M1747,283L1616,308L1982,310Z" fill="#ffd2ca" stroke="#ffd2ca" stroke-width="1"></path><path d="M2059,276L1982,310L2145,265Z" fill="#ffe3de" stroke="#ffe3de" stroke-width="1"></path><path d="M2127,53L2151,110L2152,-32Z" fill="#df8f85" stroke="#df8f85" stroke-width="1"></path><path d="M2151,110L2060,131L2153,202Z" fill="#ffab9f" stroke="#ffab9f" stroke-width="1"></path><path d="M2066,-94L2152,-32L2163,-70Z" fill="#9c7d78" stroke="#9c7d78" stroke-width="1"></path><path d="M2151,110L2153,202L2163,-70Z" fill="#f59589" stroke="#f59589" stroke-width="1"></path><path d="M2152,-32L2151,110L2163,-70Z" fill="#c68a82" stroke="#c68a82" stroke-width="1"></path><path d="M2127,53L2087,87L2151,110Z" fill="#f69386" stroke="#f69386" stroke-width="1"></path><path d="M2087,87L2060,131L2151,110Z" fill="#ff988a" stroke="#ff988a" stroke-width="1"></path><path d="M2049,-10L2127,53L2152,-32Z" fill="#c6867d" stroke="#c6867d" stroke-width="1"></path><path d="M2066,-94L2049,-10L2152,-32Z" fill="#a87d77" stroke="#a87d77" stroke-width="1"></path><path d="M2059,276L2145,265L2153,202Z" fill="#ffd8d1" stroke="#ffd8d1" stroke-width="1"></path><path d="M2041,192L2059,276L2153,202Z" fill="#ffcac1" stroke="#ffcac1" stroke-width="1"></path><path d="M2060,131L2041,192L2153,202Z" fill="#ffb4a9" stroke="#ffb4a9" stroke-width="1"></path><path d="M2049,-10L2087,87L2127,53Z" fill="#dd8a7f" stroke="#dd8a7f" stroke-width="1"></path><path d="M2004,87L2060,131L2087,87Z" fill="#ff9082" stroke="#ff9082" stroke-width="1"></path><path d="M2049,-10L2004,87L2087,87Z" fill="#e3887d" stroke="#e3887d" stroke-width="1"></path><path d="M1996,-24L2004,87L2049,-10Z" fill="#cc8176" stroke="#cc8176" stroke-width="1"></path><path d="M2041,192L1963,239L2059,276Z" fill="#ffcac1" stroke="#ffcac1" stroke-width="1"></path><path d="M1996,146L2041,192L2060,131Z" fill="#ffa79b" stroke="#ffa79b" stroke-width="1"></path><path d="M1996,-24L2049,-10L2066,-94Z" fill="#a97a72" stroke="#a97a72" stroke-width="1"></path><path d="M1998,-109L1996,-24L2066,-94Z" fill="#95736e" stroke="#95736e" stroke-width="1"></path><path d="M1963,239L1982,310L2059,276Z" fill="#ffdad3" stroke="#ffdad3" stroke-width="1"></path><path d="M2004,87L1996,146L2060,131Z" fill="#ff9689" stroke="#ff9689" stroke-width="1"></path><path d="M1673,290L1616,308L1747,283Z" fill="#ffc6bd" stroke="#ffc6bd" stroke-width="1"></path><path d="M1996,146L1963,239L2041,192Z" fill="#ffb5a9" stroke="#ffb5a9" stroke-width="1"></path><path d="M1301,282L1232,296L1548,295Z" fill="#ffa99d" stroke="#ffa99d" stroke-width="1"></path><path d="M1909,3L1925,61L1996,-24Z" fill="#c87a70" stroke="#c87a70" stroke-width="1"></path><path d="M1898,-112L1909,3L1996,-24Z" fill="#a77169" stroke="#a77169" stroke-width="1"></path><path d="M1926,199L1963,239L1996,146Z" fill="#ffb2a7" stroke="#ffb2a7" stroke-width="1"></path><path d="M1898,-112L1996,-24L1998,-109Z" fill="#916e68" stroke="#916e68" stroke-width="1"></path><path d="M1996,-24L1925,61L2004,87Z" fill="#da8075" stroke="#da8075" stroke-width="1"></path><path d="M1920,116L1996,146L2004,87Z" fill="#fe9082" stroke="#fe9082" stroke-width="1"></path><path d="M1925,61L1920,116L2004,87Z" fill="#f58477" stroke="#f58477" stroke-width="1"></path><path d="M1963,239L1922,270L1982,310Z" fill="#ffd5ce" stroke="#ffd5ce" stroke-width="1"></path><path d="M1920,116L1926,199L1996,146Z" fill="#ff9f92" stroke="#ff9f92" stroke-width="1"></path><path d="M1465,279L1301,282L1548,295Z" fill="#ffaea2" stroke="#ffaea2" stroke-width="1"></path><path d="M1922,270L1868,283L1982,310Z" fill="#ffd9d2" stroke="#ffd9d2" stroke-width="1"></path><path d="M1898,-112L1863,-79L1909,3Z" fill="#9b6b64" stroke="#9b6b64" stroke-width="1"></path><path d="M1926,199L1922,270L1963,239Z" fill="#ffc3b9" stroke="#ffc3b9" stroke-width="1"></path><path d="M1710,-102L1775,-75L1898,-112Z" fill="#885e58" stroke="#885e58" stroke-width="1"></path><path d="M1827,87L1920,116L1925,61Z" fill="#f47f72" stroke="#f47f72" stroke-width="1"></path><path d="M1909,3L1827,87L1925,61Z" fill="#dd7a6e" stroke="#dd7a6e" stroke-width="1"></path><path d="M1868,283L1922,270L1926,199Z" fill="#ffc6bd" stroke="#ffc6bd" stroke-width="1"></path><path d="M1819,231L1868,283L1926,199Z" fill="#ffbeb4" stroke="#ffbeb4" stroke-width="1"></path><path d="M1866,143L1819,231L1926,199Z" fill="#ffa99c" stroke="#ffa99c" stroke-width="1"></path><path d="M1920,116L1866,143L1926,199Z" fill="#ff9a8d" stroke="#ff9a8d" stroke-width="1"></path><path d="M1828,-7L1827,87L1909,3Z" fill="#cf7469" stroke="#cf7469" stroke-width="1"></path><path d="M1827,87L1866,143L1920,116Z" fill="#fc8678" stroke="#fc8678" stroke-width="1"></path><path d="M1863,-79L1828,-7L1909,3Z" fill="#af6e65" stroke="#af6e65" stroke-width="1"></path><path d="M1775,-75L1863,-79L1898,-112Z" fill="#8c635d" stroke="#8c635d" stroke-width="1"></path><path d="M1775,-75L1828,-7L1863,-79Z" fill="#a0675f" stroke="#a0675f" stroke-width="1"></path><path d="M1786,225L1819,231L1866,143Z" fill="#ffa89c" stroke="#ffa89c" stroke-width="1"></path><path d="M1741,158L1786,225L1866,143Z" fill="#ff9b8e" stroke="#ff9b8e" stroke-width="1"></path><path d="M1819,231L1747,283L1868,283Z" fill="#ffc5bc" stroke="#ffc5bc" stroke-width="1"></path><path d="M1827,87L1741,158L1866,143Z" fill="#fc877a" stroke="#fc877a" stroke-width="1"></path><path d="M1786,225L1747,283L1819,231Z" fill="#ffbaaf" stroke="#ffbaaf" stroke-width="1"></path><path d="M1775,-75L1740,8L1828,-7Z" fill="#b0675e" stroke="#b0675e" stroke-width="1"></path><path d="M1738,37L1827,87L1828,-7Z" fill="#d57165" stroke="#d57165" stroke-width="1"></path><path d="M1740,8L1738,37L1828,-7Z" fill="#c66b60" stroke="#c66b60" stroke-width="1"></path><path d="M1738,37L1741,158L1827,87Z" fill="#f57468" stroke="#f57468" stroke-width="1"></path><path d="M1399,272L1301,282L1465,279Z" fill="#ffa699" stroke="#ffa699" stroke-width="1"></path><path d="M1563,-81L1601,-76L1710,-102Z" fill="#8d524b" stroke="#8d524b" stroke-width="1"></path><path d="M1738,37L1694,109L1741,158Z" fill="#f87165" stroke="#f87165" stroke-width="1"></path><path d="M1695,226L1747,283L1786,225Z" fill="#ffb6ab" stroke="#ffb6ab" stroke-width="1"></path><path d="M1741,158L1695,226L1786,225Z" fill="#ffa396" stroke="#ffa396" stroke-width="1"></path><path d="M1710,-102L1740,8L1775,-75Z" fill="#9e6057" stroke="#9e6057" stroke-width="1"></path><path d="M1670,41L1694,109L1738,37Z" fill="#e16a5f" stroke="#e16a5f" stroke-width="1"></path><path d="M1710,-102L1699,14L1740,8Z" fill="#af6158" stroke="#af6158" stroke-width="1"></path><path d="M1695,226L1673,290L1747,283Z" fill="#ffbcb2" stroke="#ffbcb2" stroke-width="1"></path><path d="M1699,14L1738,37L1740,8Z" fill="#c9685d" stroke="#c9685d" stroke-width="1"></path><path d="M1694,109L1695,226L1741,158Z" fill="#fd8e81" stroke="#fd8e81" stroke-width="1"></path><path d="M1699,14L1670,41L1738,37Z" fill="#cf675c" stroke="#cf675c" stroke-width="1"></path><path d="M1694,109L1616,128L1695,226Z" fill="#fc8578" stroke="#fc8578" stroke-width="1"></path><path d="M1616,128L1600,196L1695,226Z" fill="#fe9083" stroke="#fe9083" stroke-width="1"></path><path d="M1602,-40L1699,14L1710,-102Z" fill="#a55c53" stroke="#a55c53" stroke-width="1"></path><path d="M1601,-76L1602,-40L1710,-102Z" fill="#94554d" stroke="#94554d" stroke-width="1"></path><path d="M1670,41L1611,62L1694,109Z" fill="#e6675c" stroke="#e6675c" stroke-width="1"></path><path d="M1602,-40L1670,41L1699,14Z" fill="#c06056" stroke="#c06056" stroke-width="1"></path><path d="M1611,62L1616,128L1694,109Z" fill="#f6685d" stroke="#f6685d" stroke-width="1"></path><path d="M1600,196L1673,290L1695,226Z" fill="#ffab9f" stroke="#ffab9f" stroke-width="1"></path><path d="M844,296L763,312L1137,314Z" fill="#f38f83" stroke="#f38f83" stroke-width="1"></path><path d="M1602,-40L1611,62L1670,41Z" fill="#c95f55" stroke="#c95f55" stroke-width="1"></path><path d="M1600,196L1616,308L1673,290Z" fill="#ffb5aa" stroke="#ffb5aa" stroke-width="1"></path><path d="M1234,-95L1310,-72L1441,-82Z" fill="#8c3a33" stroke="#8c3a33" stroke-width="1"></path><path d="M1520,231L1548,295L1600,196Z" fill="#ffa497" stroke="#ffa497" stroke-width="1"></path><path d="M1528,-13L1532,37L1602,-40Z" fill="#b9554c" stroke="#b9554c" stroke-width="1"></path><path d="M1602,-40L1532,37L1611,62Z" fill="#c85b51" stroke="#c85b51" stroke-width="1"></path><path d="M1611,62L1519,113L1616,128Z" fill="#f66258" stroke="#f66258" stroke-width="1"></path><path d="M1519,113L1600,196L1616,128Z" fill="#fb796c" stroke="#fb796c" stroke-width="1"></path><path d="M1600,196L1548,295L1616,308Z" fill="#ffb2a7" stroke="#ffb2a7" stroke-width="1"></path><path d="M1532,37L1519,113L1611,62Z" fill="#e45c53" stroke="#e45c53" stroke-width="1"></path><path d="M1519,113L1520,231L1600,196Z" fill="#fe8679" stroke="#fe8679" stroke-width="1"></path><path d="M1601,-76L1563,-81L1602,-40Z" fill="#98524a" stroke="#98524a" stroke-width="1"></path><path d="M1563,-81L1528,-13L1602,-40Z" fill="#a4524a" stroke="#a4524a" stroke-width="1"></path><path d="M1519,113L1454,133L1520,231Z" fill="#fc786b" stroke="#fc786b" stroke-width="1"></path><path d="M1476,-28L1528,-13L1563,-81Z" fill="#a64f46" stroke="#a64f46" stroke-width="1"></path><path d="M1441,-82L1476,-28L1563,-81Z" fill="#994a42" stroke="#994a42" stroke-width="1"></path><path d="M106,-106L271,-101L327,-104Z" fill="#32120e" stroke="#32120e" stroke-width="1"></path><path d="M1472,54L1519,113L1532,37Z" fill="#e2574e" stroke="#e2574e" stroke-width="1"></path><path d="M1520,231L1465,279L1548,295Z" fill="#ffaca0" stroke="#ffaca0" stroke-width="1"></path><path d="M1454,133L1445,235L1520,231Z" fill="#ff897c" stroke="#ff897c" stroke-width="1"></path><path d="M1476,-28L1472,54L1528,-13Z" fill="#be5148" stroke="#be5148" stroke-width="1"></path><path d="M1528,-13L1472,54L1532,37Z" fill="#cb544b" stroke="#cb544b" stroke-width="1"></path><path d="M1096,302L844,296L1137,314Z" fill="#ff9184" stroke="#ff9184" stroke-width="1"></path><path d="M1472,54L1454,133L1519,113Z" fill="#f4574f" stroke="#f4574f" stroke-width="1"></path><path d="M1445,235L1465,279L1520,231Z" fill="#ffa093" stroke="#ffa093" stroke-width="1"></path><path d="M1310,-72L1418,-67L1441,-82Z" fill="#924039" stroke="#924039" stroke-width="1"></path><path d="M1369,90L1418,143L1454,133Z" fill="#f55c53" stroke="#f55c53" stroke-width="1"></path><path d="M1418,143L1445,235L1454,133Z" fill="#fc786b" stroke="#fc786b" stroke-width="1"></path><path d="M1369,90L1454,133L1472,54Z" fill="#ee514a" stroke="#ee514a" stroke-width="1"></path><path d="M1371,3L1472,54L1476,-28Z" fill="#c04c44" stroke="#c04c44" stroke-width="1"></path><path d="M1418,-67L1371,3L1476,-28Z" fill="#a9473f" stroke="#a9473f" stroke-width="1"></path><path d="M1441,-82L1418,-67L1476,-28Z" fill="#9b463f" stroke="#9b463f" stroke-width="1"></path><path d="M1418,143L1379,188L1445,235Z" fill="#fd7e71" stroke="#fd7e71" stroke-width="1"></path><path d="M1371,3L1369,90L1472,54Z" fill="#d54b44" stroke="#d54b44" stroke-width="1"></path><path d="M1445,235L1399,272L1465,279Z" fill="#ffa396" stroke="#ffa396" stroke-width="1"></path><path d="M1379,188L1399,272L1445,235Z" fill="#fe9285" stroke="#fe9285" stroke-width="1"></path><path d="M1310,-72L1371,3L1418,-67Z" fill="#a04139" stroke="#a04139" stroke-width="1"></path><path d="M1327,141L1379,188L1418,143Z" fill="#f96b5f" stroke="#f96b5f" stroke-width="1"></path><path d="M1369,90L1327,141L1418,143Z" fill="#f55950" stroke="#f55950" stroke-width="1"></path><path d="M1310,-72L1308,-31L1371,3Z" fill="#a63e37" stroke="#a63e37" stroke-width="1"></path><path d="M1379,188L1321,237L1399,272Z" fill="#fe8f81" stroke="#fe8f81" stroke-width="1"></path><path d="M1321,237L1301,282L1399,272Z" fill="#ff9b8e" stroke="#ff9b8e" stroke-width="1"></path><path d="M1304,61L1369,90L1371,3Z" fill="#d54540" stroke="#d54540" stroke-width="1"></path><path d="M1327,141L1321,237L1379,188Z" fill="#fc776b" stroke="#fc776b" stroke-width="1"></path><path d="M1308,-31L1304,61L1371,3Z" fill="#be413b" stroke="#be413b" stroke-width="1"></path><path d="M1304,61L1327,141L1369,90Z" fill="#ee4542" stroke="#ee4542" stroke-width="1"></path><path d="M1246,44L1304,61L1308,-31Z" fill="#c43d38" stroke="#c43d38" stroke-width="1"></path><path d="M1232,162L1225,234L1321,237Z" fill="#fb7b6e" stroke="#fb7b6e" stroke-width="1"></path><path d="M1232,162L1321,237L1327,141Z" fill="#fa6e63" stroke="#fa6e63" stroke-width="1"></path><path d="M1304,61L1232,162L1327,141Z" fill="#f24d48" stroke="#f24d48" stroke-width="1"></path><path d="M1246,44L1232,162L1304,61Z" fill="#e83c3b" stroke="#e83c3b" stroke-width="1"></path><path d="M1225,234L1301,282L1321,237Z" fill="#fd9083" stroke="#fd9083" stroke-width="1"></path><path d="M1213,-6L1246,44L1308,-31Z" fill="#b73834" stroke="#b73834" stroke-width="1"></path><path d="M1234,-95L1308,-31L1310,-72Z" fill="#943731" stroke="#943731" stroke-width="1"></path><path d="M1234,-95L1213,-6L1308,-31Z" fill="#9e3630" stroke="#9e3630" stroke-width="1"></path><path d="M1225,234L1232,296L1301,282Z" fill="#ff9689" stroke="#ff9689" stroke-width="1"></path><path d="M427,289L330,304L648,300Z" fill="#bf7f76" stroke="#bf7f76" stroke-width="1"></path><path d="M1174,-38L1213,-6L1234,-95Z" fill="#9c312d" stroke="#9c312d" stroke-width="1"></path><path d="M1188,-95L1174,-38L1234,-95Z" fill="#8c2e2a" stroke="#8c2e2a" stroke-width="1"></path><path d="M1213,-6L1149,54L1246,44Z" fill="#c53332" stroke="#c53332" stroke-width="1"></path><path d="M1149,54L1177,115L1246,44Z" fill="#db3234" stroke="#db3234" stroke-width="1"></path><path d="M1177,115L1232,162L1246,44Z" fill="#ee3b3c" stroke="#ee3b3c" stroke-width="1"></path><path d="M327,-104L422,-92L652,-112Z" fill="#471512" stroke="#471512" stroke-width="1"></path><path d="M1174,239L1225,234L1232,162Z" fill="#fa766a" stroke="#fa766a" stroke-width="1"></path><path d="M1225,234L1174,239L1232,296Z" fill="#fd8c7f" stroke="#fd8c7f" stroke-width="1"></path><path d="M987,-114L1106,-60L1188,-95Z" fill="#832321" stroke="#832321" stroke-width="1"></path><path d="M1177,115L1174,239L1232,162Z" fill="#f66056" stroke="#f66056" stroke-width="1"></path><path d="M1174,239L1137,314L1232,296Z" fill="#ff9689" stroke="#ff9689" stroke-width="1"></path><path d="M1010,271L844,296L1096,302Z" fill="#f9897c" stroke="#f9897c" stroke-width="1"></path><path d="M1105,154L1174,239L1177,115Z" fill="#f55a51" stroke="#f55a51" stroke-width="1"></path><path d="M1174,-38L1149,54L1213,-6Z" fill="#b62f2e" stroke="#b62f2e" stroke-width="1"></path><path d="M691,-116L776,-90L987,-114Z" fill="#651817" stroke="#651817" stroke-width="1"></path><path d="M1106,-60L1174,-38L1188,-95Z" fill="#912a27" stroke="#912a27" stroke-width="1"></path><path d="M1105,154L1071,190L1174,239Z" fill="#f7645a" stroke="#f7645a" stroke-width="1"></path><path d="M1096,302L1137,314L1174,239Z" fill="#fe9385" stroke="#fe9385" stroke-width="1"></path><path d="M1073,3L1149,54L1174,-38Z" fill="#b6292b" stroke="#b6292b" stroke-width="1"></path><path d="M1106,-60L1073,3L1174,-38Z" fill="#a12727" stroke="#a12727" stroke-width="1"></path><path d="M1149,54L1090,64L1177,115Z" fill="#de2930" stroke="#de2930" stroke-width="1"></path><path d="M1090,64L1105,154L1177,115Z" fill="#eb3036" stroke="#eb3036" stroke-width="1"></path><path d="M1071,190L1096,302L1174,239Z" fill="#fa7d70" stroke="#fa7d70" stroke-width="1"></path><path d="M1073,3L1090,64L1149,54Z" fill="#c8242b" stroke="#c8242b" stroke-width="1"></path><path d="M1071,190L1031,219L1096,302Z" fill="#f97569" stroke="#f97569" stroke-width="1"></path><path d="M776,-90L860,-77L987,-114Z" fill="#711918" stroke="#711918" stroke-width="1"></path><path d="M925,260L844,296L1010,271Z" fill="#f18174" stroke="#f18174" stroke-width="1"></path><path d="M1031,219L1010,271L1096,302Z" fill="#fb8073" stroke="#fb8073" stroke-width="1"></path><path d="M1090,64L1043,90L1105,154Z" fill="#e91e2e" stroke="#e91e2e" stroke-width="1"></path><path d="M1043,90L1071,190L1105,154Z" fill="#ef4240" stroke="#ef4240" stroke-width="1"></path><path d="M987,-114L1073,3L1106,-60Z" fill="#921f20" stroke="#921f20" stroke-width="1"></path><path d="M1043,90L1000,141L1071,190Z" fill="#ed3a3b" stroke="#ed3a3b" stroke-width="1"></path><path d="M963,-81L1004,12L1073,3Z" fill="#a3171f" stroke="#a3171f" stroke-width="1"></path><path d="M987,-114L963,-81L1073,3Z" fill="#8d191c" stroke="#8d191c" stroke-width="1"></path><path d="M1004,12L1043,90L1073,3Z" fill="#c31825" stroke="#c31825" stroke-width="1"></path><path d="M1073,3L1043,90L1090,64Z" fill="#cd1d29" stroke="#cd1d29" stroke-width="1"></path><path d="M1000,141L1031,219L1071,190Z" fill="#f4554e" stroke="#f4554e" stroke-width="1"></path><path d="M1004,12L926,86L1043,90Z" fill="#cf0d25" stroke="#cf0d25" stroke-width="1"></path><path d="M926,86L1000,141L1043,90Z" fill="#e4102a" stroke="#e4102a" stroke-width="1"></path><path d="M963,230L1010,271L1031,219Z" fill="#f67165" stroke="#f67165" stroke-width="1"></path><path d="M1000,141L963,230L1031,219Z" fill="#f35a52" stroke="#f35a52" stroke-width="1"></path><path d="M929,133L963,230L1000,141Z" fill="#eb4944" stroke="#eb4944" stroke-width="1"></path><path d="M926,86L929,133L1000,141Z" fill="#e22530" stroke="#e22530" stroke-width="1"></path><path d="M963,-81L913,-7L1004,12Z" fill="#9c181e" stroke="#9c181e" stroke-width="1"></path><path d="M963,230L925,260L1010,271Z" fill="#f3786b" stroke="#f3786b" stroke-width="1"></path><path d="M913,-7L926,86L1004,12Z" fill="#b91422" stroke="#b91422" stroke-width="1"></path><path d="M913,-7L893,47L926,86Z" fill="#bb1322" stroke="#bb1322" stroke-width="1"></path><path d="M860,-77L963,-81L987,-114Z" fill="#78191a" stroke="#78191a" stroke-width="1"></path><path d="M860,-77L913,-7L963,-81Z" fill="#88191c" stroke="#88191c" stroke-width="1"></path><path d="M929,133L846,209L963,230Z" fill="#e9564d" stroke="#e9564d" stroke-width="1"></path><path d="M846,209L925,260L963,230Z" fill="#eb6c60" stroke="#eb6c60" stroke-width="1"></path><path d="M479,281L427,289L648,300Z" fill="#c47d73" stroke="#c47d73" stroke-width="1"></path><path d="M860,-77L845,-27L913,-7Z" fill="#8d191c" stroke="#8d191c" stroke-width="1"></path><path d="M873,113L846,209L929,133Z" fill="#e03e3c" stroke="#e03e3c" stroke-width="1"></path><path d="M926,86L873,113L929,133Z" fill="#dc1b2b" stroke="#dc1b2b" stroke-width="1"></path><path d="M893,47L873,113L926,86Z" fill="#cf0d25" stroke="#cf0d25" stroke-width="1"></path><path d="M846,209L844,296L925,260Z" fill="#e9766a" stroke="#e9766a" stroke-width="1"></path><path d="M845,-27L893,47L913,-7Z" fill="#a4171f" stroke="#a4171f" stroke-width="1"></path><path d="M799,144L846,209L873,113Z" fill="#dc403d" stroke="#dc403d" stroke-width="1"></path><path d="M798,83L873,113L893,47Z" fill="#ca0f24" stroke="#ca0f24" stroke-width="1"></path><path d="M845,-27L798,83L893,47Z" fill="#b01621" stroke="#b01621" stroke-width="1"></path><path d="M788,-28L798,83L845,-27Z" fill="#9f181f" stroke="#9f181f" stroke-width="1"></path><path d="M799,144L800,196L846,209Z" fill="#dd5049" stroke="#dd5049" stroke-width="1"></path><path d="M798,83L799,144L873,113Z" fill="#d41f2b" stroke="#d41f2b" stroke-width="1"></path><path d="M800,196L844,296L846,209Z" fill="#e26b5f" stroke="#e26b5f" stroke-width="1"></path><path d="M788,-28L845,-27L860,-77Z" fill="#86191b" stroke="#86191b" stroke-width="1"></path><path d="M776,-90L788,-28L860,-77Z" fill="#79191a" stroke="#79191a" stroke-width="1"></path><path d="M730,235L763,312L800,196Z" fill="#dc7064" stroke="#dc7064" stroke-width="1"></path><path d="M800,196L763,312L844,296Z" fill="#e27b6e" stroke="#e27b6e" stroke-width="1"></path><path d="M422,-92L496,-79L652,-112Z" fill="#501714" stroke="#501714" stroke-width="1"></path><path d="M715,-25L740,90L788,-28Z" fill="#9a181e" stroke="#9a181e" stroke-width="1"></path><path d="M788,-28L740,90L798,83Z" fill="#b01621" stroke="#b01621" stroke-width="1"></path><path d="M798,83L740,90L799,144Z" fill="#ce1727" stroke="#ce1727" stroke-width="1"></path><path d="M799,144L707,157L800,196Z" fill="#d64640" stroke="#d64640" stroke-width="1"></path><path d="M707,157L730,235L800,196Z" fill="#d7564d" stroke="#d7564d" stroke-width="1"></path><path d="M740,90L707,157L799,144Z" fill="#ce2f31" stroke="#ce2f31" stroke-width="1"></path><path d="M776,-90L715,-25L788,-28Z" fill="#7d191a" stroke="#7d191a" stroke-width="1"></path><path d="M730,235L707,306L763,312Z" fill="#dc8075" stroke="#dc8075" stroke-width="1"></path><path d="M691,-116L715,-25L776,-90Z" fill="#6b1918" stroke="#6b1918" stroke-width="1"></path><path d="M715,-25L661,-4L740,90Z" fill="#9a181e" stroke="#9a181e" stroke-width="1"></path><path d="M707,157L651,234L730,235Z" fill="#d25c52" stroke="#d25c52" stroke-width="1"></path><path d="M622,65L707,157L740,90Z" fill="#c41725" stroke="#c41725" stroke-width="1"></path><path d="M661,-4L622,65L740,90Z" fill="#a71720" stroke="#a71720" stroke-width="1"></path><path d="M622,65L646,162L707,157Z" fill="#c42d2f" stroke="#c42d2f" stroke-width="1"></path><path d="M691,-116L652,-112L715,-25Z" fill="#641817" stroke="#641817" stroke-width="1"></path><path d="M651,234L707,306L730,235Z" fill="#d57468" stroke="#d57468" stroke-width="1"></path><path d="M651,234L648,300L707,306Z" fill="#d47d72" stroke="#d47d72" stroke-width="1"></path><path d="M646,162L651,234L707,157Z" fill="#cd4f47" stroke="#cd4f47" stroke-width="1"></path><path d="M652,-112L661,-4L715,-25Z" fill="#751919" stroke="#751919" stroke-width="1"></path><path d="M540,261L479,281L648,300Z" fill="#c77a70" stroke="#c77a70" stroke-width="1"></path><path d="M646,162L563,223L651,234Z" fill="#ca5950" stroke="#ca5950" stroke-width="1"></path><path d="M496,-79L566,-62L652,-112Z" fill="#591715" stroke="#591715" stroke-width="1"></path><path d="M579,13L622,65L661,-4Z" fill="#94191d" stroke="#94191d" stroke-width="1"></path><path d="M652,-112L566,-62L661,-4Z" fill="#6a1918" stroke="#6a1918" stroke-width="1"></path><path d="M566,-62L579,13L661,-4Z" fill="#7d191a" stroke="#7d191a" stroke-width="1"></path><path d="M622,65L538,129L646,162Z" fill="#bd262a" stroke="#bd262a" stroke-width="1"></path><path d="M563,223L540,261L648,300Z" fill="#c97267" stroke="#c97267" stroke-width="1"></path><path d="M563,223L648,300L651,234Z" fill="#cc6f64" stroke="#cc6f64" stroke-width="1"></path><path d="M538,129L563,223L646,162Z" fill="#c24740" stroke="#c24740" stroke-width="1"></path><path d="M579,13L550,43L622,65Z" fill="#98181e" stroke="#98181e" stroke-width="1"></path><path d="M550,43L538,129L622,65Z" fill="#ab1620" stroke="#ab1620" stroke-width="1"></path><path d="M506,71L538,129L550,43Z" fill="#a91720" stroke="#a91720" stroke-width="1"></path><path d="M538,129L515,186L563,223Z" fill="#bf4a42" stroke="#bf4a42" stroke-width="1"></path><path d="M566,-62L504,-6L579,13Z" fill="#771919" stroke="#771919" stroke-width="1"></path><path d="M504,-6L550,43L579,13Z" fill="#88191c" stroke="#88191c" stroke-width="1"></path><path d="M496,-79L504,-6L566,-62Z" fill="#651817" stroke="#651817" stroke-width="1"></path><path d="M515,186L540,261L563,223Z" fill="#c26056" stroke="#c26056" stroke-width="1"></path><path d="M504,-6L506,71L550,43Z" fill="#90191d" stroke="#90191d" stroke-width="1"></path><path d="M483,158L515,186L538,129Z" fill="#b93f39" stroke="#b93f39" stroke-width="1"></path><path d="M506,71L483,158L538,129Z" fill="#b32729" stroke="#b32729" stroke-width="1"></path><path d="M515,186L479,281L540,261Z" fill="#bf685e" stroke="#bf685e" stroke-width="1"></path><path d="M422,110L483,158L506,71Z" fill="#ae2226" stroke="#ae2226" stroke-width="1"></path><path d="M504,-6L422,86L506,71Z" fill="#93191d" stroke="#93191d" stroke-width="1"></path><path d="M483,158L430,222L515,186Z" fill="#b94e45" stroke="#b94e45" stroke-width="1"></path><path d="M430,222L479,281L515,186Z" fill="#bb6157" stroke="#bb6157" stroke-width="1"></path><path d="M390,8L422,86L504,-6Z" fill="#84191b" stroke="#84191b" stroke-width="1"></path><path d="M496,-79L422,-92L504,-6Z" fill="#5c1816" stroke="#5c1816" stroke-width="1"></path><path d="M422,-92L390,8L504,-6Z" fill="#671917" stroke="#671917" stroke-width="1"></path><path d="M422,86L422,110L506,71Z" fill="#a4171f" stroke="#a4171f" stroke-width="1"></path><path d="M430,222L427,289L479,281Z" fill="#b97066" stroke="#b97066" stroke-width="1"></path><path d="M422,110L430,222L483,158Z" fill="#b3413a" stroke="#b3413a" stroke-width="1"></path><path d="M188,283L111,310L330,304Z" fill="#a17872" stroke="#a17872" stroke-width="1"></path><path d="M340,-31L390,8L422,-92Z" fill="#5e1816" stroke="#5e1816" stroke-width="1"></path><path d="M422,110L351,113L430,222Z" fill="#ac3833" stroke="#ac3833" stroke-width="1"></path><path d="M351,113L322,195L430,222Z" fill="#ac463f" stroke="#ac463f" stroke-width="1"></path><path d="M330,304L427,289L430,222Z" fill="#b47269" stroke="#b47269" stroke-width="1"></path><path d="M322,195L330,304L430,222Z" fill="#af635a" stroke="#af635a" stroke-width="1"></path><path d="M390,8L318,71L422,86Z" fill="#8b191c" stroke="#8b191c" stroke-width="1"></path><path d="M318,71L351,113L422,86Z" fill="#9c181e" stroke="#9c181e" stroke-width="1"></path><path d="M327,-104L340,-31L422,-92Z" fill="#4a1613" stroke="#4a1613" stroke-width="1"></path><path d="M422,86L351,113L422,110Z" fill="#a51a21" stroke="#a51a21" stroke-width="1"></path><path d="M248,275L188,283L330,304Z" fill="#a5756d" stroke="#a5756d" stroke-width="1"></path><path d="M340,-31L318,71L390,8Z" fill="#751919" stroke="#751919" stroke-width="1"></path><path d="M248,218L248,275L322,195Z" fill="#a55d54" stroke="#a55d54" stroke-width="1"></path><path d="M322,195L248,275L330,304Z" fill="#a96a61" stroke="#a96a61" stroke-width="1"></path><path d="M268,58L318,71L340,-31Z" fill="#79191a" stroke="#79191a" stroke-width="1"></path><path d="M276,-38L268,58L340,-31Z" fill="#661817" stroke="#661817" stroke-width="1"></path><path d="M327,-104L276,-38L340,-31Z" fill="#4e1613" stroke="#4e1613" stroke-width="1"></path><path d="M281,141L322,195L351,113Z" fill="#a43833" stroke="#a43833" stroke-width="1"></path><path d="M318,71L281,141L351,113Z" fill="#9e1f22" stroke="#9e1f22" stroke-width="1"></path><path d="M271,-101L276,-38L327,-104Z" fill="#411511" stroke="#411511" stroke-width="1"></path><path d="M268,58L281,141L318,71Z" fill="#95191d" stroke="#95191d" stroke-width="1"></path><path d="M281,141L248,218L322,195Z" fill="#a44941" stroke="#a44941" stroke-width="1"></path><path d="M106,-106L171,-65L271,-101Z" fill="#34120e" stroke="#34120e" stroke-width="1"></path><path d="M271,-101L209,-24L276,-38Z" fill="#4a1613" stroke="#4a1613" stroke-width="1"></path><path d="M209,-24L268,58L276,-38Z" fill="#631817" stroke="#631817" stroke-width="1"></path><path d="M185,138L248,218L281,141Z" fill="#9d3f38" stroke="#9d3f38" stroke-width="1"></path><path d="M268,58L205,75L281,141Z" fill="#92191d" stroke="#92191d" stroke-width="1"></path><path d="M205,75L185,138L281,141Z" fill="#962524" stroke="#962524" stroke-width="1"></path><path d="M209,-24L205,75L268,58Z" fill="#731919" stroke="#731919" stroke-width="1"></path><path d="M171,-65L209,-24L271,-101Z" fill="#431511" stroke="#431511" stroke-width="1"></path><path d="M185,138L180,223L248,218Z" fill="#9d4b43" stroke="#9d4b43" stroke-width="1"></path><path d="M248,218L180,223L248,275Z" fill="#a05f57" stroke="#a05f57" stroke-width="1"></path><path d="M180,223L188,283L248,275Z" fill="#9e6860" stroke="#9e6860" stroke-width="1"></path><path d="M103,-6L96,35L205,75Z" fill="#6a1917" stroke="#6a1917" stroke-width="1"></path><path d="M103,-6L205,75L209,-24Z" fill="#641817" stroke="#641817" stroke-width="1"></path><path d="M171,-65L103,-6L209,-24Z" fill="#4c1613" stroke="#4c1613" stroke-width="1"></path><path d="M135,221L180,223L185,138Z" fill="#994b43" stroke="#994b43" stroke-width="1"></path><path d="M101,118L185,138L205,75Z" fill="#8f2020" stroke="#8f2020" stroke-width="1"></path><path d="M96,35L101,118L205,75Z" fill="#7e191a" stroke="#7e191a" stroke-width="1"></path><path d="M60,285L-124,311L111,310Z" fill="#8a736f" stroke="#8a736f" stroke-width="1"></path><path d="M101,118L135,221L185,138Z" fill="#933a34" stroke="#933a34" stroke-width="1"></path><path d="M180,223L135,221L188,283Z" fill="#9a5f58" stroke="#9a5f58" stroke-width="1"></path><path d="M135,221L111,310L188,283Z" fill="#986b64" stroke="#986b64" stroke-width="1"></path><path d="M106,-106L103,-6L171,-65Z" fill="#3d1410" stroke="#3d1410" stroke-width="1"></path><path d="M-49,275L-124,311L60,285Z" fill="#846d69" stroke="#846d69" stroke-width="1"></path><path d="M60,-102L103,-6L106,-106Z" fill="#34130e" stroke="#34130e" stroke-width="1"></path><path d="M101,118L65,222L135,221Z" fill="#91463f" stroke="#91463f" stroke-width="1"></path><path d="M60,285L111,310L135,221Z" fill="#936a64" stroke="#936a64" stroke-width="1"></path><path d="M65,222L60,285L135,221Z" fill="#915d56" stroke="#915d56" stroke-width="1"></path><path d="M31,139L65,222L101,118Z" fill="#8b3933" stroke="#8b3933" stroke-width="1"></path><path d="M96,35L36,54L101,118Z" fill="#751919" stroke="#751919" stroke-width="1"></path><path d="M60,-102L18,13L103,-6Z" fill="#431511" stroke="#431511" stroke-width="1"></path><path d="M36,54L31,139L101,118Z" fill="#831c1c" stroke="#831c1c" stroke-width="1"></path><path d="M18,13L96,35L103,-6Z" fill="#5a1815" stroke="#5a1815" stroke-width="1"></path><path d="M18,13L36,54L96,35Z" fill="#611816" stroke="#611816" stroke-width="1"></path><path d="M-56,-82L18,13L60,-102Z" fill="#33120e" stroke="#33120e" stroke-width="1"></path><path d="M31,139L-31,152L65,222Z" fill="#883e37" stroke="#883e37" stroke-width="1"></path><path d="M-31,152L-63,201L65,222Z" fill="#86463f" stroke="#86463f" stroke-width="1"></path><path d="M-49,275L60,285L65,222Z" fill="#8a635d" stroke="#8a635d" stroke-width="1"></path><path d="M-63,201L-49,275L65,222Z" fill="#865750" stroke="#865750" stroke-width="1"></path><path d="M-56,-82L-52,7L18,13Z" fill="#401511" stroke="#401511" stroke-width="1"></path><path d="M-28,54L-31,152L31,139Z" fill="#7e2220" stroke="#7e2220" stroke-width="1"></path><path d="M-28,54L31,139L36,54Z" fill="#761919" stroke="#761919" stroke-width="1"></path><path d="M18,13L-28,54L36,54Z" fill="#611816" stroke="#611816" stroke-width="1"></path><path d="M-52,7L-28,54L18,13Z" fill="#561715" stroke="#561715" stroke-width="1"></path><path d="M-56,-82L-90,-76L-52,7Z" fill="#30120d" stroke="#30120d" stroke-width="1"></path><path d="M-119,85L-105,156L-31,152Z" fill="#792a25" stroke="#792a25" stroke-width="1"></path><path d="M-119,85L-31,152L-28,54Z" fill="#761919" stroke="#761919" stroke-width="1"></path><path d="M-52,7L-119,85L-28,54Z" fill="#5e1816" stroke="#5e1816" stroke-width="1"></path><path d="M-105,156L-63,201L-31,152Z" fill="#7f3c35" stroke="#7f3c35" stroke-width="1"></path><path d="M-130,208L-119,85L-112,2Z" fill="#711918" stroke="#711918" stroke-width="1"></path><path d="M-112,2L-119,85L-52,7Z" fill="#531714" stroke="#531714" stroke-width="1"></path><path d="M-90,-76L-112,2L-52,7Z" fill="#3b1410" stroke="#3b1410" stroke-width="1"></path><path d="M-63,201L-130,208L-49,275Z" fill="#7f534d" stroke="#7f534d" stroke-width="1"></path><path d="M-130,208L-124,311L-49,275Z" fill="#7c615d" stroke="#7c615d" stroke-width="1"></path><path d="M-105,156L-130,208L-63,201Z" fill="#7d433c" stroke="#7d433c" stroke-width="1"></path><path d="M-119,85L-130,208L-105,156Z" fill="#78322c" stroke="#78322c" stroke-width="1"></path></svg>